<?xml version="1.0" standalone="no"?>
<!DOCTYPE svg PUBLIC "-//W3C//DTD SVG 1.1//EN" "http://www.w3.org/Graphics/SVG/1.1/DTD/svg11.dtd" >
<svg>
<metadata>
Created by FontForge 20090622 at Tue Sep  1 08:39:22 2015
 By deploy user
</metadata>
<defs>
<font id="Palatino-Roman" horiz-adv-x="250" >
  <font-face 
    font-family="Palatino-Roman"
    font-weight="500"
    font-stretch="normal"
    units-per-em="1000"
    panose-1="0 0 0 0 0 0 0 0 0 0"
    ascent="800"
    descent="-200"
    x-height="459"
    cap-height="692"
    bbox="-166 -283 1021 927"
    underline-thickness="50"
    underline-position="-55"
    unicode-range="U+0020-U+F002"
  />
<missing-glyph 
 />
    <glyph glyph-name=".notdef" 
 />
    <glyph glyph-name="glyph1" horiz-adv-x="0" 
 />
    <glyph glyph-name="glyph2" 
 />
    <glyph glyph-name="space" unicode=" " 
 />
    <glyph glyph-name="space" unicode="&#xa0;" 
 />
    <glyph glyph-name="exclam" unicode="!" horiz-adv-x="278" 
d="M138 -5q-23 0 -40 17.5t-17 39.5q0 23 17.5 40.5t39.5 17.5q23 0 41 -17.5t18 -40.5q0 -22 -17.5 -39.5t-41.5 -17.5v0zM160 694h34v-25q0 -19 -1.5 -37t-2.5 -35q-1 -6 -1.5 -12t-1.5 -12q-1 -12 -2.5 -24t-2.5 -24l-24 -277v-25l-28 -23l-10 5v19.5t-2 19.5l-26 306
q-1 12 -2 25.5l-2 26.5t-1.5 26.5t-1.5 26.5l75 39v0z" />
    <glyph glyph-name="quotedbl" unicode="&#x22;" horiz-adv-x="371" 
d="M105 469h-20l-33 196v0.5v1.5v0.5v1.5v1.5v1.5q2 13 14.5 24.5t28.5 11.5q17 0 30.5 -12.5t12.5 -27.5v-0.5v-1.5v-1.5v-0.5l-33 -195v0zM286 469h-20l-33 196v0.5v1.5v0.5v1.5v1.5v1.5q2 13 14.5 24.5t28.5 11.5q17 0 30.5 -12.5t12.5 -27.5v-0.5v-1.5v-1.5v-0.5
l-33 -195v0z" />
    <glyph glyph-name="numbersign" unicode="#" horiz-adv-x="500" 
d="M470 280v-56h-109l-31 -224h-58l31 224h-134l-33 -224h-58l33 224h-107v56h116l21 139h-110v56h118l31 209h58l-31 -209h133l30 209h58l-30 -209h97v-56h-105l-20 -139h100v0zM332 419h-133l-21 -139h134l20 139v0z" />
    <glyph glyph-name="dollar" unicode="$" horiz-adv-x="500" 
d="M223 18v279q-82 8 -137.5 36t-55.5 124q0 89 53.5 143t139.5 65q0 10 -0.5 18.5t-1.5 16.5t-1.5 15.5t-0.5 14.5l45 1q0 -5 -0.5 -8.5t-0.5 -7.5q-1 -11 -1.5 -22t-1.5 -25l23 -2t23 -3q31 -4 61.5 -12.5t58.5 -25.5q-7 -27 -10 -59t-3 -67l-32 1v42q0 8 -0.5 17t-2.5 18
q-4 18 -25.5 29.5t-46.5 18.5q-12 3 -24 4.5t-22 2.5v-259q83 -9 147 -37t64 -129t-65 -156t-146 -67q0 -7 0.5 -14t0.5 -14q0 -6 0.5 -12t0.5 -12q1 -13 1.5 -25t0.5 -23h-45q2 18 2.5 44t1.5 54q-30 0 -75 7.5t-93 23.5q-6 3 -12.5 5t-12.5 5q3 20 5.5 41t3.5 43
q1 16 1.5 32.5t1.5 31.5l32 1v-64v-5v-4q0 -5 0.5 -10t2.5 -8q10 -19 38 -34t60 -23q13 -3 25 -4.5t23 -2.5v1zM260 292v-274q53 5 92.5 48t39.5 104q0 65 -37 89.5t-95 31.5v1zM223 379v251q-59 -5 -88.5 -43.5t-29.5 -94.5q0 -58 31.5 -83.5t86.5 -30.5v1z" />
    <glyph glyph-name="percent" unicode="%" horiz-adv-x="840" 
d="M250 -20h-40l366 729h40l-366 -729v0zM649 321q65 -1 109 -44t44 -109q0 -71 -44.5 -119.5t-118.5 -48.5q-65 0 -109 42.5t-44 108.5q0 71 45 120t118 49v1zM646 298q-38 -1 -57.5 -29.5t-25.5 -62.5q-3 -12 -4 -24t-1 -23q0 -10 0.5 -22t2.5 -24q5 -34 23 -62.5
t57 -28.5q38 0 57.5 28.5t26.5 62.5q3 12 4 24t1 23q0 10 -1 22l-2 24q-6 34 -24 62.5t-57 28.5v1zM202 689q65 -1 109 -44t44 -109q0 -71 -44.5 -120t-118.5 -49q-65 0 -109 43t-44 109q0 71 45 120t118 49v1zM199 666q-38 -1 -57.5 -29.5t-25.5 -62.5q-3 -12 -4 -24
t-1 -23q0 -10 0.5 -22t2.5 -24q5 -34 23 -62.5t57 -28.5q38 0 57.5 28.5t26.5 62.5q3 12 4 24t1 23q0 10 -1 22l-2 24q-6 34 -24 62.5t-57 28.5v1z" />
    <glyph glyph-name="ampersand" unicode="&#x26;" horiz-adv-x="778" 
d="M548 387l194 7q-4 -14 -6.5 -26t-4.5 -23q0 -6 -0.5 -12t-0.5 -12l-28 4t-28 3q-22 2 -43 3l-41 2q4 -12 4.5 -23.5t0.5 -22.5q0 -49 -24.5 -92t-56.5 -78l42.5 -23.5t42.5 -20.5t42 -14t42 -5q14 0 24.5 3t20.5 7q5 2 9.5 4.5t9.5 4.5l6 -24l-87 -63q-5 -4 -12.5 -5
t-15.5 -1h-3.5h-3.5h-2.5h-2.5q-15 0 -38 7t-47 16q-18 8 -35 17t-31 18q-7 4 -13 9l-11 9q-42 -34 -93 -55t-106 -21q-96 0 -152.5 55t-56.5 137q0 75 46.5 127.5t108.5 86.5q-5 12 -9 24l-8 24q-6 21 -9.5 42t-3.5 40q0 31 5.5 54.5t18.5 34.5l68 61q10 8 25.5 15t43.5 7
q44 0 69.5 -23.5t25.5 -68.5q0 -53 -34.5 -98t-76.5 -78l-16.5 -12l-16.5 -12q43 -70 94.5 -133.5t109.5 -122.5q4 5 7 9.5t7 9.5q16 23 25 45.5t9 43.5v1.5v1.5q0 29 -7 53t-16 28q-10 4 -36 6.5t-55 4.5l33 46q20 -2 40 -2.5t40 -0.5h8.5h8.5v1zM213 352
q-38 -29 -60.5 -62.5t-22.5 -83.5q0 -67 49.5 -119t117.5 -52q6 0 13 0.5t13 1.5q26 5 51.5 17t45.5 27l-111.5 129.5t-95.5 140.5v1zM303 636q-44 -1 -54.5 -28.5t-10.5 -60.5q0 -12 2.5 -27t6.5 -30q2 -10 4.5 -19.5t5.5 -18.5q2 -6 3.5 -11.5t3.5 -10.5q6 4 13 9.5
l14 11.5q16 15 31 34t24 38q5 11 8 21.5t3 20.5q0 4 -0.5 8t-1.5 8q-3 20 -16.5 37t-35.5 17v1z" />
    <glyph glyph-name="quotesingle" unicode="'" horiz-adv-x="208" 
d="M114 469h-20l-33 196v0.5v1.5v0.5v1.5v1.5v1.5q2 13 14.5 24.5t28.5 11.5q17 0 30.5 -12.5t12.5 -27.5v-0.5v-1.5v-1.5v-0.5l-33 -195v0z" />
    <glyph glyph-name="parenleft" unicode="(" horiz-adv-x="333" 
d="M301 -194l-19 -21q-112 95 -167 217.5t-55 263.5q0 135 56 251.5t166 207.5l19 -25q-87 -94 -121 -201.5t-34 -232.5q0 -126 34 -245t121 -215v0z" />
    <glyph glyph-name="parenright" unicode=")" horiz-adv-x="333" 
d="M51 -215l-19 21q87 96 121 215t34 245q0 125 -34 232.5t-121 200.5l19 27q110 -92 166 -208.5t56 -251.5q0 -141 -55 -263.5t-167 -217.5v0z" />
    <glyph glyph-name="asterisk" unicode="*" horiz-adv-x="389" 
d="M168 514l-131 64l-3 10l44 52h10l95 -98l26 143l9 4l62 -19l3 -15l-69 -125l139 24l6 -4v-62l-9 -8l-138 20l68 -122v-10l-68 -26l-10 4l-18 142l-106 -88h-10l-36 51l5 9l131 54v0z" />
    <glyph glyph-name="plus" unicode="+" horiz-adv-x="606" 
d="M275 289v223h56v-223h224v-56h-224v-226h-56v226h-224v56h224v0z" />
    <glyph glyph-name="comma" unicode="," 
d="M204 123l14 -14q-24 -68 -63.5 -128.5t-83.5 -116.5l-41 -19l-14 11q33 54 59 113t31 123l30 8t29 9q10 3 19.5 6.5t19.5 6.5v1z" />
    <glyph glyph-name="hyphen" unicode="-" horiz-adv-x="333" 
d="M282 215h-260l-5 5l27 67h263l5 -5l-30 -67v0z" />
    <glyph glyph-name="period" unicode="." 
d="M124 -5q-23 0 -40 17.5t-17 39.5q0 23 17.5 40.5t39.5 17.5q23 0 41 -17.5t18 -40.5q0 -22 -17.5 -39.5t-41.5 -17.5v0z" />
    <glyph glyph-name="slash" unicode="/" horiz-adv-x="606" 
d="M519 726l-372 -845h-60l372 845h60v0z" />
    <glyph glyph-name="zero" unicode="0" horiz-adv-x="500" 
d="M238 -20q-103 4 -156 82.5t-53 256.5q0 22 1 44.5t3 45.5q9 104 57 191.5t176 87.5q108 0 153.5 -86.5t45.5 -225.5q0 -31 -1.5 -65.5t-5.5 -69.5q-13 -98 -59.5 -179.5t-160.5 -81.5v0zM248 654q-1 -1 -2 -1h-1h-2h-2q-88 0 -108 -95.5t-20 -210.5q0 -145 27.5 -239
t110.5 -94t106 86.5t24 189.5v11.5v10.5q0 143 -24.5 242t-108.5 99v1z" />
    <glyph glyph-name="one" unicode="1" horiz-adv-x="500" 
d="M67 555l-7 43q3 0 6.5 1t6.5 2q57 21 113 44.5t101 47.5l14 -4v-593q0 -18 2.5 -32t10.5 -21q10 -8 23 -10.5t29 -3.5l52 -2v-30q-19 0 -35 0.5t-30 0.5q-29 1 -51 1.5t-43 0.5t-43.5 -0.5t-51.5 -1.5q-15 0 -31.5 -0.5t-36.5 -0.5v30l56 3q16 0 29 2.5t23 10.5
q8 7 10.5 21t2.5 31v486v2.5v3.5q0 9 -1.5 17.5t-6.5 8.5h-0.5h-0.5q-1 -1 -1.5 -1h-0.5l-129 -57h-10v0z" />
    <glyph glyph-name="two" unicode="2" horiz-adv-x="500" 
d="M16 23l170 181q96 101 125.5 160.5t29.5 105.5q0 61 -35.5 101t-98.5 40q-50 0 -81 -16.5t-45 -66.5l-13 -45h-29q3 16 5 33l4 34q0 3 0.5 6.5t0.5 7.5q2 13 3.5 27t3.5 27q33 38 77 54t93 16q110 0 157.5 -56.5t47.5 -130.5q0 -27 -6 -51t-17 -47q-16 -31 -41.5 -63
t-62.5 -71l-182 -192q43 -1 86.5 0t86.5 3q22 0 43.5 1l43.5 2q21 1 42.5 1.5t43.5 1.5q-1 -12 -1.5 -23.5t-0.5 -22.5v-11.5t1 -10.5q0 -5 0.5 -10.5t0.5 -10.5q-19 0 -38.5 0.5t-38.5 0.5q-19 1 -38 1h-37q-19 1 -38 1h-38q-38 0 -75.5 -0.5t-74.5 -1.5q-18 0 -36.5 -0.5
t-37.5 -0.5v26v0z" />
    <glyph glyph-name="three" unicode="3" horiz-adv-x="500" 
d="M43 498l29 124q32 35 73 50.5t89 15.5q84 0 134 -41t50 -111q0 -47 -32.5 -88.5t-77.5 -74.5q74 -10 114 -47t40 -107q0 -92 -88.5 -165.5t-195.5 -73.5q-14 0 -33 2.5t-39 7.5q-15 3 -29.5 7t-26.5 8q-3 32 -12 69.5t-23 77.5l27 11q22 -71 63.5 -107t116.5 -36
q70 0 108.5 50.5t38.5 116.5t-32.5 106t-100.5 40q-22 0 -39.5 -5.5t-32.5 -12.5q-3 -1 -5.5 -2t-4.5 -2l-7 7l12 53q4 -1 7.5 -1.5t7.5 -0.5q2 0 3.5 -0.5t3.5 -0.5q5 0 10.5 -0.5t11.5 -0.5q59 0 94 40t39 87v5.5v5.5q0 50 -35.5 83t-85.5 33q-6 0 -12.5 -0.5t-13.5 -2.5
q-31 -6 -58 -23t-37 -37q0 -1 -1 -2.5t-1 -2.5l-18 -55h-31v0z" />
    <glyph glyph-name="four" unicode="4" horiz-adv-x="500" 
d="M280 181h-267l-11 23l283 463l74 27l12 -5q-4 -24 -5.5 -108t-1.5 -198v-138q4 -1 7.5 -1h7.5h6.5h7.5h20t20 1q9 0 19 0.5t20 1.5v-70q-23 2 -51 2.5t-57 0.5v-74q0 -52 14.5 -63.5t45.5 -13.5l48 -2v-30q-13 0 -26.5 0.5t-26.5 0.5q-6 0 -12.5 0.5t-13.5 0.5
q-20 0 -39.5 0.5t-39.5 0.5q-26 0 -52.5 -0.5t-52.5 -1.5q-13 0 -25.5 -0.5t-25.5 -0.5v30l62 3q32 1 46 12.5t14 62.5v76v0zM280 245v349h-2l-213 -349h215v0z" />
    <glyph glyph-name="five" unicode="5" horiz-adv-x="500" 
d="M127 605l-9 -209q31 19 67 34t73 15q87 0 144 -51.5t57 -142.5q0 -114 -88 -190.5t-194 -80.5h-5h-4q-10 0 -23 1.5t-27 3.5q-16 3 -31 8t-25 10q-5 17 -11 33.5l-12 33.5l-12.5 33t-13.5 33l24 15l46 -82q9 -16 28.5 -25.5t40.5 -14.5q13 -2 26 -3.5t23 -1.5
q86 0 129.5 48.5t43.5 126.5q0 80 -41 128.5t-115 48.5q-33 0 -56 -10t-44 -29q-6 -5 -11.5 -10.5l-11.5 -11.5l-20 7q2 19 4 79.5t2 129.5v14.5v15.5v65.5t-2 56.5l5 6q15 -2 29 -2.5t29 -1.5q29 -1 58 -1.5t58 -0.5q30 0 58.5 0.5t57.5 1.5q15 1 29.5 1.5t28.5 1.5l5 -4
q-1 -6 -1.5 -11t-0.5 -10v-10v-10q0 -10 0.5 -19.5t1.5 -19.5l-5 -4q-70 -1 -136 0t-132 3q-9 0 -18.5 0.5t-18.5 0.5v1z" />
    <glyph glyph-name="six" unicode="6" horiz-adv-x="500" 
d="M242 -20q-115 0 -162.5 82.5t-47.5 182.5q0 167 98 285t249 158l37 -16v-8q-130 -38 -200.5 -118t-84.5 -216q14 10 26 20t24 19q24 17 49.5 28t61.5 11q84 0 130 -53.5t46 -137.5q0 -103 -65.5 -170t-160.5 -67v0zM251 349l-14.5 -2t-15.5 -3q-28 -6 -53.5 -23.5
t-36.5 -43.5q-4 -10 -5.5 -20.5t-2.5 -21.5v-10.5v-11.5v-2.5v-3.5q0 -12 1 -25l2 -26q8 -54 36.5 -99t91.5 -45q62 0 91.5 45t35.5 99q0 7 0.5 14t0.5 14q0 62 -30 113t-101 51v1z" />
    <glyph glyph-name="seven" unicode="7" horiz-adv-x="500" 
d="M56 10l244 392l27.5 45l27.5 48l26.5 51.5l27.5 55.5l-267 1q-35 -1 -45 -13t-16 -54v-2v-2l-7 -55h-30q0 8 0.5 16.5t0.5 16.5q1 18 1.5 35.5t0.5 34.5t-0.5 34t-1.5 34q0 9 -0.5 17.5t-0.5 17.5l10 6q55 -3 110.5 -4.5t110.5 -1.5q56 0 111.5 1.5t110.5 3.5v-29
l-183 -329l-23 -43l-22 -42q-33 -64 -61 -126.5t-51 -121.5q-4 0 -7.5 0.5t-7.5 0.5q-2 0 -4 0.5t-4 0.5q-6 0 -11.5 0.5t-11.5 0.5t-11.5 -0.5t-11.5 -0.5q-2 0 -4 -0.5t-4 -0.5q-4 0 -7.5 -0.5t-7.5 -0.5l-9 13v0z" />
    <glyph glyph-name="eight" unicode="8" horiz-adv-x="500" 
d="M259 689q68 -1 122.5 -36t54.5 -111q0 -49 -32 -85t-70 -63q-5 -3 -10.5 -7t-10.5 -7q61 -27 106 -64t45 -111q0 -95 -71.5 -160t-164.5 -65q-82 0 -140 47.5t-58 133.5q0 65 40.5 113t97.5 70q-52 32 -83.5 68t-31.5 91q0 89 61.5 137t144.5 48v1zM284 295l-80 36
q-54 -31 -78.5 -72t-24.5 -97q0 -69 39.5 -109t106.5 -40q59 0 97.5 45t40.5 99v3.5v2.5q0 40 -21 67.5t-47 44.5q-8 6 -16.5 11t-16.5 8v1zM223 423l55 -27q38 22 64 55.5t26 79.5q0 54 -31.5 88.5t-87.5 34.5q-55 0 -88 -29.5t-33 -85.5q0 -38 26 -65.5t57 -45.5
q3 -1 6 -2.5t6 -3.5v1z" />
    <glyph glyph-name="nine" unicode="9" horiz-adv-x="500" 
d="M96 -20l-34 17v8q126 28 210 116t88 218l-70 -57q-9 -8 -21.5 -13t-25.5 -9q-10 -2 -20 -3.5t-18 -1.5q-89 0 -137 59t-48 142q0 97 63 164.5t162 67.5q100 0 156 -73.5t56 -194.5q0 -151 -85 -270.5t-276 -169.5v0zM242 317q60 -1 94 44.5t34 103.5q0 12 -1 25.5
t-3 26.5q-8 52 -36.5 95t-86.5 43h-0.5h-1.5q-77 -1 -105.5 -52.5t-29.5 -113.5v-1.5v-1.5v-8t1 -8q3 -58 36 -106t99 -48v1z" />
    <glyph glyph-name="colon" unicode=":" 
d="M123 -5q-23 0 -40 17.5t-17 39.5q0 23 17.5 40.5t39.5 17.5q23 0 41 -17.5t18 -40.5q0 -22 -17.5 -39.5t-41.5 -17.5v0zM123 340q-23 -1 -40 17t-17 40q0 23 17.5 40.5t39.5 17.5q23 0 41 -17.5t18 -40.5q0 -22 -17.5 -40t-41.5 -18v1z" />
    <glyph glyph-name="semicolon" unicode=";" 
d="M204 125l14 -14q-24 -68 -63.5 -128.5t-83.5 -116.5l-41 -19l-14 11q33 54 59 113t31 123l30 8t29 9q10 3 19.5 6.5t19.5 6.5v1zM150 340q-23 -1 -40 17t-17 40q0 23 17.5 40.5t39.5 17.5q23 0 41 -17.5t18 -40.5q0 -22 -17.5 -40t-41.5 -18v1z" />
    <glyph glyph-name="less" unicode="&#x3c;" horiz-adv-x="606" 
d="M558 60v-60l-501 234v54l501 234v-60l-432 -203l432 -199v0z" />
    <glyph glyph-name="equal" unicode="=" horiz-adv-x="606" 
d="M555 192v-56h-504v56h504v0zM555 386v-56h-504v56h504v0z" />
    <glyph glyph-name="greater" unicode="&#x3e;" horiz-adv-x="606" 
d="M48 60l432 199l-432 203v60l501 -234v-54l-501 -234v60v0z" />
    <glyph glyph-name="question" unicode="?" horiz-adv-x="444" 
d="M198 -5q-23 0 -40 17.5t-17 39.5q0 23 17.5 40.5t39.5 17.5q23 0 41 -17.5t18 -40.5q0 -22 -17.5 -39.5t-41.5 -17.5v0zM43 546l38 113q22 10 47.5 19.5t51.5 12.5q7 1 13.5 1.5t12.5 0.5q74 0 131.5 -39.5t57.5 -116.5q0 -50 -32 -89.5t-70 -74.5l-44.5 -40t-36.5 -38
q-10 -13 -15.5 -26t-5.5 -26q0 -14 5.5 -24.5t12.5 -19.5q1 -1 2 -2.5t2 -2.5l-21 -13q-19 10 -31.5 30t-12.5 42q0 27 16 52.5t38 50.5l10 10.5l10 11.5l1.5 1.5l1.5 1.5q29 32 53 65.5t24 70.5q0 47 -33.5 78.5t-85.5 31.5q-32 0 -56.5 -9.5t-34.5 -32.5l-20 -47l-29 8v0z
" />
    <glyph glyph-name="at" unicode="@" horiz-adv-x="747" 
d="M658 171h61q-46 -87 -132.5 -139t-186.5 -52q-154 0 -265 97t-111 251q0 153 105.5 259t262.5 106q127 0 229.5 -77t102.5 -208q0 -95 -56.5 -168.5t-124.5 -97.5q-13 -4 -26 -6.5t-26 -2.5q-37 0 -55.5 26.5t-20.5 57.5q-5 -7 -10.5 -13.5t-10.5 -11.5q-21 -24 -44 -39
t-57 -15q-58 0 -96 42t-38 103v9.5t1 9.5q8 77 71 141.5t144 64.5q38 0 60 -20.5t28 -55.5l2 1l17 66h88l-77 -279q-1 -5 -2 -9.5t-1 -9.5q-1 -2 -1 -4.5v-4.5q0 -12 5.5 -21t21.5 -9q12 0 26.5 6.5t29.5 17.5q37 29 68 87.5t31 132.5q0 94 -74.5 165.5t-197.5 71.5
q-136 0 -228 -86t-92 -222t94.5 -221t231.5 -85q80 0 145 38.5t108 102.5v1zM309 166q41 -1 70 41t46 92q10 31 15 60t5 48q0 5 -0.5 11t-2.5 12q-4 19 -16 35t-34 16q-42 0 -74 -40.5t-50 -89.5q-10 -28 -15 -53.5t-5 -44.5q0 -6 0.5 -11.5t1.5 -11.5q3 -24 17 -44.5
t42 -20.5v1z" />
    <glyph glyph-name="A" unicode="A" horiz-adv-x="778" 
d="M408 700l242 -568l8 -18.5l8 -18.5t8 -17t8 -15q8 -14 17.5 -23t22.5 -11l34 -2v-30q-11 0 -22 0.5t-22 0.5q-22 1 -44 1.5t-45 0.5q-17 0 -38 -0.5t-44 -1.5q-12 0 -24.5 -0.5t-26.5 -0.5v30l47 3q16 0 28.5 5t12.5 14t-5 23.5t-12 30.5q0 1 -0.5 2t-0.5 2q-1 1 -1.5 3
t-1.5 3l-46 116h-288l-28 -67q-3 -7 -7 -18t-9 -23q-1 -3 -2 -5.5t-2 -5.5q-6 -16 -10.5 -31.5t-4.5 -21.5q0 -16 12.5 -21t35.5 -7l37 -2v-30q-12 0 -23 0.5t-22 0.5q-20 1 -37.5 1.5t-32.5 0.5q-19 0 -38.5 -0.5t-38.5 -1.5q-9 0 -18.5 -0.5t-19.5 -0.5v30l37 3
q18 1 32 15t22 33l178 406l14 31l14 32l18 40t17 40q8 18 15 36l14 36l32 1v0zM240 269h253l-126 298l-127 -298v0z" />
    <glyph glyph-name="B" unicode="B" horiz-adv-x="611" 
d="M113 95v474q0 28 -2 47t-7 27q-4 8 -14 11t-28 4l-36 4v30q3 -1 6 -1h6q11 0 21.5 -0.5t21.5 -0.5q26 -1 49.5 -1.5t39.5 -0.5h6.5h7.5q25 0 51.5 0.5t55.5 1.5q16 0 34 0.5t38 0.5h2h2h2h2q68 0 119.5 -30.5t51.5 -107.5q0 -66 -49.5 -108t-109.5 -54q-2 0 -4 -0.5
t-4 -0.5v-1q77 -3 139 -39t62 -124q0 -16 -2.5 -33.5t-8.5 -34.5q-21 -61 -84 -111.5t-185 -49.5h-7h-6q-9 0 -18.5 0.5t-18.5 0.5q-18 1 -36 1.5t-36 0.5t-36.5 -0.5t-36.5 -1.5q-9 0 -18 -0.5t-18 -0.5v23l26 10q12 4 16.5 19.5t5.5 32.5v6v6v1zM208 362v-315q7 -3 14 -4
l14 -2q14 -2 28.5 -2.5t27.5 -0.5q83 0 132 45.5t49 125.5q0 83 -51 118.5t-147 35.5q-21 0 -37 -0.5t-30 -1.5v1zM208 644v-243q14 -2 31.5 -2.5t39.5 -0.5q65 0 114.5 30.5t49.5 104.5q0 72 -44 95t-107 23q-13 0 -27.5 -0.5t-28.5 -2.5l-14 -2t-14 -3v1z" />
    <glyph glyph-name="C" unicode="C" horiz-adv-x="709" 
d="M670 84l-28 -50q-23 -15 -52.5 -24.5t-59.5 -16.5q-29 -6 -56.5 -9.5t-49.5 -3.5q-180 0 -291 96.5t-111 266.5q0 86 32 154t90 115q56 47 130.5 71.5t158.5 24.5q54 0 104.5 -9t88.5 -20q11 -3 20.5 -6t17.5 -6q-6 -30 -11.5 -63t-6.5 -67q-1 -5 -1 -10.5v-11.5l-31 1
v72q0 20 -25.5 34t-60.5 27q-16 5 -34 9t-37 6q-11 1 -21 1.5t-20 0.5q-141 0 -214 -89.5t-73 -217.5q0 -148 90.5 -237t238.5 -89q14 0 28 1t28 4q42 6 81.5 21t65.5 34l9 -9v0z" />
    <glyph glyph-name="D" unicode="D" horiz-adv-x="774" 
d="M113 95v474q0 28 -2 47t-7 27q-4 8 -14 11t-28 4l-40 4v30q17 -1 33.5 -1.5t32.5 -0.5q13 0 26 -0.5t26 -0.5q20 -1 39.5 -1h39.5q33 0 64.5 0.5t59.5 1.5q14 0 26.5 0.5t23.5 0.5h3.5h3.5h3.5h3.5q149 0 246.5 -81t97.5 -224q0 -123 -62 -220t-153 -135
q-43 -17 -90 -25.5t-107 -8.5h-8h-9q-10 0 -20.5 0.5t-20.5 0.5q-21 1 -43 1.5t-45 0.5h-16.5h-17.5q-14 -1 -28 -1t-28 -1q-11 0 -22.5 -0.5t-23.5 -0.5v23l31 16q13 6 19 22t6 36v1zM208 644v-595q12 -4 29 -5.5t35 -2.5q13 -1 26 -1h24q27 0 57 2t61 10l22.5 8t22.5 9
q83 38 121 113t38 176q0 186 -93.5 239.5t-228.5 53.5h-24t-26 -1q-18 -1 -35 -2.5t-29 -4.5v1z" />
    <glyph glyph-name="E" unicode="E" horiz-adv-x="611" 
d="M121 120v449q0 28 -2 47t-7 27q-4 8 -14 11t-28 4l-48 4v30q14 -1 28 -1.5t28 -0.5q28 -1 56.5 -1.5t56.5 -0.5h16.5h16.5q24 0 48.5 0.5t47.5 1.5q31 0 58.5 0.5t48.5 0.5q34 0 67 -0.5t62 -2.5q-6 -23 -9.5 -49t-4.5 -53q-1 -13 -1.5 -25.5t-0.5 -24.5l-35 1v65
q0 9 -1.5 16.5t-7.5 9.5q-25 10 -57 14t-65 6q-19 1 -37.5 1h-36.5q-13 0 -27.5 -0.5t-28.5 -2.5l-14 -2t-14 -3v-266q24 -2 52 -3t64 -1q46 0 72 3t34 8q4 3 5.5 9.5t2.5 16.5l5 53h30q0 -11 -0.5 -21t-0.5 -20q-1 -20 -1.5 -38.5t-0.5 -37.5v-18.5t1 -18.5v-19t1 -18
q0 -10 0.5 -19t0.5 -18l-30 1l-5 59q-1 9 -2.5 15.5t-5.5 8.5q-8 6 -34 9t-72 3q-36 0 -64.5 -0.5t-51.5 -2.5v-279q7 -3 14 -4l14 -2q14 -2 28.5 -2.5t27.5 -0.5h24h25q52 1 97 4t56 9t20.5 36.5t14.5 75.5l35 1q-5 -24 -8.5 -50.5t-5.5 -53.5q-1 -15 -1.5 -30.5
t-0.5 -29.5q-11 0 -24.5 -0.5t-29.5 -0.5q-26 -1 -55.5 -1.5t-59.5 -0.5h-14h-14h-18.5h-18.5q-10 1 -19.5 1h-18.5h-8.5h-9.5q-33 1 -65 1.5t-60 0.5q-18 0 -34.5 -0.5t-32.5 -1.5h-2.5h-2.5q-8 0 -17 -0.5t-18 -0.5v30l36 3q18 1 28 4t14 10q5 8 7 27.5t2 47.5v1z" />
    <glyph glyph-name="F" unicode="F" horiz-adv-x="556" 
d="M216 327v-207q0 -29 2 -48.5t7 -27.5q5 -7 14.5 -10.5t27.5 -4.5l48 -2v-30l-74.5 2t-70.5 1h-20.5h-21.5q-26 -1 -52 -1.5t-54 -1.5v30l48 3q18 0 28 3.5t14 10.5q5 8 7 27.5t2 47.5v450q0 28 -2 47t-7 27q-4 8 -14 11t-28 4l-48 4v30q14 -1 28 -1.5t28 -0.5
q28 -1 56.5 -1.5t56.5 -0.5q21 0 44.5 0.5t47.5 0.5h10t10 1q29 0 56 0.5t48 0.5q34 0 67 -0.5t62 -2.5q-6 -23 -9.5 -49t-4.5 -53q-1 -13 -1.5 -25.5t-0.5 -24.5l-35 1v65q0 9 -1.5 16.5t-7.5 9.5q-17 6 -37 10t-40 7q-28 3 -54 3.5t-45 0.5q-13 0 -27.5 -0.5t-28.5 -2.5
l-14 -2t-14 -3v-266q24 -2 52 -3t64 -1q46 0 72 3t34 8q4 3 5.5 9.5t2.5 16.5l5 53h30q0 -11 -0.5 -21t-0.5 -20q-1 -20 -1.5 -38.5t-0.5 -37.5v-18.5t1 -18.5v-19t1 -18q0 -10 0.5 -19t0.5 -18l-30 1l-5 59q-1 9 -2.5 15.5t-5.5 8.5q-8 6 -34 9t-72 3q-36 0 -64.5 -0.5
t-51.5 -2.5v1z" />
    <glyph glyph-name="G" unicode="G" horiz-adv-x="763" 
d="M596 98v101q0 16 -7 24.5t-27 9.5l-83 8v30q31 -2 61.5 -2.5t60.5 -0.5q31 0 61.5 0.5t61.5 1.5l4 -24l-29 -10q-8 -4 -9.5 -10t-1.5 -28v-167q-2 -2 -4.5 -2.5t-5.5 -1.5l-43.5 -12t-45.5 -11q-45 -10 -88 -17t-76 -7q-167 0 -285 89t-118 277q0 165 120.5 263.5
t301.5 98.5q61 0 107 -7.5t81 -16.5l33 -9.5t27 -7.5q-8 -30 -13 -63t-7 -67v-10.5v-11.5l-31 1v53q0 33 -22.5 49t-56.5 28q-1 1 -2 1.5t-2 0.5q-24 8 -57.5 13t-82.5 5q-142 0 -215.5 -84.5t-73.5 -218.5q0 -149 84 -245.5t238 -96.5q58 0 97 11t43 24q1 2 1.5 3.5
t0.5 3.5q2 6 2.5 13t0.5 21v1z" />
    <glyph glyph-name="H" unicode="H" horiz-adv-x="832" 
d="M711 569v-449q0 -29 2 -48.5t7 -27.5q5 -7 14.5 -10.5t27.5 -4.5l48 -2v-30l-74.5 2t-70.5 1h-20.5h-21.5q-26 -1 -52 -1.5t-54 -1.5v30l48 3q18 0 28 3.5t14 10.5q5 8 7 27.5t2 47.5v224q-9 0 -29.5 0.5t-53.5 0.5l-234 1q-33 -1 -53.5 -1.5t-29.5 -1.5v-222
q0 -29 2 -48.5t7 -27.5q5 -7 14.5 -10.5t27.5 -4.5l48 -2v-30l-74.5 2t-70.5 1h-20.5h-21.5q-26 -1 -52 -1.5t-54 -1.5v30l48 3q18 0 28 3.5t14 10.5q5 8 7 27.5t2 47.5v450q0 28 -2 47t-7 27q-4 8 -14 11t-28 4l-48 4v30q28 -2 54 -2.5t52 -1.5h21.5h20.5q35 0 70.5 1
l74.5 2v-29l-48 -3q-18 -2 -27.5 -5t-14.5 -11t-7 -27t-2 -48v-177q9 -2 29.5 -2.5t53.5 -0.5l234 1q33 -1 53.5 -0.5t29.5 1.5v179q0 28 -2 47t-7 27q-4 8 -14 11t-28 4l-48 4v30q28 -2 54 -2.5t52 -1.5h21.5h20.5q35 0 70.5 1l74.5 2v-29l-48 -3q-18 -2 -27.5 -5
t-14.5 -11t-7 -27t-2 -48v1z" />
    <glyph glyph-name="I" unicode="I" horiz-adv-x="337" 
d="M216 569v-449q0 -29 2 -48.5t7 -27.5q5 -7 14.5 -10.5t27.5 -4.5l48 -2v-30l-74.5 2t-70.5 1h-20.5h-21.5q-26 -1 -52 -1.5t-54 -1.5v30l48 3q18 0 28 3.5t14 10.5q5 8 7 27.5t2 47.5v450q0 28 -2 47t-7 27q-4 8 -14 11t-28 4l-48 4v30q28 -2 54 -2.5t52 -1.5h21.5h20.5
q35 0 70.5 1l74.5 2v-29l-48 -3q-18 -2 -27.5 -5t-14.5 -11t-7 -27t-2 -48v1z" />
    <glyph glyph-name="J" unicode="J" horiz-adv-x="333" 
d="M212 569v-452v-7.5v-6.5q0 -42 -5.5 -92t-39.5 -102q-4 -5 -8 -11t-9 -12q-26 -32 -62.5 -56t-80.5 -24q-5 0 -9 0.5t-7 1.5l-6 76l11 6q8 -5 15 -8.5t15 -5.5q9 -3 19 -4t21 -1q15 0 26 8t17 25q2 8 4 21.5t3 28.5q0 7 0.5 14.5t0.5 14.5v586q0 28 -2 47t-7 27
q-4 8 -14 11t-28 4l-48 4v30q28 -2 54 -2.5t52 -1.5h21.5h20.5q35 0 70.5 1l74.5 2v-29l-48 -3q-18 -2 -27.5 -5t-14.5 -11t-7 -27t-2 -48v1z" />
    <glyph glyph-name="K" unicode="K" horiz-adv-x="726" 
d="M216 325v-205q0 -29 2 -48.5t7 -27.5q5 -7 14.5 -10.5t27.5 -4.5l48 -2v-30l-74.5 2t-70.5 1h-20.5h-21.5q-26 -1 -52 -1.5t-54 -1.5v30l48 3q18 0 28 3.5t14 10.5q5 8 7 27.5t2 47.5v450q0 28 -2 47t-7 27q-4 8 -14 11t-28 4l-48 4v30q28 -2 54 -2.5t52 -1.5h21.5h20.5
q35 0 70.5 1l74.5 2v-29l-48 -3q-18 -2 -27.5 -5t-14.5 -11t-7 -27t-2 -48v-213l278 271q2 1 4 3t3 4q9 9 15.5 18t6.5 13v28q8 -1 15.5 -1.5t15.5 -0.5q10 -1 20.5 -1.5t20.5 -0.5h8.5h8.5q14 0 28 0.5t27 1.5q6 0 12.5 0.5t12.5 0.5v-29l-42 -2q-6 -1 -13 -2.5t-13 -3.5
q-13 -5 -26 -13t-26 -20l-266 -239l330 -312q19 -18 34 -29t28 -13l21 -1v-30q-5 0 -10 0.5t-10 0.5q-9 1 -17.5 1.5t-16.5 0.5h-6h-6q-12 0 -24.5 -0.5t-25.5 -1.5q-7 0 -14 -0.5t-15 -0.5l-348 335l-10 -7v0z" />
    <glyph glyph-name="L" unicode="L" horiz-adv-x="611" 
d="M216 569v-522q7 -3 14 -4l14 -2q14 -2 28.5 -2.5t27.5 -0.5h36t38 1q50 1 94 5t53 13q5 4 8.5 15.5t6.5 23.5q2 7 3.5 13.5t2.5 11.5l12 51h32l-4 -36.5l-4 -36.5l-6 -52.5t-7 -46.5q-11 0 -24.5 -0.5t-29.5 -0.5q-26 -1 -55.5 -1.5t-59.5 -0.5h-14h-14q-22 0 -43 0.5
t-40 0.5q-38 1 -71 1.5t-64 0.5q-17 0 -31.5 -0.5t-27.5 -1.5h-9.5t-8.5 -1h-4h-4v23l31 16q13 6 19 22t6 36v475q0 28 -2 47t-7 27q-4 8 -14 11t-28 4l-48 4v30q28 -2 54 -2.5t52 -1.5h21.5h20.5q35 0 70.5 1l74.5 2v-29l-48 -3q-18 -2 -27.5 -5t-14.5 -11t-7 -27t-2 -48v1
z" />
    <glyph glyph-name="M" unicode="M" horiz-adv-x="946" 
d="M827 569v-449q0 -29 2 -48.5t7 -27.5q5 -7 14.5 -10.5t27.5 -4.5l48 -2v-30l-74.5 2t-70.5 1q-37 0 -71 -1t-63 -2v30l34 3q18 1 28 4t14 10q5 8 7 27.5t2 47.5v455h-2q-6 -11 -11 -21.5t-11 -20.5l-10 -20.5l-10 -20.5l-178 -377q-9 -19 -17 -38.5l-16 -38.5
q-1 -2 -1.5 -4t-1.5 -5q-5 -10 -9 -20t-9 -21h-20l-277 587h-2v-454q0 -29 2 -48.5t7 -27.5q5 -7 14.5 -10t27.5 -5l44 -2v-30q-11 0 -21.5 0.5t-20.5 0.5q-10 1 -19.5 1h-19.5q-10 1 -19.5 1h-19.5q-18 0 -37 -0.5t-39 -1.5q-10 0 -20 -0.5t-20 -0.5v30l44 3q18 1 28 4
t14 10q5 8 7 27.5t2 47.5v450q0 28 -2 47t-7 27q-4 8 -14 11t-28 4l-44 4v30q8 -1 15.5 -1.5t15.5 -0.5q16 -1 32 -1.5t32 -0.5t32 0.5t32 1.5q8 0 15.5 0.5t15.5 0.5l264 -555l262 556q8 -1 16 -1.5t16 -0.5q4 0 8 -0.5t8 -0.5q11 0 23 -0.5t24 -0.5q16 0 32 0.5t31 1.5
q8 0 15.5 0.5t14.5 0.5v-29l-42 -3q-18 -2 -27.5 -5t-14.5 -11t-7 -27t-2 -48v1z" />
    <glyph glyph-name="N" unicode="N" horiz-adv-x="831" 
d="M112 120v449q0 28 -2 47t-7 27q-4 8 -14 11t-28 4l-44 4v30q11 -1 21.5 -1.5t21.5 -0.5q20 -1 39.5 -1.5t37.5 -0.5q9 0 18 0.5t18 1.5q5 0 9.5 0.5t8.5 0.5l478 -589h3v467q0 28 -2 47t-7 27q-4 8 -14 11t-28 4l-44 4v30q10 -1 20 -1.5t20 -0.5q20 -1 39 -1.5t37 -0.5
h19.5t19.5 1h19.5t19.5 1q10 0 20.5 0.5t21.5 0.5v-29l-44 -3q-18 -2 -27.5 -5t-14.5 -11t-7 -27t-2 -48v-551q0 -5 0.5 -10t0.5 -9q0 -1 0.5 -2.5t0.5 -3.5q0 -3 0.5 -6t0.5 -6l-90 16l-471 585h-2v-461q0 -29 2 -48.5t7 -27.5q5 -7 14.5 -10t27.5 -5l44 -2v-30
q-11 0 -21.5 0.5t-20.5 0.5q-10 1 -19.5 1h-19.5q-10 1 -19.5 1h-19.5q-18 0 -37 -0.5t-39 -1.5q-10 0 -20 -0.5t-20 -0.5v30l44 3q18 1 28 4t14 10q5 8 7 27.5t2 47.5v1z" />
    <glyph glyph-name="O" unicode="O" horiz-adv-x="786" 
d="M377 -20q-152 0 -253.5 97.5t-101.5 265.5q0 155 101 260t275 105q161 0 263.5 -87.5t102.5 -254.5q0 -161 -111.5 -273.5t-275.5 -112.5v0zM382 667q-130 -1 -191.5 -82.5t-61.5 -204.5v-12t1 -13q5 -125 71 -229.5t208 -104.5q125 0 186.5 88t61.5 226q0 149 -67.5 240
t-207.5 91v1z" />
    <glyph glyph-name="P" unicode="P" horiz-adv-x="604" 
d="M216 642v-522q0 -29 2 -48.5t7 -27.5q5 -7 14.5 -10.5t27.5 -4.5l48 -2v-30l-74.5 2t-70.5 1h-20.5h-21.5q-26 -1 -52 -1.5t-54 -1.5v30l48 3q18 0 28 3.5t14 10.5q5 8 7 27.5t2 47.5v450q0 25 -2.5 45t-7.5 27q-5 8 -14.5 12t-28.5 5l-45 4v30q17 -1 32.5 -1.5
t30.5 -0.5q31 -1 60 -1.5t57 -0.5q29 0 58 0.5t57 1.5q14 0 28 0.5t27 0.5h2h2h1h2h10t11 -1q67 -4 123 -39.5t56 -112.5q0 -94 -70.5 -154.5t-169.5 -60.5q-15 0 -30 1.5t-30 4.5l-10 37q17 -6 33.5 -8.5t32.5 -2.5q61 0 102.5 42.5t41.5 106.5q0 78 -44 113.5t-118 35.5
q-34 0 -57.5 -3.5t-44.5 -8.5v1z" />
    <glyph glyph-name="Q" unicode="Q" horiz-adv-x="786" 
d="M398 709q161 -1 263.5 -88.5t102.5 -254.5q0 -155 -105 -267t-251 -117v-2q31 -3 59 -13.5t55 -22.5q1 0 2.5 -0.5t2.5 -1.5q8 -3 15 -6l14 -6q37 -15 70.5 -24t66.5 -11h8h8q14 0 27.5 1.5t27.5 4.5v-21l-84 -56q-24 4 -49 10t-57 16l-148 46q-25 7 -44 11t-36 4
q-8 0 -14.5 -2.5t-11.5 -5.5l-59 -32l2 32q36 28 65.5 47.5t43.5 24.5l11 4v2h-6q-158 0 -256.5 97t-98.5 269q0 153 101 257t275 104v1zM382 667q-130 -1 -191.5 -82.5t-61.5 -204.5v-11v-11q5 -126 71.5 -231t208.5 -105q131 0 189.5 87.5t58.5 225.5q0 149 -67.5 240
t-207.5 91v1z" />
    <glyph glyph-name="R" unicode="R" horiz-adv-x="668" 
d="M216 642v-522q0 -29 2 -48.5t7 -27.5q5 -7 14.5 -10.5t27.5 -4.5l48 -2v-30l-74.5 2t-70.5 1h-20.5h-21.5q-26 -1 -52 -1.5t-54 -1.5v30l48 3q18 0 28 3.5t14 10.5q5 8 7 27.5t2 47.5v450q0 28 -2 47t-7 27q-4 8 -14 11t-28 4l-41 4v30q13 -1 27 -1.5t28 -0.5
q27 -1 56.5 -1.5t58.5 -0.5q30 0 59 0.5t58 1.5q14 0 29 0.5t29 0.5h4.5h4.5q104 0 145 -40.5t47 -89.5q0 -5 0.5 -10t0.5 -10q0 -81 -60 -129.5t-132 -62.5q-1 -1 -1.5 -1h-1.5l227 -295q11 -16 27 -20.5t34 -6.5v-29q-6 0 -12.5 0.5t-12.5 0.5q-12 1 -23.5 1.5t-23.5 0.5
q-9 0 -17.5 -0.5t-16.5 -0.5q-3 0 -5.5 -0.5t-5.5 -0.5q-6 0 -11.5 -0.5t-11.5 -0.5q-5 6 -10 13t-10 13q-2 3 -4 5t-3 4l-7.5 9.5l-6.5 8.5l-184 248q-7 9 -15 18l-16 18q-5 7 -10.5 13l-10.5 12l6 13q7 -2 14 -2h14q10 0 20 0.5t20 1.5q5 1 10 1.5t10 1.5q53 9 91.5 47
t38.5 93q0 79 -47.5 108t-104.5 30h-3.5h-2.5q-34 0 -57.5 -3.5t-44.5 -8.5v1z" />
    <glyph glyph-name="S" unicode="S" horiz-adv-x="525" 
d="M447 526h-32l-6 57q-1 10 -3.5 18.5t-8.5 15.5q-5 6 -12.5 12t-19.5 13q-17 11 -40.5 16.5t-47.5 6.5q-5 1 -10.5 1h-10.5t-10 -0.5t-10 -0.5q-48 -6 -88 -42t-40 -103q0 -51 35.5 -82t129.5 -42q106 -11 168 -44.5t62 -119.5q0 -125 -91 -187t-200 -65h-5h-6
q-41 0 -79.5 8.5t-65.5 17.5l-14.5 5.5t-11.5 5.5q2 10 3 20t2 19l2 40t0 38v18v18l32 1l8 -67q4 -32 54 -56.5t109 -24.5q68 0 123.5 40t55.5 114q0 71 -49.5 98t-126.5 36q-118 14 -168.5 53.5t-50.5 117.5q0 104 68 158.5t150 65.5q9 1 19 1.5t19 0.5q43 0 78.5 -8.5
t63.5 -18.5q11 -4 20.5 -8t18.5 -7q-5 -25 -8 -48.5t-5 -46.5q0 -11 -0.5 -22.5t-0.5 -23.5v1z" />
    <glyph glyph-name="T" unicode="T" horiz-adv-x="613" 
d="M259 120v423q0 28 -1 52.5t-3 46.5l-155 1q-22 -1 -30 -8.5t-10 -25.5l-4 -78h-31v19v21q-1 30 -2.5 60.5t-4.5 59.5q27 0 54 -0.5t54 -0.5q27 -1 54 -1.5t54 -0.5l145 1q27 -1 54 -0.5t54 1.5q27 0 54 0.5t54 0.5q-3 -29 -4.5 -59.5t-2.5 -60.5v-21v-20l-31 1l-4 79
q-1 17 -9 24.5t-31 7.5l-155 1q-2 -23 -3 -47.5t-1 -53.5v-422q0 -29 2 -48.5t7 -27.5q5 -7 14.5 -10.5t27.5 -4.5l48 -2v-30l-74.5 2t-70.5 1h-20.5h-21.5q-26 -1 -52 -1.5t-54 -1.5v30l48 3q18 0 28 3.5t14 10.5q5 8 7 27.5t2 47.5v1z" />
    <glyph glyph-name="U" unicode="U" horiz-adv-x="778" 
d="M111 214v355q0 28 -2 47t-7 27q-4 8 -14 11t-28 4l-48 4v30q28 -2 54 -2.5t52 -1.5h21.5h20.5q35 0 70.5 1l74.5 2v-29l-48 -3q-18 -2 -27.5 -5t-14.5 -11t-7 -27t-2 -48v-343q0 -107 53.5 -145.5t152.5 -38.5q81 0 143.5 41.5t62.5 165.5v321q0 28 -2 47t-7 27
q-4 8 -14 11t-28 4l-44 4v30q10 -1 20 -1.5t20 -0.5q20 -1 39 -1.5t37 -0.5h19.5t19.5 1h19.5t19.5 1q10 0 20.5 0.5t21.5 0.5v-29l-44 -3q-18 -2 -27.5 -5t-14.5 -11t-7 -27t-2 -48v-288q0 -161 -65.5 -230.5t-217.5 -69.5q-127 0 -198.5 48t-71.5 185v1z" />
    <glyph glyph-name="V" unicode="V" horiz-adv-x="722" 
d="M188 628l197 -507l183 473q5 11 7 19.5t2 15.5q-1 17 -11 22.5t-24 6.5l-52 4v30q9 -1 18 -1.5t18 -0.5q18 -1 36 -1.5t36 -0.5q19 0 36.5 0.5t35.5 1.5q9 0 18 0.5t18 0.5v-29l-30 -3q-8 -2 -15 -7t-14 -15q-6 -9 -12 -21.5t-13 -29.5l-174 -420q-18 -44 -34 -87
t-30 -88h-50q-9 32 -20 64t-23 62l-7.5 19.5t-7.5 18.5l-188 463q-10 23 -20.5 31t-23.5 9l-36 4v30q11 -1 22 -1.5t22 -0.5q22 -1 44.5 -1.5t44.5 -0.5q23 0 45 0.5t44 1.5q11 0 22 0.5t22 0.5v-29l-56 -3q-1 -1 -1.5 -1h-1.5q-11 -1 -20.5 -5.5t-8.5 -15.5q0 -2 0.5 -4.5
t1.5 -5.5v1z" />
    <glyph glyph-name="W" unicode="W" horiz-adv-x="1000" 
d="M613 197l-125 339l-174 -442q-10 -26 -19 -52l-17 -51h-50q-3 16 -6.5 31t-6.5 30q-3 10 -5.5 20.5t-4.5 20.5l-119 516q-7 31 -20.5 39.5t-29.5 9.5l-28 4v30q11 -1 21 -1.5t21 -0.5q21 -1 42 -1.5t42 -0.5q22 0 42.5 0.5t41.5 1.5q11 0 21.5 0.5t20.5 0.5v-29l-42 -3
q-16 -2 -26.5 -7.5t-10.5 -28.5q0 -7 1 -14.5t3 -16.5l99 -445h2l123 312q4 9 8 19l8 20l38 99.5t36 101.5l32 1q3 -16 8 -32t11 -32l4 -12.5l4 -12.5l7.5 -19.5t6.5 -18.5l155 -433h2l131 486q1 2 1 4.5v4.5q0 12 -11.5 16.5t-35.5 6.5l-40 4v30q9 -1 17.5 -1.5t17.5 -0.5
q17 -1 34.5 -1.5t35.5 -0.5t35.5 0.5t34.5 1.5q9 0 17.5 0.5t17.5 0.5v-29l-32 -3q-16 -2 -25 -9.5t-13 -20.5l-153 -537q-3 -12 -6.5 -23.5t-6.5 -23.5q-4 -12 -7.5 -26t-6.5 -28h-50q-11 38 -22.5 71l-23.5 65l-12.5 34t-12.5 35v1z" />
    <glyph glyph-name="X" unicode="X" horiz-adv-x="667" 
d="M487 21l-168 282l-7.5 -11.5t-7.5 -10.5l-15.5 -21.5t-14.5 -21.5l-157 -241q-4 0 -8.5 0.5t-8.5 0.5q-9 1 -17 1.5t-17 0.5t-17.5 -0.5t-17.5 -1.5q-4 0 -8.5 -0.5t-8.5 -0.5v30l26 3q19 1 31.5 14t23.5 27l5.5 7.5l4.5 6.5l189 256l-128 213q-4 5 -7.5 11t-7.5 12
q-21 30 -41.5 47.5t-35.5 18.5l-45 4l-2 26l141 27q13 -7 24 -19.5t20 -26.5q4 -5 7 -10l6 -10l128 -215l185 270h101v-30l-41 -3q-7 -1 -16 -8t-18 -17l-8.5 -10.5l-9.5 -11.5l-8 -11.5l-8 -10.5l-154 -207l176 -280l5.5 -9.5t5.5 -8.5q12 -19 26 -35.5t29 -17.5l30 -2v-30
q-6 0 -12 0.5t-12 0.5q-12 1 -24 1.5t-24 0.5t-24.5 -0.5t-24.5 -1.5q-6 0 -12 -0.5t-12 -0.5l-16 24v0z" />
    <glyph glyph-name="Y" unicode="Y" horiz-adv-x="667" 
d="M220 602l143 -261l103 163q30 46 56.5 93.5l51.5 95.5l80 1v-15l-42 -52l-45 -58l-22.5 -30.5l-22.5 -30.5l-67 -101t-47 -84q-9 -19 -11.5 -38t-2.5 -37v-128q0 -29 2 -48.5t7 -27.5q5 -7 14.5 -10.5t27.5 -4.5l48 -2v-30l-74.5 2t-70.5 1h-20.5h-21.5q-26 -1 -52 -1.5
t-54 -1.5v30l48 3q18 0 28 3.5t14 10.5q5 8 7 27.5t2 47.5v143q0 11 -2 21.5t-7 17.5l-124 217q-39 67 -74 97t-54 32l-29 4v29l115 24q1 -1 1.5 -1t1.5 1h1.5h0.5q11 -1 20 -8.5t18 -18.5q2 -3 4.5 -5.5t4.5 -5.5q3 -3 5 -6t5 -7q9 -12 17.5 -25t16.5 -27v1z" />
    <glyph glyph-name="Z" unicode="Z" horiz-adv-x="667" 
d="M637 663l-486 -619h273q112 -1 140.5 9.5t33.5 61.5l6 58h34q-2 -24 -3.5 -49t-1.5 -51q-1 -19 -1 -38.5v-37.5q-24 0 -49 0.5t-51 0.5q-40 1 -80 1.5t-81 0.5h-22h-22q-52 0 -104 -0.5t-104 -1.5q-26 0 -52 -0.5t-52 -0.5v28l16 18.5l16 19.5q2 2 3.5 4t3.5 4l29.5 34.5
l28.5 35.5l302 389q6 6 11.5 13.5t11.5 14.5l11.5 15.5t11.5 14.5l21.5 30t18.5 29l-228 1q-103 -1 -126.5 -12t-25.5 -36l-6 -70h-34q1 10 1.5 20t0.5 21q1 10 1 20.5v20.5v20t-1 20q0 9 -0.5 19t-1.5 20q33 0 66 -0.5t66 -0.5q17 0 33.5 -0.5t33.5 -0.5q49 0 99 -0.5
t99 -0.5q26 0 52 0.5t52 1.5q13 0 26 0.5t26 0.5l4 -28v0z" />
    <glyph glyph-name="bracketleft" unicode="[" horiz-adv-x="333" 
d="M88 14v514q-1 14 -1 31v34l-2 69t-6 50l9 14q25 -2 49 -2.5t48 -0.5q25 0 49 0.5t48 1.5l6 -5v-26l-4 -5h-38q-28 -1 -48 -9.5t-22 -26.5q-1 -13 -2 -28.5t-1 -31.5q-1 -18 -1 -35v-31v-513v-31t1 -35q0 -16 1 -31.5t2 -28.5q2 -18 22 -26.5t48 -8.5h38l4 -5v-26l-6 -6
q-24 1 -48 1.5t-49 0.5q-24 0 -48 -0.5t-49 -1.5l-9 13q4 17 5.5 48.5t2.5 65.5v4v4v10v10v11.5t1 10.5v10.5v9.5v1z" />
    <glyph glyph-name="backslash" unicode="\" horiz-adv-x="606" 
d="M81 726h59l372 -726h-59l-372 726v0z" />
    <glyph glyph-name="bracketright" unicode="]" horiz-adv-x="333" 
d="M245 528v-514q1 -15 1 -32v-34q1 -36 2.5 -69t5.5 -50l-9 -13q-25 1 -49 1.5t-48 0.5q-25 0 -49 -0.5t-48 -1.5l-6 6v26l4 5h38q29 0 49 8.5t21 26.5q1 13 2 28.5t1 31.5q1 18 1 35v30v515v30t-1 35q0 16 -1 31.5t-2 28.5q-1 18 -21 26.5t-49 8.5l-38 1l-4 5v26l6 6
q24 -2 48 -2.5t49 -0.5q24 0 48 0.5t49 1.5l9 -12q-4 -18 -5.5 -49.5t-2.5 -65.5v-4v-4v-10v-10v-11.5v-10.5q-1 -6 -1 -11v-10v1z" />
    <glyph glyph-name="asciicircum" unicode="^" horiz-adv-x="606" 
d="M119 283h-68l219 406h66l218 -406h-68l-183 338l-184 -338v0z" />
    <glyph glyph-name="underscore" unicode="_" horiz-adv-x="500" 
d="M500 -125h-500v50h500v-50v0z" />
    <glyph glyph-name="grave" unicode="`" horiz-adv-x="333" 
d="M215 506l-144 90q-3 1 -5.5 2.5t-5.5 3.5q-11 7 -20 16t-9 23q0 15 8.5 25t24.5 10q6 0 12 -2.5t13 -6.5l10.5 -8.5l10.5 -8.5l3.5 -3.5l3.5 -3.5l138 -137h-40v0z" />
    <glyph glyph-name="a" unicode="a" horiz-adv-x="500" 
d="M225 270l99 18q1 58 -29.5 92.5t-96.5 34.5q-32 0 -46 -4t-24 -17q-2 -3 -4 -6.5t-4 -8.5q-3 -4 -5 -8.5t-4 -9.5l-13 -30l-26 7v65l53 32q32 19 62 26t54 7q94 0 128.5 -45.5t34.5 -153.5v-182q0 -13 1 -24.5t2 -19.5q2 -7 8.5 -10.5t16.5 -4.5l39 -1v-30
q-6 0 -12.5 0.5t-12.5 0.5q-12 1 -24.5 1.5t-25.5 0.5q-10 0 -19.5 -0.5t-18.5 -0.5q-4 0 -7 -0.5t-6 -0.5q-7 0 -13 -0.5t-13 -0.5l5 85l-124 -86q-5 -4 -15.5 -5.5t-22.5 -2.5h-4h-4q-51 0 -86.5 29.5t-35.5 90.5q0 79 53 111t117 46l11.5 2l11.5 2v1zM324 124v132
l-33.5 -6l-32.5 -6q-20 -4 -39.5 -10t-40.5 -14q-22 -9 -37.5 -30t-20.5 -45q-1 -5 -1.5 -9.5t-0.5 -9.5q0 -38 24 -60t54 -22q23 0 47 13.5t49 32.5q3 2 6 4.5t5 4.5q8 8 13.5 14.5t7.5 9.5v1z" />
    <glyph glyph-name="b" unicode="b" horiz-adv-x="553" 
d="M150 718v-347h2l53 54q14 14 37.5 24.5t49.5 15.5q8 1 17 2t17 1q89 0 135.5 -60t46.5 -144q0 -13 -2 -27t-5 -28q-9 -39 -28.5 -74.5t-43.5 -53.5l-100 -71q-8 -7 -16.5 -10.5t-16.5 -5.5q-16 -5 -30.5 -5.5t-27.5 -0.5h-6h-6q-30 2 -59 10t-53 25l-40 -35l-16 6
q0 5 0.5 10t1.5 10t1.5 10.5t0.5 11.5l4 117v467q0 16 -4 28t-21 12l-56 1v28q40 5 79.5 13t76.5 23l9 -7v0zM150 308v-215q0 -5 3.5 -10t10.5 -10q11 -8 30 -16.5t39 -13.5q10 -2 20 -3.5t19 -1.5q61 0 105 48t44 146q0 65 -32.5 118t-106.5 53q-38 0 -68 -18t-47 -39
q-8 -11 -12.5 -21t-4.5 -18v1z" />
    <glyph glyph-name="c" unicode="c" horiz-adv-x="444" 
d="M399 311h-28l-7 61l-0.5 0.5t-0.5 1.5q-7 10 -25 19.5t-38 15.5q-11 3 -21 5t-19 2h-10t-10 -1q-47 -4 -86.5 -38.5t-39.5 -123.5q0 -118 57 -170t130 -52q10 0 20 1.5t21 3.5q16 4 32 10t29 14l10 -14l-21 -32q-2 -4 -9 -8t-18 -7q-19 -7 -48 -13t-64 -6q-89 0 -158 59
t-69 171q0 64 23.5 109.5t52.5 69.5q2 2 4.5 4t5.5 4l8 6t9 6l17.5 10.5t19.5 10.5l16 8t15 7q23 10 47 16.5t49 6.5q38 0 64.5 -9t44.5 -19q3 -2 5.5 -3.5t5.5 -3.5q-5 -18 -8.5 -43t-4.5 -52q-1 -7 -1 -14v-14v1z" />
    <glyph glyph-name="d" unicode="d" horiz-adv-x="611" 
d="M412 437v183q0 16 -4 28t-21 12l-56 1v28q40 5 79.5 13t76.5 23l9 -7v-616q0 -21 1 -36t4 -23q3 -7 11 -10t21 -4l46 -2v-30q-10 0 -19 0.5t-17 0.5q-16 1 -29 1.5t-26 0.5q-10 0 -19.5 -0.5t-18.5 -0.5q-4 0 -7 -0.5t-6 -0.5q-7 0 -13 -0.5t-13 -0.5l5 92l-111 -93
q-6 -5 -21.5 -6.5t-32.5 -1.5h-4.5h-5.5q-105 0 -155.5 66t-50.5 164q0 68 28.5 117t65.5 68l88 47q23 11 42 14.5t32 3.5q18 0 34.5 -3t31.5 -7q14 -5 27 -10.5l28 -11.5v1zM412 221v129q0 5 -8 13.5t-21 17.5q-14 11 -33.5 20.5t-40.5 14.5q-9 2 -18 3.5t-17 1.5h-1.5
h-1.5q-76 -2 -112.5 -46.5t-36.5 -136.5v-10t1 -11q5 -65 44 -119t111 -54q32 0 60.5 19t48.5 44q2 2 3.5 4.5t3.5 5.5q14 21 16 43.5t2 48.5v5v6v1z" />
    <glyph glyph-name="e" unicode="e" horiz-adv-x="479" 
d="M258 469q82 -1 136 -50t54 -134v-20.5t-2 -21.5q-22 -4 -45 -6.5t-45 -4.5l-45.5 -2t-45.5 -1l-146 1q0 -89 44.5 -143.5t136.5 -54.5q35 0 63.5 14t55.5 30l3 1.5t2 1.5l13 -9l-20 -34q-2 -5 -14 -12t-29 -16q-17 -7 -37.5 -13.5t-41.5 -10.5q-10 -2 -19.5 -3t-18.5 -1
q-113 0 -172 64.5t-59 165.5q0 73 19 118.5t53 72.5q14 11 30 22t32 18q14 7 27.5 12t26.5 9q11 3 21.5 4.5t22.5 1.5v1zM253 436q-55 -1 -94 -40t-38 -115v-6v-6q33 -4 66 -5t64 -1q29 0 56 1l52 2q0 70 -26 119.5t-80 49.5v1z" />
    <glyph glyph-name="f" unicode="f" horiz-adv-x="333" 
d="M341 717v-77l-12 -6q-13 12 -30 19.5t-36 7.5q-46 0 -59.5 -28.5t-13.5 -114.5v-84l131 4l-7 -53h-124v-283q0 -21 1 -36t4 -23q3 -7 11 -10t21 -4l46 -2v-30q-9 0 -18.5 0.5t-19.5 0.5q-19 1 -40.5 1.5t-46.5 0.5q-24 0 -46 -0.5t-41 -1.5q-10 0 -19.5 -0.5t-18.5 -0.5
v30l46 3q13 0 21 3t11 10q3 8 4 23t1 35v284l-69 -4v22l69 31v42q0 49 10 83.5t32 59.5l58 67q11 12 23.5 20t26.5 13q10 4 20.5 6t19.5 2q4 0 7.5 -0.5t7.5 -1.5q8 -1 15.5 -3.5t14.5 -5.5v1z" />
    <glyph glyph-name="g" unicode="g" horiz-adv-x="556" 
d="M519 378h-92q6 -14 8.5 -28.5t2.5 -28.5q0 -40 -18.5 -72t-48.5 -52q-20 -14 -41 -24t-43 -16q-14 -4 -28 -6t-28 -2q-5 0 -10.5 0.5t-10.5 1.5q-4 -4 -9 -8l-11 -9q-10 -9 -18 -18.5t-8 -20.5q0 -21 16 -29t35 -10q6 -1 12.5 -1h12.5l160 1q51 -1 77.5 -27.5t34.5 -56.5
q3 -11 4.5 -21t1.5 -19v-4v-5q-4 -77 -76 -141.5t-195 -64.5q-91 0 -153 41.5t-62 108.5v8t1 9q2 18 8 34.5t19 28.5l87 47q-33 8 -49.5 22t-16.5 36q0 11 4 22t11 20l77 60v2q-9 -1 -23.5 3t-29.5 12q-24 14 -44.5 42t-20.5 76t21 81t55 55q14 9 29 16t30 12
q24 8 46.5 11.5t39.5 3.5h8t9 -1q29 -2 56.5 -12t48.5 -29l142 5l4 -12l-25 -41v0zM254 -252q83 0 134 44t51 104q0 44 -28 67t-113 23q-19 0 -45.5 -0.5t-60.5 -3.5q-7 -1 -16 -4.5t-18 -10.5q-19 -12 -34.5 -35.5t-15.5 -54.5q0 -65 43 -97t103 -32v0zM354 290
q0 54 -26.5 99t-88.5 45q-50 0 -75 -34t-25 -84q0 -66 32.5 -99.5t80.5 -33.5q44 0 73 30t29 76v1z" />
    <glyph glyph-name="h" unicode="h" horiz-adv-x="582" 
d="M88 102v518q0 16 -4 28t-21 12l-56 1v28q40 5 79.5 13t76.5 23l9 -7v-338h2l74 64q2 1 4 2.5t4 3.5q14 10 30.5 14t42.5 4q88 0 126.5 -46t38.5 -128v-192q0 -21 1 -36t4 -23q3 -7 11 -10t21 -4l41 -2v-30q-6 0 -12.5 0.5t-13.5 0.5q-10 1 -19.5 1.5t-19.5 0.5h-8.5h-8.5
h-6h-6q-11 0 -22 -0.5t-21 -1.5q-7 0 -13 -0.5t-12 -0.5v284q0 61 -32 93.5t-83 32.5h-1.5h-1.5q-36 -1 -69 -23t-45 -47q-3 -6 -4.5 -12t-1.5 -12v-211q0 -21 1 -36t4 -23q3 -7 11 -10t21 -4l45 -2v-30q-9 0 -18 0.5t-19 0.5q-19 1 -40.5 1.5t-46.5 0.5q-24 0 -46 -0.5
t-41 -1.5q-10 0 -19 -0.5t-18 -0.5v30l45 3q13 0 21 3t11 10q3 8 4 23t1 35v1z" />
    <glyph glyph-name="i" unicode="i" horiz-adv-x="291" 
d="M188 465v-363q0 -21 1 -36t4 -23q3 -7 11 -10t21 -4l46 -2v-30q-9 0 -18.5 0.5t-19.5 0.5q-19 1 -40.5 1.5t-46.5 0.5q-24 0 -46 -0.5t-41 -1.5q-10 0 -19.5 -0.5t-18.5 -0.5v30l46 3q13 0 21 3t11 10q3 8 4 23t1 35v226q0 23 -1.5 39t-5.5 22t-12.5 8.5t-24.5 2.5l-37 1
v28q2 -1 4 -0.5t3 0.5q35 4 67.5 12.5t58.5 18.5q6 2 12 4.5l11 4.5l9 -3v0zM141 687q22 -1 39 -18t17 -39t-17 -38.5t-39 -16.5t-38.5 16.5t-16.5 38.5t16.5 39t38.5 17v1z" />
    <glyph glyph-name="j" unicode="j" horiz-adv-x="234" 
d="M159 465v-484q0 -61 -14 -109.5t-39 -79.5q-24 -30 -56 -52.5t-77 -22.5l-13 38q8 -2 16 -2.5t19 -0.5q5 0 11.5 2.5t13.5 6.5q8 6 15.5 14t13.5 20q11 21 18.5 72t7.5 126v334q0 23 -1.5 39t-5.5 22t-12.5 8.5t-24.5 2.5l-37 1v28q3 -1 4.5 -0.5t2.5 0.5q35 4 67.5 12.5
t58.5 18.5q6 2 12 4.5l11 4.5l9 -3v0zM112 577q-22 -1 -39 16t-17 39t17 38.5t39 16.5t38.5 -16.5t16.5 -38.5t-16.5 -39t-38.5 -17v1z" />
    <glyph glyph-name="k" unicode="k" horiz-adv-x="556" 
d="M104 102v518q0 16 -4 28t-21 12l-56 1v28q40 5 79.5 13t76.5 23l9 -7v-457l73 59q7 4 13.5 10t13.5 11q11 11 23 21.5l24 21.5q21 19 40 38l36 36l100 1v-30q-1 -1 -1.5 -1h-0.5h-1.5h-1.5q-28 0 -53 -14t-46 -30q-1 -1 -2 -1.5t-2 -1.5l-129 -100q15 -19 31.5 -35.5
l32.5 -33.5l126 -124q3 -4 6 -7t7 -6q11 -10 24 -18.5t26 -13.5q6 -2 11.5 -3t10.5 -1v-22l-96 -29l-265 252v-138q0 -21 1 -36t4 -23q3 -7 11 -10t21 -4l44 -2v-30q-8 0 -17.5 0.5t-18.5 0.5q-19 1 -40.5 1.5t-46.5 0.5q-24 0 -46 -0.5t-41 -1.5q-10 0 -19.5 -0.5
t-18.5 -0.5v30l46 3q13 0 21 3t11 10q3 8 4 23t1 35v1z" />
    <glyph glyph-name="l" unicode="l" horiz-adv-x="291" 
d="M104 102v518q0 16 -4 28t-21 12l-56 1v28q40 5 79.5 13t76.5 23l9 -7v-616q0 -21 1 -36t4 -23q3 -7 11 -10t21 -4l46 -2v-30q-9 0 -18.5 0.5t-19.5 0.5q-19 1 -40.5 1.5t-46.5 0.5q-24 0 -46 -0.5t-41 -1.5q-10 0 -19.5 -0.5t-18.5 -0.5v30l46 3q13 0 21 3t11 10
q3 8 4 23t1 35v1z" />
    <glyph glyph-name="m" unicode="m" horiz-adv-x="883" 
d="M99 102v225q0 23 -1.5 39t-5.5 22t-12.5 8.5t-24.5 2.5l-37 1v28q2 -1 4 -0.5t3 0.5q35 4 67.5 12.5t58.5 18.5q6 2 12 4.5l11 4.5l9 -3v-85l69 64q16 13 37 18.5t51 5.5q44 0 80 -21.5t57 -71.5l76 69q17 13 37.5 18.5t50.5 5.5q59 0 101.5 -41.5t42.5 -119.5v-205
q0 -21 1 -36t4 -23q3 -7 11 -10t21 -4l47 -2v-30q-8 0 -15.5 0.5t-14.5 0.5q-15 1 -29.5 1.5t-28.5 0.5h-6h-6q-11 0 -22 -0.5t-21 -1.5q-7 0 -13 -0.5t-12 -0.5v284q0 49 -22.5 87.5t-71.5 38.5h-1.5h-1.5q-36 -1 -69 -23t-45 -47q-3 -6 -4.5 -12t-1.5 -12v-211
q0 -21 1 -36t4 -23q3 -7 11 -10t21 -4l46 -2v-30q-9 0 -18.5 0.5t-19.5 0.5q-19 1 -40.5 1.5t-46.5 0.5q-24 0 -46 -0.5t-41 -1.5q-10 0 -19.5 -0.5t-18.5 -0.5v30l46 3q13 0 21 3t11 10q3 8 4 23t1 35v180q0 49 -22.5 87.5t-71.5 38.5h-1.5h-1.5q-36 -1 -69 -23t-45 -47
q-3 -6 -4.5 -12t-1.5 -12v-211q0 -21 1 -36t4 -23q3 -7 11 -10t21 -4l42 -2v-30q-8 0 -16.5 0.5t-18.5 0.5q-18 1 -39.5 1.5t-46.5 0.5q-24 0 -46 -0.5t-41 -1.5q-10 0 -19.5 -0.5t-18.5 -0.5v30l46 3q13 0 21 3t11 10q3 8 4 23t1 35v1z" />
    <glyph glyph-name="n" unicode="n" horiz-adv-x="582" 
d="M172 314v-212q0 -21 1 -36t4 -23q3 -7 11 -10t21 -4l45 -2v-30q-9 0 -18 0.5t-19 0.5q-19 1 -40.5 1.5t-46.5 0.5q-24 0 -46 -0.5t-41 -1.5q-10 0 -19 -0.5t-18 -0.5v30l45 3q13 0 21 3t11 10q3 8 4 23t1 35v226q0 23 -1.5 39t-5.5 22t-12.5 8.5t-24.5 2.5l-37 1v28
q2 -1 4 -0.5t3 0.5q35 4 67.5 12.5t58.5 18.5q6 2 12 4.5l11 4.5l9 -3v-85h2l74 64q2 1 4 2.5t4 3.5q14 10 30.5 14t42.5 4q88 0 126.5 -46t38.5 -128v-192q0 -21 1 -36t4 -23q3 -7 11 -10t21 -4l41 -2v-30q-6 0 -12.5 0.5t-13.5 0.5q-10 1 -19.5 1.5t-19.5 0.5h-8.5h-8.5
h-6h-6q-11 0 -22 -0.5t-21 -1.5q-7 0 -13 -0.5t-12 -0.5v284q0 61 -32 93.5t-83 32.5h-1.5h-1.5q-36 -1 -69 -23t-45 -47q-3 -6 -4.5 -12t-1.5 -12v1z" />
    <glyph glyph-name="o" unicode="o" horiz-adv-x="546" 
d="M252 -20h-2h-1h-2h-2q-92 0 -152.5 66t-60.5 167q0 113 67 184t188 71q96 0 161.5 -66t65.5 -162q0 -115 -73.5 -187.5t-188.5 -72.5v0zM264 436q-79 -1 -109 -55.5t-30 -124.5q0 -15 1 -31.5t4 -33.5q10 -67 47 -123t114 -56q68 0 99 57t31 127q0 97 -42.5 168
t-114.5 71v1z" />
    <glyph glyph-name="p" unicode="p" horiz-adv-x="601" 
d="M91 -176v503q0 23 -1.5 39t-5.5 22t-12.5 8.5t-24.5 2.5l-37 1v28q2 -1 4 -0.5t3 0.5q35 4 67.5 12.5t58.5 18.5q6 2 12 4.5l11 4.5l9 -3v-94h2l80 73q13 10 37.5 17t56.5 7q80 0 141.5 -56t61.5 -148q0 -15 -3.5 -32t-9.5 -34q-8 -24 -19.5 -47t-23.5 -40
q-8 -12 -16 -21t-15 -13l-114 -73q-13 -8 -31 -12t-38 -4q-12 0 -26.5 1t-29.5 4q-14 3 -27.5 7t-25.5 12v-188q0 -20 1 -35t4 -23q3 -7 11 -10t21 -4l46 -3v-30q-9 0 -18.5 0.5t-19.5 0.5q-19 1 -40.5 1.5t-46.5 0.5q-24 0 -46 -0.5t-41 -1.5q-10 0 -19.5 -0.5t-18.5 -0.5
v30l46 3q13 1 21 4t11 10q3 8 4 23t1 35v0zM175 301v-203q29 -34 64 -47t78 -13q61 0 105.5 55.5t44.5 140.5q0 71 -38.5 120t-117.5 49q-42 0 -70.5 -16.5t-44.5 -35.5q-5 -6 -9 -12t-7 -12q-4 -7 -4.5 -13.5t-0.5 -13.5v1z" />
    <glyph glyph-name="q" unicode="q" horiz-adv-x="560" 
d="M393 -176v242l-104 -66q-8 -6 -19.5 -8.5t-22.5 -3.5h-4h-4h-2.5h-3.5q-104 6 -148 64t-49 127q-1 5 -1 10.5v11.5q0 76 28 123t69 73l84 55q11 5 30 10t39 6h3.5h2.5q37 0 72.5 -8.5t68.5 -24.5l49 32l19 -11q-8 -16 -12.5 -35.5t-6.5 -39.5q-2 -17 -3 -33.5t-1 -30.5
v-493q0 -20 1 -35t4 -23q3 -7 11 -10t21 -4l46 -3v-30q-9 0 -18.5 0.5t-19.5 0.5q-19 1 -40.5 1.5t-46.5 0.5q-19 0 -37 -0.5t-36 -0.5q-4 0 -8.5 -0.5t-9.5 -0.5q-11 0 -22.5 -0.5t-23.5 -0.5v30l58 3q13 1 21 4t11 10q3 8 4 23t1 35v0zM393 120v261q-20 18 -45 27t-50 11
q-8 1 -16 1.5t-16 0.5t-16.5 -1t-16.5 -3q-42 -10 -76.5 -48.5t-34.5 -116.5v-10.5t1 -10.5q3 -70 37.5 -128.5t116.5 -58.5q5 0 11 0.5t11 2.5q21 5 41 16.5t33 24.5q9 8 14.5 16.5t5.5 14.5v1z" />
    <glyph glyph-name="r" unicode="r" horiz-adv-x="395" 
d="M104 102v225q0 23 -1.5 39t-5.5 22t-12.5 8.5t-24.5 2.5l-37 1v28q2 -1 4 -0.5t3 0.5q35 4 67.5 12.5t58.5 18.5q6 2 12 4.5l11 4.5l9 -3v-101h2l54 64q10 11 22 19.5t24 12.5q10 4 19.5 6t18.5 2h6t6 -1q11 -1 20 -4t14 -6l-9 -119h-21q-8 17 -24.5 31t-43.5 14
q-33 0 -60.5 -31t-27.5 -79v-171q0 -21 1 -36t4 -23q3 -7 14 -10t28 -4l52 -2v-30q-13 0 -25 0.5t-24 0.5q-8 0 -16 0.5t-16 0.5q-15 1 -29.5 1h-30.5q-24 0 -46 -0.5t-41 -1.5q-10 0 -19.5 -0.5t-18.5 -0.5v30l46 3q13 0 21 3t11 10q3 8 4 23t1 35v1z" />
    <glyph glyph-name="s" unicode="s" horiz-adv-x="424" 
d="M41 143h30v-41q0 -40 31.5 -60t69.5 -24q7 -1 14 -1.5t14 -0.5q47 0 82 25.5t35 65.5q0 24 -12.5 42t-35.5 24l-43 10.5l-46 11.5q-15 4 -29.5 8.5t-28.5 9.5q-36 14 -60.5 38.5t-24.5 70.5q0 81 59 113.5t129 32.5q35 0 67.5 -7t61.5 -18q-2 -27 -3 -55l-2 -58l-28 1v23
q0 37 -34.5 58t-75.5 23h-3.5h-2.5q-50 0 -70.5 -18t-25.5 -40q-1 -6 -1.5 -11.5t-0.5 -11.5q0 -32 26 -50.5t83 -28.5q89 -15 132 -42t43 -86q0 -82 -69 -124.5t-152 -42.5q-16 0 -32 1t-31 4q-19 2 -38 7t-39 11q6 26 8 54t3 57v14v14v1z" />
    <glyph glyph-name="t" unicode="t" horiz-adv-x="326" 
d="M98 382l-76 -4v21l78 35v70q0 19 -1 38.5t-3 39.5q14 4 26.5 9t23.5 10t20 10t15 9l12 -10l-4 -33t-3 -34q-2 -20 -3 -39.5t-1 -36.5v-37l137 6l-9 -54h-128v-262q0 -35 12 -52.5t43 -17.5q15 0 27.5 4t21.5 10q3 1 5.5 2.5t4.5 2.5l13 -16l-48 -53q-4 -5 -15.5 -7.5
t-24.5 -3.5q-6 -1 -12.5 -1h-12.5q-40 0 -69 22t-29 83v289v0z" />
    <glyph glyph-name="u" unicode="u" horiz-adv-x="603" 
d="M503 465v-363q0 -21 1 -36t4 -23q3 -7 11 -10t21 -4l41 -2v-30q-6 0 -12.5 0.5t-13.5 0.5q-10 1 -19.5 1.5t-19.5 0.5h-8.5h-8.5q-14 0 -28.5 -0.5t-28.5 -1.5q-7 0 -13.5 -0.5t-13.5 -0.5v3.5t1 3.5l2 39t1 45l-67 -61q-21 -20 -48.5 -29.5t-63.5 -9.5q-96 0 -118 46
t-23 102v10.5v11.5v169q0 23 -1.5 39t-5.5 22t-12.5 8.5t-24.5 2.5l-37 1v28q2 -1 4 -0.5t3 0.5q35 4 67.5 12.5t58.5 18.5q6 2 12 4.5l11 4.5l9 -3v-295q0 -60 20 -91t89 -31q38 0 71 25.5t48 55.5q4 9 6 17.5t2 16.5v164q0 23 -1.5 39t-5.5 22t-12.5 8.5t-24.5 2.5l-37 1
v28q2 -1 4 -0.5t3 0.5q35 4 67.5 12.5t58.5 18.5q6 2 12 4.5l11 4.5l9 -3v0z" />
    <glyph glyph-name="v" unicode="v" horiz-adv-x="565" 
d="M452 362l-118 -260q-3 -7 -5 -12.5l-4 -10.5q-5 -12 -9.5 -24.5l-8.5 -24.5l-6.5 -19t-7.5 -18h-50l-172 403q-1 1 -2 3l-2 4q-3 9 -9 16.5t-18 8.5l-34 3v28q10 -1 19.5 -1.5t19.5 -0.5q20 -1 39.5 -1.5t38.5 -0.5q15 0 29.5 0.5t28.5 0.5q5 0 9.5 0.5t9.5 0.5
q10 0 19.5 0.5t19.5 0.5v-27l-49 -2q-12 -2 -18.5 -6.5t-6.5 -15.5q0 -7 2.5 -16t6.5 -20l119 -287l8 16.5l8 17.5l23.5 52.5l22.5 52.5l42 107q10 24 14.5 42t4.5 30q0 13 -6 19t-18 7l-41 3v28q8 -1 15.5 -1.5t15.5 -0.5q4 0 8 -0.5t8 -0.5q12 0 23.5 -0.5t23.5 -0.5
t23.5 0.5t23.5 0.5q4 0 8 0.5t8 0.5q8 0 15.5 0.5t15.5 0.5v-27l-31 -2q-16 -2 -28.5 -19t-21.5 -37q-2 -3 -3.5 -6t-2.5 -6v1z" />
    <glyph glyph-name="w" unicode="w" horiz-adv-x="834" 
d="M290 185l123 284h23q7 -23 14.5 -42.5l14.5 -39.5l115 -289q4 9 8 19.5l8 20.5l16.5 41.5t15.5 41.5l50 141q4 9 5.5 17.5t1.5 15.5q0 16 -9.5 24t-29.5 9l-34 3v28q8 -1 16.5 -1.5t16.5 -0.5q4 0 8 -0.5t8 -0.5q12 0 24.5 -0.5t24.5 -0.5t24.5 0.5t24.5 0.5q4 0 8 0.5
t8 0.5q8 0 16.5 0.5t16.5 0.5v-27l-26 -2q-8 -2 -14.5 -6t-13.5 -12q-8 -11 -16.5 -28.5l-19.5 -41.5l-68 -155q-13 -30 -23.5 -60.5l-20.5 -60.5q-1 -2 -1.5 -4t-1.5 -4q-5 -17 -10.5 -33t-11.5 -31h-46l-136 342q-5 -12 -10.5 -23.5l-10.5 -22.5q-1 -3 -2.5 -5.5
t-2.5 -5.5l-13.5 -28l-12.5 -28l-98 -229h-47l-102 336q-10 32 -18.5 51.5t-16.5 30.5q-7 9 -14.5 12.5t-16.5 4.5l-28 3v28q10 -1 20 -1.5t20 -0.5q5 0 10 -0.5t10 -0.5q14 0 29 -0.5t30 -0.5t30 0.5t30 0.5q4 0 9 0.5t10 0.5q10 0 20 0.5t20 0.5v-27l-40 -2
q-19 -2 -28.5 -8t-9.5 -20q0 -4 1 -9.5t3 -12.5l84 -275q7 13 12.5 26.5t11.5 26.5l6 13.5l6 13.5v1z" />
    <glyph glyph-name="x" unicode="x" horiz-adv-x="516" 
d="M288 254l148 -200q6 -9 15 -16t20 -9l25 -2v-30q-5 0 -10 0.5t-10 0.5q-3 0 -5.5 0.5t-4.5 0.5q-8 0 -15.5 0.5t-15.5 0.5q-10 0 -20.5 -0.5t-21.5 -1.5q-5 0 -10 -0.5t-10 -0.5q-6 4 -11.5 11t-10.5 15q-1 1 -2 3t-2 3l-107 163l-74 -98l-19.5 -29.5l-18.5 -29.5
q-1 -1 -1.5 -2t-0.5 -2l-10 -16t-10 -15h-86v27h17q3 -1 5.5 -0.5t4.5 1.5q6 2 11 5.5t9 7.5l149 177l-120 174q-7 10 -21 18.5t-29 9.5l-21 3l-5 26l116 20l32.5 -34t27.5 -36l76 -115l124 175h82v-28h-14q-10 -1 -19 -3t-15 -9l-142 -165v0z" />
    <glyph glyph-name="y" unicode="y" horiz-adv-x="556" 
d="M297 86l119 292q3 7 4.5 13t1.5 10q0 14 -11 20t-31 7l-26 3v28q8 -1 16 -1.5t16 -0.5q4 0 8 -0.5t8 -0.5q11 0 23 -0.5t24 -0.5t24 0.5t24 0.5q3 0 7 0.5t8 0.5q8 0 16 0.5t16 0.5v-27l-28 -2q-2 -1 -4 -1.5t-4 -1.5q-16 -6 -33.5 -33t-42.5 -86l-203 -467
q-24 -55 -56.5 -89t-95.5 -34q-4 0 -8.5 0.5t-8.5 1.5q-8 2 -15.5 5t-13.5 6q-1 0 -2 0.5t-2 1.5l24 75h13q5 -5 12.5 -10t15.5 -8q6 -2 11.5 -3.5t10.5 -1.5v0h1v0v0q30 2 51 27t36 54q7 13 12.5 26t9.5 24l23 61l-10.5 28l-11.5 28l-10 25.5l-10 24.5q-3 9 -6.5 17.5
l-7.5 17.5l-109 263q-2 5 -4.5 9.5t-4.5 8.5q-10 17 -20 23t-23 7l-18 3v28q10 -1 19.5 -1.5t19.5 -0.5q5 0 9.5 -0.5t9.5 -0.5q14 0 28.5 -0.5t29.5 -0.5t29.5 0.5t28.5 0.5q5 0 9.5 0.5t9.5 0.5q10 0 19.5 0.5t19.5 0.5v-27l-38 -2q-14 -2 -24 -7t-9 -21q0 -7 2.5 -16.5
t6.5 -21.5l64 -167q11 -29 23 -56.5t28 -54.5v1z" />
    <glyph glyph-name="z" unicode="z" horiz-adv-x="500" 
d="M455 432l-314 -397h135q54 -1 96 3.5t46 20.5l18 80h30q-1 -13 -2.5 -24.5t-3.5 -23.5l-2 -12t-1 -12q-3 -18 -4.5 -35.5t-1.5 -34.5q-26 0 -51.5 0.5t-51.5 0.5q-13 0 -26 0.5t-26 0.5q-39 0 -77.5 0.5t-77.5 0.5q-15 0 -30 -0.5t-29 -0.5q-5 0 -10 -0.5t-10 -0.5
q-10 0 -20 -0.5t-20 -0.5l-6 20q8 8 15.5 16.5l15.5 17.5l30 34.5t29 35.5l170 213q12 14 23 29l22 30q5 7 10 15t10 15l-143 1q-54 -1 -73.5 -5.5t-22.5 -21.5l-12 -67h-30q3 28 4 40t2 20v5v5q1 8 1.5 21.5l1.5 39.5q23 0 46.5 -0.5t46.5 -0.5q12 0 23.5 -0.5t23.5 -0.5
q35 0 70 -0.5t70 -0.5q13 0 26.5 0.5t26.5 0.5q4 0 8.5 0.5t9.5 0.5q9 0 17.5 0.5t17.5 0.5v-29v0z" />
    <glyph glyph-name="braceleft" unicode="{" horiz-adv-x="333" 
d="M206 128v-173q0 -54 18 -87t65 -43q-85 0 -120 29.5t-35 128.5v168q0 53 -13 80t-63 41q47 14 61.5 42t14.5 77v187q0 93 40 120t115 27q-49 -14 -66 -45.5t-17 -85.5v-185q0 -56 -14.5 -89t-66.5 -47v-1q54 -15 67.5 -50.5t13.5 -94.5v1z" />
    <glyph glyph-name="bar" unicode="|" horiz-adv-x="606" 
d="M275 0v726h56v-726h-56v0z" />
    <glyph glyph-name="braceright" unicode="}" horiz-adv-x="333" 
d="M127 -45v173q0 58 13.5 93.5t67.5 49.5v3q-52 13 -66.5 46t-14.5 88v187q0 53 -17 84.5t-66 45.5q75 0 115 -27t40 -121v-185q0 -50 15 -78t61 -42q-49 -14 -62.5 -41t-13.5 -81v-167q0 -99 -35 -128.5t-120 -29.5q47 10 65 43t18 87v0z" />
    <glyph glyph-name="asciitilde" unicode="~" horiz-adv-x="606" 
d="M520 347l35 -40q-1 -3 -2 -5l-2 -4q-22 -38 -56.5 -69.5t-80.5 -31.5q-13 0 -30.5 4.5t-35.5 11.5q-6 2 -12.5 4.5t-12.5 5.5l-23.5 9.5t-20.5 8.5q-4 2 -8.5 3.5t-8.5 3.5q-17 7 -34.5 13t-35.5 6q-34 0 -56 -22.5t-38 -48.5q-3 -6 -6 -11l-6 -10l-35 41q2 3 4 6.5
t5 7.5q22 38 53.5 69.5t79.5 31.5q20 0 43.5 -7t46.5 -17l10.5 -4l10.5 -4q1 -1 2.5 -1.5t3.5 -1.5q3 -1 6 -2.5l5 -2.5q27 -12 51.5 -21.5t42.5 -9.5q29 0 53 20.5t40 45.5q4 5 7 10t5 10v1z" />
    <glyph glyph-name="Adieresis" unicode="&#xc4;" horiz-adv-x="778" 
d="M408 700l242 -568l8 -18.5l8 -18.5t8 -17t8 -15q8 -14 17.5 -23t22.5 -11l34 -2v-30q-11 0 -22 0.5t-22 0.5q-22 1 -44 1.5t-45 0.5q-17 0 -38 -0.5t-44 -1.5q-12 0 -24.5 -0.5t-26.5 -0.5v30l47 3q16 0 28.5 5t12.5 14t-5 23.5t-12 30.5q0 1 -0.5 2t-0.5 2q-1 1 -1.5 3
t-1.5 3l-46 116h-288l-28 -67q-3 -7 -7 -18t-9 -23q-1 -3 -2 -5.5t-2 -5.5q-6 -16 -10.5 -31.5t-4.5 -21.5q0 -16 12.5 -21t35.5 -7l37 -2v-30q-12 0 -23 0.5t-22 0.5q-20 1 -37.5 1.5t-32.5 0.5q-19 0 -38.5 -0.5t-38.5 -1.5q-9 0 -18.5 -0.5t-19.5 -0.5v30l37 3
q18 1 32 15t22 33l178 406l14 31l14 32l18 40t17 40q8 18 15 36l14 36l32 1v0zM240 269h253l-126 298l-127 -298v0zM290 868q23 -1 36.5 -14.5t13.5 -36.5q0 -22 -13.5 -36t-36.5 -14q-22 0 -36 14t-14 36q0 23 14 36.5t36 13.5v1zM489 868q23 -1 36.5 -14.5t13.5 -36.5
q0 -22 -13.5 -36t-36.5 -14q-22 0 -36 14t-14 36q0 23 14 36.5t36 13.5v1z" />
    <glyph glyph-name="Aring" unicode="&#xc5;" horiz-adv-x="778" 
d="M408 700l242 -568l8 -18.5l8 -18.5t8 -17t8 -15q8 -14 17.5 -23t22.5 -11l34 -2v-30q-11 0 -22 0.5t-22 0.5q-22 1 -44 1.5t-45 0.5q-17 0 -38 -0.5t-44 -1.5q-12 0 -24.5 -0.5t-26.5 -0.5v30l47 3q16 0 28.5 5t12.5 14t-5 23.5t-12 30.5q0 1 -0.5 2t-0.5 2q-1 1 -1.5 3
t-1.5 3l-46 116h-288l-28 -67q-3 -7 -7 -18t-9 -23q-1 -3 -2 -5.5t-2 -5.5q-6 -16 -10.5 -31.5t-4.5 -21.5q0 -16 12.5 -21t35.5 -7l37 -2v-30q-12 0 -23 0.5t-22 0.5q-20 1 -37.5 1.5t-32.5 0.5q-19 0 -38.5 -0.5t-38.5 -1.5q-9 0 -18.5 -0.5t-19.5 -0.5v30l37 3
q18 1 32 15t22 33l178 406l14 31l14 32l18 40t17 40q8 18 15 36l14 36l32 1v0zM240 269h253l-126 298l-127 -298v0zM390 927q41 -1 70.5 -30t29.5 -70v0v0v-1v0q1 -41 -29 -70.5t-71 -29.5t-70.5 29t-29.5 70v0v1v0v0q-1 41 29 70.5t71 29.5v1zM390 891q-28 -1 -45 -18.5
t-17 -46.5t17 -46.5t45 -17.5t45 17.5t17 46.5t-17 46.5t-45 17.5v1z" />
    <glyph glyph-name="Ccedilla" unicode="&#xc7;" horiz-adv-x="709" 
d="M329 -108l42 98h34l-25 -65q7 2 14.5 3t14.5 1q33 0 58 -17.5t25 -52.5q0 -40 -28.5 -58.5t-62.5 -23.5q-8 -1 -16 -1.5t-15 -0.5q-13 0 -23.5 1t-19.5 3t-19 5l-24 7l14 31q2 -1 4 -1.5t4 -0.5q6 -2 12.5 -3.5t12.5 -2.5l14.5 -2t13.5 -1q26 0 42 8.5t16 37.5
q0 16 -11 25t-24 11h-2.5h-2.5q-7 0 -13 -1l-12 -2l-8 -2l-8 -2l-7 6v0zM670 84l-28 -50q-23 -15 -52.5 -24.5t-59.5 -16.5q-29 -6 -56.5 -9.5t-49.5 -3.5q-180 0 -291 96.5t-111 266.5q0 86 32 154t90 115q56 47 130.5 71.5t158.5 24.5q54 0 104.5 -9t88.5 -20
q11 -3 20.5 -6t17.5 -6q-6 -30 -11.5 -63t-6.5 -67q-1 -5 -1 -10.5v-11.5l-31 1v72q0 20 -25.5 34t-60.5 27q-16 5 -34 9t-37 6q-11 1 -21 1.5t-20 0.5q-141 0 -214 -89.5t-73 -217.5q0 -148 90.5 -237t238.5 -89q14 0 28 1t28 4q42 6 81.5 21t65.5 34l9 -9v0z" />
    <glyph glyph-name="Eacute" unicode="&#xc9;" horiz-adv-x="611" 
d="M121 120v449q0 28 -2 47t-7 27q-4 8 -14 11t-28 4l-48 4v30q14 -1 28 -1.5t28 -0.5q28 -1 56.5 -1.5t56.5 -0.5h16.5h16.5q24 0 48.5 0.5t47.5 1.5q31 0 58.5 0.5t48.5 0.5q34 0 67 -0.5t62 -2.5q-6 -23 -9.5 -49t-4.5 -53q-1 -13 -1.5 -25.5t-0.5 -24.5l-35 1v65
q0 9 -1.5 16.5t-7.5 9.5q-25 10 -57 14t-65 6q-19 1 -37.5 1h-36.5q-13 0 -27.5 -0.5t-28.5 -2.5l-14 -2t-14 -3v-266q24 -2 52 -3t64 -1q46 0 72 3t34 8q4 3 5.5 9.5t2.5 16.5l5 53h30q0 -11 -0.5 -21t-0.5 -20q-1 -20 -1.5 -38.5t-0.5 -37.5v-18.5t1 -18.5v-19t1 -18
q0 -10 0.5 -19t0.5 -18l-30 1l-5 59q-1 9 -2.5 15.5t-5.5 8.5q-8 6 -34 9t-72 3q-36 0 -64.5 -0.5t-51.5 -2.5v-279q7 -3 14 -4l14 -2q14 -2 28.5 -2.5t27.5 -0.5h24h25q52 1 97 4t56 9t20.5 36.5t14.5 75.5l35 1q-5 -24 -8.5 -50.5t-5.5 -53.5q-1 -15 -1.5 -30.5
t-0.5 -29.5q-11 0 -24.5 -0.5t-29.5 -0.5q-26 -1 -55.5 -1.5t-59.5 -0.5h-14h-14h-18.5h-18.5q-10 1 -19.5 1h-18.5h-8.5h-9.5q-33 1 -65 1.5t-60 0.5q-18 0 -34.5 -0.5t-32.5 -1.5h-2.5h-2.5q-8 0 -17 -0.5t-18 -0.5v30l36 3q18 1 28 4t14 10q5 8 7 27.5t2 47.5v1zM217 737
l138 138q2 1 3.5 2.5l3.5 3.5l10.5 8.5l10.5 8.5q7 4 13 6.5t12 2.5q16 0 24.5 -10t8.5 -25q0 -14 -9 -23t-20 -16q-3 -2 -5.5 -3.5t-5.5 -3.5l-144 -89h-40v0z" />
    <glyph glyph-name="Ntilde" unicode="&#xd1;" horiz-adv-x="831" 
d="M112 120v449q0 28 -2 47t-7 27q-4 8 -14 11t-28 4l-44 4v30q11 -1 21.5 -1.5t21.5 -0.5q20 -1 39.5 -1.5t37.5 -0.5q9 0 18 0.5t18 1.5q5 0 9.5 0.5t8.5 0.5l478 -589h3v467q0 28 -2 47t-7 27q-4 8 -14 11t-28 4l-44 4v30q10 -1 20 -1.5t20 -0.5q20 -1 39 -1.5t37 -0.5
h19.5t19.5 1h19.5t19.5 1q10 0 20.5 0.5t21.5 0.5v-29l-44 -3q-18 -2 -27.5 -5t-14.5 -11t-7 -27t-2 -48v-551q0 -5 0.5 -10t0.5 -9q0 -1 0.5 -2.5t0.5 -3.5q0 -3 0.5 -6t0.5 -6l-90 16l-471 585h-2v-461q0 -29 2 -48.5t7 -27.5q5 -7 14.5 -10t27.5 -5l44 -2v-30
q-11 0 -21.5 0.5t-20.5 0.5q-10 1 -19.5 1h-19.5q-10 1 -19.5 1h-19.5q-18 0 -37 -0.5t-39 -1.5q-10 0 -20 -0.5t-20 -0.5v30l44 3q18 1 28 4t14 10q5 8 7 27.5t2 47.5v1zM552 871h29q0 -10 -4 -23t-12 -27q-2 -4 -4.5 -7.5l-5.5 -7.5q-13 -16 -32.5 -28.5t-47.5 -12.5
q-17 0 -29.5 3t-23.5 8q-9 4 -18.5 9t-21.5 10l-5 2.5t-6 2.5q-4 2 -9 4t-10 3l-10 2t-9 1q-20 0 -33 -13.5t-20 -31.5l-29 1q8 43 35.5 71t73.5 28q17 0 33 -6t31 -13q3 -2 6 -3.5t6 -2.5t6.5 -3t6.5 -3q5 -3 10 -5l10 -4q6 -2 12 -3.5t11 -1.5h2.5h1.5q24 3 34.5 13.5
t18.5 29.5q1 2 1.5 3.5t1.5 3.5v1z" />
    <glyph glyph-name="Odieresis" unicode="&#xd6;" horiz-adv-x="786" 
d="M377 -20q-152 0 -253.5 97.5t-101.5 265.5q0 155 101 260t275 105q161 0 263.5 -87.5t102.5 -254.5q0 -161 -111.5 -273.5t-275.5 -112.5v0zM382 667q-130 -1 -191.5 -82.5t-61.5 -204.5v-12t1 -13q5 -125 71 -229.5t208 -104.5q125 0 186.5 88t61.5 226q0 149 -67.5 240
t-207.5 91v1zM294 868q23 -1 36.5 -14.5t13.5 -36.5q0 -22 -13.5 -36t-36.5 -14q-22 0 -36 14t-14 36q0 23 14 36.5t36 13.5v1zM493 868q23 -1 36.5 -14.5t13.5 -36.5q0 -22 -13.5 -36t-36.5 -14q-22 0 -36 14t-14 36q0 23 14 36.5t36 13.5v1z" />
    <glyph glyph-name="Udieresis" unicode="&#xdc;" horiz-adv-x="778" 
d="M111 214v355q0 28 -2 47t-7 27q-4 8 -14 11t-28 4l-48 4v30q28 -2 54 -2.5t52 -1.5h21.5h20.5q35 0 70.5 1l74.5 2v-29l-48 -3q-18 -2 -27.5 -5t-14.5 -11t-7 -27t-2 -48v-343q0 -107 53.5 -145.5t152.5 -38.5q81 0 143.5 41.5t62.5 165.5v321q0 28 -2 47t-7 27
q-4 8 -14 11t-28 4l-44 4v30q10 -1 20 -1.5t20 -0.5q20 -1 39 -1.5t37 -0.5h19.5t19.5 1h19.5t19.5 1q10 0 20.5 0.5t21.5 0.5v-29l-44 -3q-18 -2 -27.5 -5t-14.5 -11t-7 -27t-2 -48v-288q0 -161 -65.5 -230.5t-217.5 -69.5q-127 0 -198.5 48t-71.5 185v1zM290 868
q23 -1 36.5 -14.5t13.5 -36.5q0 -22 -13.5 -36t-36.5 -14q-22 0 -36 14t-14 36q0 23 14 36.5t36 13.5v1zM489 868q23 -1 36.5 -14.5t13.5 -36.5q0 -22 -13.5 -36t-36.5 -14q-22 0 -36 14t-14 36q0 23 14 36.5t36 13.5v1z" />
    <glyph glyph-name="aacute" unicode="&#xe1;" horiz-adv-x="500" 
d="M225 270l99 18q1 58 -29.5 92.5t-96.5 34.5q-32 0 -46 -4t-24 -17q-2 -3 -4 -6.5t-4 -8.5q-3 -4 -5 -8.5t-4 -9.5l-13 -30l-26 7v65l53 32q32 19 62 26t54 7q94 0 128.5 -45.5t34.5 -153.5v-182q0 -13 1 -24.5t2 -19.5q2 -7 8.5 -10.5t16.5 -4.5l39 -1v-30
q-6 0 -12.5 0.5t-12.5 0.5q-12 1 -24.5 1.5t-25.5 0.5q-10 0 -19.5 -0.5t-18.5 -0.5q-4 0 -7 -0.5t-6 -0.5q-7 0 -13 -0.5t-13 -0.5l5 85l-124 -86q-5 -4 -15.5 -5.5t-22.5 -2.5h-4h-4q-51 0 -86.5 29.5t-35.5 90.5q0 79 53 111t117 46l11.5 2l11.5 2v1zM324 124v132
l-33.5 -6l-32.5 -6q-20 -4 -39.5 -10t-40.5 -14q-22 -9 -37.5 -30t-20.5 -45q-1 -5 -1.5 -9.5t-0.5 -9.5q0 -38 24 -60t54 -22q23 0 47 13.5t49 32.5q3 2 6 4.5t5 4.5q8 8 13.5 14.5t7.5 9.5v1zM162 526l138 138q2 1 3.5 2.5l3.5 3.5l10.5 8.5l10.5 8.5q7 4 13 6.5t12 2.5
q16 0 24.5 -10t8.5 -25q0 -14 -9 -23t-20 -16q-3 -2 -5.5 -3.5t-5.5 -3.5l-144 -89h-40v0z" />
    <glyph glyph-name="agrave" unicode="&#xe0;" horiz-adv-x="500" 
d="M225 270l99 18q1 58 -29.5 92.5t-96.5 34.5q-32 0 -46 -4t-24 -17q-2 -3 -4 -6.5t-4 -8.5q-3 -4 -5 -8.5t-4 -9.5l-13 -30l-26 7v65l53 32q32 19 62 26t54 7q94 0 128.5 -45.5t34.5 -153.5v-182q0 -13 1 -24.5t2 -19.5q2 -7 8.5 -10.5t16.5 -4.5l39 -1v-30
q-6 0 -12.5 0.5t-12.5 0.5q-12 1 -24.5 1.5t-25.5 0.5q-10 0 -19.5 -0.5t-18.5 -0.5q-4 0 -7 -0.5t-6 -0.5q-7 0 -13 -0.5t-13 -0.5l5 85l-124 -86q-5 -4 -15.5 -5.5t-22.5 -2.5h-4h-4q-51 0 -86.5 29.5t-35.5 90.5q0 79 53 111t117 46l11.5 2l11.5 2v1zM324 124v132
l-33.5 -6l-32.5 -6q-20 -4 -39.5 -10t-40.5 -14q-22 -9 -37.5 -30t-20.5 -45q-1 -5 -1.5 -9.5t-0.5 -9.5q0 -38 24 -60t54 -22q23 0 47 13.5t49 32.5q3 2 6 4.5t5 4.5q8 8 13.5 14.5t7.5 9.5v1zM275 526l-144 90q-3 1 -5.5 2.5t-5.5 3.5q-11 7 -20 16t-9 23q0 15 8.5 25
t24.5 10q6 0 12 -2.5t13 -6.5l10.5 -8.5l10.5 -8.5l3.5 -3.5l3.5 -3.5l138 -137h-40v0z" />
    <glyph glyph-name="acircumflex" unicode="&#xe2;" horiz-adv-x="500" 
d="M225 270l99 18q1 58 -29.5 92.5t-96.5 34.5q-32 0 -46 -4t-24 -17q-2 -3 -4 -6.5t-4 -8.5q-3 -4 -5 -8.5t-4 -9.5l-13 -30l-26 7v65l53 32q32 19 62 26t54 7q94 0 128.5 -45.5t34.5 -153.5v-182q0 -13 1 -24.5t2 -19.5q2 -7 8.5 -10.5t16.5 -4.5l39 -1v-30
q-6 0 -12.5 0.5t-12.5 0.5q-12 1 -24.5 1.5t-25.5 0.5q-10 0 -19.5 -0.5t-18.5 -0.5q-4 0 -7 -0.5t-6 -0.5q-7 0 -13 -0.5t-13 -0.5l5 85l-124 -86q-5 -4 -15.5 -5.5t-22.5 -2.5h-4h-4q-51 0 -86.5 29.5t-35.5 90.5q0 79 53 111t117 46l11.5 2l11.5 2v1zM324 124v132
l-33.5 -6l-32.5 -6q-20 -4 -39.5 -10t-40.5 -14q-22 -9 -37.5 -30t-20.5 -45q-1 -5 -1.5 -9.5t-0.5 -9.5q0 -38 24 -60t54 -22q23 0 47 13.5t49 32.5q3 2 6 4.5t5 4.5q8 8 13.5 14.5t7.5 9.5v1zM208 697h62l125 -167h-35l-121 103l-121 -103h-35l125 167v0z" />
    <glyph glyph-name="adieresis" unicode="&#xe4;" horiz-adv-x="500" 
d="M225 270l99 18q1 58 -29.5 92.5t-96.5 34.5q-32 0 -46 -4t-24 -17q-2 -3 -4 -6.5t-4 -8.5q-3 -4 -5 -8.5t-4 -9.5l-13 -30l-26 7v65l53 32q32 19 62 26t54 7q94 0 128.5 -45.5t34.5 -153.5v-182q0 -13 1 -24.5t2 -19.5q2 -7 8.5 -10.5t16.5 -4.5l39 -1v-30
q-6 0 -12.5 0.5t-12.5 0.5q-12 1 -24.5 1.5t-25.5 0.5q-10 0 -19.5 -0.5t-18.5 -0.5q-4 0 -7 -0.5t-6 -0.5q-7 0 -13 -0.5t-13 -0.5l5 85l-124 -86q-5 -4 -15.5 -5.5t-22.5 -2.5h-4h-4q-51 0 -86.5 29.5t-35.5 90.5q0 79 53 111t117 46l11.5 2l11.5 2v1zM324 124v132
l-33.5 -6l-32.5 -6q-20 -4 -39.5 -10t-40.5 -14q-22 -9 -37.5 -30t-20.5 -45q-1 -5 -1.5 -9.5t-0.5 -9.5q0 -38 24 -60t54 -22q23 0 47 13.5t49 32.5q3 2 6 4.5t5 4.5q8 8 13.5 14.5t7.5 9.5v1zM139 657q23 -1 36.5 -14.5t13.5 -36.5q0 -22 -13.5 -36t-36.5 -14
q-22 0 -36 14t-14 36q0 23 14 36.5t36 13.5v1zM338 657q23 -1 36.5 -14.5t13.5 -36.5q0 -22 -13.5 -36t-36.5 -14q-22 0 -36 14t-14 36q0 23 14 36.5t36 13.5v1z" />
    <glyph glyph-name="atilde" unicode="&#xe3;" horiz-adv-x="500" 
d="M225 270l99 18q1 58 -29.5 92.5t-96.5 34.5q-32 0 -46 -4t-24 -17q-2 -3 -4 -6.5t-4 -8.5q-3 -4 -5 -8.5t-4 -9.5l-13 -30l-26 7v65l53 32q32 19 62 26t54 7q94 0 128.5 -45.5t34.5 -153.5v-182q0 -13 1 -24.5t2 -19.5q2 -7 8.5 -10.5t16.5 -4.5l39 -1v-30
q-6 0 -12.5 0.5t-12.5 0.5q-12 1 -24.5 1.5t-25.5 0.5q-10 0 -19.5 -0.5t-18.5 -0.5q-4 0 -7 -0.5t-6 -0.5q-7 0 -13 -0.5t-13 -0.5l5 85l-124 -86q-5 -4 -15.5 -5.5t-22.5 -2.5h-4h-4q-51 0 -86.5 29.5t-35.5 90.5q0 79 53 111t117 46l11.5 2l11.5 2v1zM324 124v132
l-33.5 -6l-32.5 -6q-20 -4 -39.5 -10t-40.5 -14q-22 -9 -37.5 -30t-20.5 -45q-1 -5 -1.5 -9.5t-0.5 -9.5q0 -38 24 -60t54 -22q23 0 47 13.5t49 32.5q3 2 6 4.5t5 4.5q8 8 13.5 14.5t7.5 9.5v1zM375 652h29q0 -10 -4 -23t-12 -27q-2 -4 -4.5 -7.5l-5.5 -7.5
q-13 -16 -32.5 -28.5t-47.5 -12.5q-17 0 -29.5 3t-23.5 8q-9 4 -18.5 9t-21.5 10l-5 2.5t-6 2.5q-4 2 -9 4t-10 3l-10 2t-9 1q-20 0 -33 -13.5t-20 -31.5l-29 1q8 43 35.5 71t73.5 28q17 0 33 -6t31 -13q3 -2 6 -3.5t6 -2.5t6.5 -3t6.5 -3q5 -3 10 -5l10 -4q6 -2 12 -3.5
t11 -1.5h2.5h1.5q24 3 34.5 13.5t18.5 29.5q1 2 1.5 3.5t1.5 3.5v1z" />
    <glyph glyph-name="aring" unicode="&#xe5;" horiz-adv-x="500" 
d="M225 270l99 18q1 58 -29.5 92.5t-96.5 34.5q-32 0 -46 -4t-24 -17q-2 -3 -4 -6.5t-4 -8.5q-3 -4 -5 -8.5t-4 -9.5l-13 -30l-26 7v65l53 32q32 19 62 26t54 7q94 0 128.5 -45.5t34.5 -153.5v-182q0 -13 1 -24.5t2 -19.5q2 -7 8.5 -10.5t16.5 -4.5l39 -1v-30
q-6 0 -12.5 0.5t-12.5 0.5q-12 1 -24.5 1.5t-25.5 0.5q-10 0 -19.5 -0.5t-18.5 -0.5q-4 0 -7 -0.5t-6 -0.5q-7 0 -13 -0.5t-13 -0.5l5 85l-124 -86q-5 -4 -15.5 -5.5t-22.5 -2.5h-4h-4q-51 0 -86.5 29.5t-35.5 90.5q0 79 53 111t117 46l11.5 2l11.5 2v1zM324 124v132
l-33.5 -6l-32.5 -6q-20 -4 -39.5 -10t-40.5 -14q-22 -9 -37.5 -30t-20.5 -45q-1 -5 -1.5 -9.5t-0.5 -9.5q0 -38 24 -60t54 -22q23 0 47 13.5t49 32.5q3 2 6 4.5t5 4.5q8 8 13.5 14.5t7.5 9.5v1zM239 716q41 -1 70.5 -30t29.5 -70v0v0v-1v0q1 -41 -29 -70.5t-71 -29.5
t-70.5 29t-29.5 70v0v1v0v0q-1 41 29 70.5t71 29.5v1zM239 680q-28 -1 -45 -18.5t-17 -46.5t17 -46.5t45 -17.5t45 17.5t17 46.5t-17 46.5t-45 17.5v1z" />
    <glyph glyph-name="ccedilla" unicode="&#xe7;" horiz-adv-x="444" 
d="M197 -108l42 98h34l-25 -65q7 2 14.5 3t14.5 1q33 0 58 -17.5t25 -52.5q0 -40 -28.5 -58.5t-62.5 -23.5q-8 -1 -16 -1.5t-15 -0.5q-13 0 -23.5 1t-19.5 3t-19 5l-24 7l14 31q2 -1 4 -1.5t4 -0.5q6 -2 12.5 -3.5t12.5 -2.5l14.5 -2t13.5 -1q26 0 42 8.5t16 37.5
q0 16 -11 25t-24 11h-2.5h-2.5q-7 0 -13 -1l-12 -2l-8 -2l-8 -2l-7 6v0zM399 311h-28l-7 61l-0.5 0.5t-0.5 1.5q-7 10 -25 19.5t-38 15.5q-11 3 -21 5t-19 2h-10t-10 -1q-47 -4 -86.5 -38.5t-39.5 -123.5q0 -118 57 -170t130 -52q10 0 20 1.5t21 3.5q16 4 32 10t29 14
l10 -14l-21 -32q-2 -4 -9 -8t-18 -7q-19 -7 -48 -13t-64 -6q-89 0 -158 59t-69 171q0 64 23.5 109.5t52.5 69.5q2 2 4.5 4t5.5 4l8 6t9 6l17.5 10.5t19.5 10.5l16 8t15 7q23 10 47 16.5t49 6.5q38 0 64.5 -9t44.5 -19q3 -2 5.5 -3.5t5.5 -3.5q-5 -18 -8.5 -43t-4.5 -52
q-1 -7 -1 -14v-14v1z" />
    <glyph glyph-name="eacute" unicode="&#xe9;" horiz-adv-x="479" 
d="M258 469q82 -1 136 -50t54 -134v-20.5t-2 -21.5q-22 -4 -45 -6.5t-45 -4.5l-45.5 -2t-45.5 -1l-146 1q0 -89 44.5 -143.5t136.5 -54.5q35 0 63.5 14t55.5 30l3 1.5t2 1.5l13 -9l-20 -34q-2 -5 -14 -12t-29 -16q-17 -7 -37.5 -13.5t-41.5 -10.5q-10 -2 -19.5 -3t-18.5 -1
q-113 0 -172 64.5t-59 165.5q0 73 19 118.5t53 72.5q14 11 30 22t32 18q14 7 27.5 12t26.5 9q11 3 21.5 4.5t22.5 1.5v1zM253 436q-55 -1 -94 -40t-38 -115v-6v-6q33 -4 66 -5t64 -1q29 0 56 1l52 2q0 70 -26 119.5t-80 49.5v1zM175 526l138 138q2 1 3.5 2.5l3.5 3.5
l10.5 8.5l10.5 8.5q7 4 13 6.5t12 2.5q16 0 24.5 -10t8.5 -25q0 -14 -9 -23t-20 -16q-3 -2 -5.5 -3.5t-5.5 -3.5l-144 -89h-40v0z" />
    <glyph glyph-name="egrave" unicode="&#xe8;" horiz-adv-x="479" 
d="M258 469q82 -1 136 -50t54 -134v-20.5t-2 -21.5q-22 -4 -45 -6.5t-45 -4.5l-45.5 -2t-45.5 -1l-146 1q0 -89 44.5 -143.5t136.5 -54.5q35 0 63.5 14t55.5 30l3 1.5t2 1.5l13 -9l-20 -34q-2 -5 -14 -12t-29 -16q-17 -7 -37.5 -13.5t-41.5 -10.5q-10 -2 -19.5 -3t-18.5 -1
q-113 0 -172 64.5t-59 165.5q0 73 19 118.5t53 72.5q14 11 30 22t32 18q14 7 27.5 12t26.5 9q11 3 21.5 4.5t22.5 1.5v1zM253 436q-55 -1 -94 -40t-38 -115v-6v-6q33 -4 66 -5t64 -1q29 0 56 1l52 2q0 70 -26 119.5t-80 49.5v1zM288 526l-144 90q-3 1 -5.5 2.5t-5.5 3.5
q-11 7 -20 16t-9 23q0 15 8.5 25t24.5 10q6 0 12 -2.5t13 -6.5l10.5 -8.5l10.5 -8.5l3.5 -3.5l3.5 -3.5l138 -137h-40v0z" />
    <glyph glyph-name="ecircumflex" unicode="&#xea;" horiz-adv-x="479" 
d="M258 469q82 -1 136 -50t54 -134v-20.5t-2 -21.5q-22 -4 -45 -6.5t-45 -4.5l-45.5 -2t-45.5 -1l-146 1q0 -89 44.5 -143.5t136.5 -54.5q35 0 63.5 14t55.5 30l3 1.5t2 1.5l13 -9l-20 -34q-2 -5 -14 -12t-29 -16q-17 -7 -37.5 -13.5t-41.5 -10.5q-10 -2 -19.5 -3t-18.5 -1
q-113 0 -172 64.5t-59 165.5q0 73 19 118.5t53 72.5q14 11 30 22t32 18q14 7 27.5 12t26.5 9q11 3 21.5 4.5t22.5 1.5v1zM253 436q-55 -1 -94 -40t-38 -115v-6v-6q33 -4 66 -5t64 -1q29 0 56 1l52 2q0 70 -26 119.5t-80 49.5v1zM221 697h62l125 -167h-35l-121 103l-121 -103
h-35l125 167v0z" />
    <glyph glyph-name="edieresis" unicode="&#xeb;" horiz-adv-x="479" 
d="M258 469q82 -1 136 -50t54 -134v-20.5t-2 -21.5q-22 -4 -45 -6.5t-45 -4.5l-45.5 -2t-45.5 -1l-146 1q0 -89 44.5 -143.5t136.5 -54.5q35 0 63.5 14t55.5 30l3 1.5t2 1.5l13 -9l-20 -34q-2 -5 -14 -12t-29 -16q-17 -7 -37.5 -13.5t-41.5 -10.5q-10 -2 -19.5 -3t-18.5 -1
q-113 0 -172 64.5t-59 165.5q0 73 19 118.5t53 72.5q14 11 30 22t32 18q14 7 27.5 12t26.5 9q11 3 21.5 4.5t22.5 1.5v1zM253 436q-55 -1 -94 -40t-38 -115v-6v-6q33 -4 66 -5t64 -1q29 0 56 1l52 2q0 70 -26 119.5t-80 49.5v1zM140 657q23 -1 36.5 -14.5t13.5 -36.5
q0 -22 -13.5 -36t-36.5 -14q-22 0 -36 14t-14 36q0 23 14 36.5t36 13.5v1zM339 657q23 -1 36.5 -14.5t13.5 -36.5q0 -22 -13.5 -36t-36.5 -14q-22 0 -36 14t-14 36q0 23 14 36.5t36 13.5v1z" />
    <glyph glyph-name="iacute" unicode="&#xed;" horiz-adv-x="287" 
d="M188 465v-363q0 -21 1 -36t4 -23q3 -7 11 -10t21 -4l46 -2v-30q-9 0 -18.5 0.5t-19.5 0.5q-19 1 -40.5 1.5t-46.5 0.5q-24 0 -46 -0.5t-41 -1.5q-10 0 -19.5 -0.5t-18.5 -0.5v30l46 3q13 0 21 3t11 10q3 8 4 23t1 35v226q0 23 -1.5 39t-5.5 22t-12.5 8.5t-24.5 2.5l-37 1
v28q2 -1 4 -0.5t3 0.5q35 4 67.5 12.5t58.5 18.5q6 2 12 4.5l11 4.5l9 -3v0zM55 526l138 138q2 1 3.5 2.5l3.5 3.5l10.5 8.5l10.5 8.5q7 4 13 6.5t12 2.5q16 0 24.5 -10t8.5 -25q0 -14 -9 -23t-20 -16q-3 -2 -5.5 -3.5t-5.5 -3.5l-144 -89h-40v0z" />
    <glyph glyph-name="igrave" unicode="&#xec;" horiz-adv-x="287" 
d="M188 465v-363q0 -21 1 -36t4 -23q3 -7 11 -10t21 -4l46 -2v-30q-9 0 -18.5 0.5t-19.5 0.5q-19 1 -40.5 1.5t-46.5 0.5q-24 0 -46 -0.5t-41 -1.5q-10 0 -19.5 -0.5t-18.5 -0.5v30l46 3q13 0 21 3t11 10q3 8 4 23t1 35v226q0 23 -1.5 39t-5.5 22t-12.5 8.5t-24.5 2.5l-37 1
v28q2 -1 4 -0.5t3 0.5q35 4 67.5 12.5t58.5 18.5q6 2 12 4.5l11 4.5l9 -3v0zM192 526l-144 90q-3 1 -5.5 2.5t-5.5 3.5q-11 7 -20 16t-9 23q0 15 8.5 25t24.5 10q6 0 12 -2.5t13 -6.5l10.5 -8.5l10.5 -8.5l3.5 -3.5l3.5 -3.5l138 -137h-40v0z" />
    <glyph glyph-name="icircumflex" unicode="&#xee;" horiz-adv-x="287" 
d="M188 465v-363q0 -21 1 -36t4 -23q3 -7 11 -10t21 -4l46 -2v-30q-9 0 -18.5 0.5t-19.5 0.5q-19 1 -40.5 1.5t-46.5 0.5q-24 0 -46 -0.5t-41 -1.5q-10 0 -19.5 -0.5t-18.5 -0.5v30l46 3q13 0 21 3t11 10q3 8 4 23t1 35v226q0 23 -1.5 39t-5.5 22t-12.5 8.5t-24.5 2.5l-37 1
v28q2 -1 4 -0.5t3 0.5q35 4 67.5 12.5t58.5 18.5q6 2 12 4.5l11 4.5l9 -3v0zM113 697h62l125 -167h-35l-121 103l-121 -103h-35l125 167v0z" />
    <glyph glyph-name="idieresis" unicode="&#xef;" horiz-adv-x="287" 
d="M188 465v-363q0 -21 1 -36t4 -23q3 -7 11 -10t21 -4l46 -2v-30q-9 0 -18.5 0.5t-19.5 0.5q-19 1 -40.5 1.5t-46.5 0.5q-24 0 -46 -0.5t-41 -1.5q-10 0 -19.5 -0.5t-18.5 -0.5v30l46 3q13 0 21 3t11 10q3 8 4 23t1 35v226q0 23 -1.5 39t-5.5 22t-12.5 8.5t-24.5 2.5l-37 1
v28q2 -1 4 -0.5t3 0.5q35 4 67.5 12.5t58.5 18.5q6 2 12 4.5l11 4.5l9 -3v0zM44 657q23 -1 36.5 -14.5t13.5 -36.5q0 -22 -13.5 -36t-36.5 -14q-22 0 -35.5 14t-13.5 36q0 23 13.5 36.5t35.5 13.5v1zM243 657q23 -1 36.5 -14.5t13.5 -36.5q0 -22 -13.5 -36t-36.5 -14
q-22 0 -36 14t-14 36q0 23 14 36.5t36 13.5v1z" />
    <glyph glyph-name="ntilde" unicode="&#xf1;" horiz-adv-x="582" 
d="M172 314v-212q0 -21 1 -36t4 -23q3 -7 11 -10t21 -4l45 -2v-30q-9 0 -18 0.5t-19 0.5q-19 1 -40.5 1.5t-46.5 0.5q-24 0 -46 -0.5t-41 -1.5q-10 0 -19 -0.5t-18 -0.5v30l45 3q13 0 21 3t11 10q3 8 4 23t1 35v226q0 23 -1.5 39t-5.5 22t-12.5 8.5t-24.5 2.5l-37 1v28
q2 -1 4 -0.5t3 0.5q35 4 67.5 12.5t58.5 18.5q6 2 12 4.5l11 4.5l9 -3v-85h2l74 64q2 1 4 2.5t4 3.5q14 10 30.5 14t42.5 4q88 0 126.5 -46t38.5 -128v-192q0 -21 1 -36t4 -23q3 -7 11 -10t21 -4l41 -2v-30q-6 0 -12.5 0.5t-13.5 0.5q-10 1 -19.5 1.5t-19.5 0.5h-8.5h-8.5
h-6h-6q-11 0 -22 -0.5t-21 -1.5q-7 0 -13 -0.5t-12 -0.5v284q0 61 -32 93.5t-83 32.5h-1.5h-1.5q-36 -1 -69 -23t-45 -47q-3 -6 -4.5 -12t-1.5 -12v1zM416 652h29q0 -10 -4 -23t-12 -27q-2 -4 -4.5 -7.5l-5.5 -7.5q-13 -16 -32.5 -28.5t-47.5 -12.5q-17 0 -29.5 3t-23.5 8
q-9 4 -18.5 9t-21.5 10l-5 2.5t-6 2.5q-4 2 -9 4t-10 3l-10 2t-9 1q-20 0 -33 -13.5t-20 -31.5l-29 1q8 43 35.5 71t73.5 28q17 0 33 -6t31 -13q3 -2 6 -3.5t6 -2.5t6.5 -3t6.5 -3q5 -3 10 -5l10 -4q6 -2 12 -3.5t11 -1.5h2.5h1.5q24 3 34.5 13.5t18.5 29.5q1 2 1.5 3.5
t1.5 3.5v1z" />
    <glyph glyph-name="oacute" unicode="&#xf3;" horiz-adv-x="546" 
d="M252 -20h-2h-1h-2h-2q-92 0 -152.5 66t-60.5 167q0 113 67 184t188 71q96 0 161.5 -66t65.5 -162q0 -115 -73.5 -187.5t-188.5 -72.5v0zM264 436q-79 -1 -109 -55.5t-30 -124.5q0 -15 1 -31.5t4 -33.5q10 -67 47 -123t114 -56q68 0 99 57t31 127q0 97 -42.5 168
t-114.5 71v1zM185 526l138 138q2 1 3.5 2.5l3.5 3.5l10.5 8.5l10.5 8.5q7 4 13 6.5t12 2.5q16 0 24.5 -10t8.5 -25q0 -14 -9 -23t-20 -16q-3 -2 -5.5 -3.5t-5.5 -3.5l-144 -89h-40v0z" />
    <glyph glyph-name="ograve" unicode="&#xf2;" horiz-adv-x="546" 
d="M252 -20h-2h-1h-2h-2q-92 0 -152.5 66t-60.5 167q0 113 67 184t188 71q96 0 161.5 -66t65.5 -162q0 -115 -73.5 -187.5t-188.5 -72.5v0zM264 436q-79 -1 -109 -55.5t-30 -124.5q0 -15 1 -31.5t4 -33.5q10 -67 47 -123t114 -56q68 0 99 57t31 127q0 97 -42.5 168
t-114.5 71v1zM310 526l-144 90q-3 1 -5.5 2.5t-5.5 3.5q-11 7 -20 16t-9 23q0 15 8.5 25t24.5 10q6 0 12 -2.5t13 -6.5l10.5 -8.5l10.5 -8.5l3.5 -3.5l3.5 -3.5l138 -137h-40v0z" />
    <glyph glyph-name="ocircumflex" unicode="&#xf4;" horiz-adv-x="546" 
d="M252 -20h-2h-1h-2h-2q-92 0 -152.5 66t-60.5 167q0 113 67 184t188 71q96 0 161.5 -66t65.5 -162q0 -115 -73.5 -187.5t-188.5 -72.5v0zM264 436q-79 -1 -109 -55.5t-30 -124.5q0 -15 1 -31.5t4 -33.5q10 -67 47 -123t114 -56q68 0 99 57t31 127q0 97 -42.5 168
t-114.5 71v1zM243 697h62l125 -167h-35l-121 103l-121 -103h-35l125 167v0z" />
    <glyph glyph-name="odieresis" unicode="&#xf6;" horiz-adv-x="546" 
d="M252 -20h-2h-1h-2h-2q-92 0 -152.5 66t-60.5 167q0 113 67 184t188 71q96 0 161.5 -66t65.5 -162q0 -115 -73.5 -187.5t-188.5 -72.5v0zM264 436q-79 -1 -109 -55.5t-30 -124.5q0 -15 1 -31.5t4 -33.5q10 -67 47 -123t114 -56q68 0 99 57t31 127q0 97 -42.5 168
t-114.5 71v1zM174 657q23 -1 36.5 -14.5t13.5 -36.5q0 -22 -13.5 -36t-36.5 -14q-22 0 -36 14t-14 36q0 23 14 36.5t36 13.5v1zM373 657q23 -1 36.5 -14.5t13.5 -36.5q0 -22 -13.5 -36t-36.5 -14q-22 0 -36 14t-14 36q0 23 14 36.5t36 13.5v1z" />
    <glyph glyph-name="otilde" unicode="&#xf5;" horiz-adv-x="546" 
d="M252 -20h-2h-1h-2h-2q-92 0 -152.5 66t-60.5 167q0 113 67 184t188 71q96 0 161.5 -66t65.5 -162q0 -115 -73.5 -187.5t-188.5 -72.5v0zM264 436q-79 -1 -109 -55.5t-30 -124.5q0 -15 1 -31.5t4 -33.5q10 -67 47 -123t114 -56q68 0 99 57t31 127q0 97 -42.5 168
t-114.5 71v1zM410 652h29q0 -10 -4 -23t-12 -27q-2 -4 -4.5 -7.5l-5.5 -7.5q-13 -16 -32.5 -28.5t-47.5 -12.5q-17 0 -29.5 3t-23.5 8q-9 4 -18.5 9t-21.5 10l-5 2.5t-6 2.5q-4 2 -9 4t-10 3l-10 2t-9 1q-20 0 -33 -13.5t-20 -31.5l-29 1q8 43 35.5 71t73.5 28q17 0 33 -6
t31 -13q3 -2 6 -3.5t6 -2.5t6.5 -3t6.5 -3q5 -3 10 -5l10 -4q6 -2 12 -3.5t11 -1.5h2.5h1.5q24 3 34.5 13.5t18.5 29.5q1 2 1.5 3.5t1.5 3.5v1z" />
    <glyph glyph-name="uacute" unicode="&#xfa;" horiz-adv-x="603" 
d="M503 465v-363q0 -21 1 -36t4 -23q3 -7 11 -10t21 -4l41 -2v-30q-6 0 -12.5 0.5t-13.5 0.5q-10 1 -19.5 1.5t-19.5 0.5h-8.5h-8.5q-14 0 -28.5 -0.5t-28.5 -1.5q-7 0 -13.5 -0.5t-13.5 -0.5v3.5t1 3.5l2 39t1 45l-67 -61q-21 -20 -48.5 -29.5t-63.5 -9.5q-96 0 -118 46
t-23 102v10.5v11.5v169q0 23 -1.5 39t-5.5 22t-12.5 8.5t-24.5 2.5l-37 1v28q2 -1 4 -0.5t3 0.5q35 4 67.5 12.5t58.5 18.5q6 2 12 4.5l11 4.5l9 -3v-295q0 -60 20 -91t89 -31q38 0 71 25.5t48 55.5q4 9 6 17.5t2 16.5v164q0 23 -1.5 39t-5.5 22t-12.5 8.5t-24.5 2.5l-37 1
v28q2 -1 4 -0.5t3 0.5q35 4 67.5 12.5t58.5 18.5q6 2 12 4.5l11 4.5l9 -3v0zM237 526l138 138q2 1 3.5 2.5l3.5 3.5l10.5 8.5l10.5 8.5q7 4 13 6.5t12 2.5q16 0 24.5 -10t8.5 -25q0 -14 -9 -23t-20 -16q-3 -2 -5.5 -3.5t-5.5 -3.5l-144 -89h-40v0z" />
    <glyph glyph-name="ugrave" unicode="&#xf9;" horiz-adv-x="603" 
d="M503 465v-363q0 -21 1 -36t4 -23q3 -7 11 -10t21 -4l41 -2v-30q-6 0 -12.5 0.5t-13.5 0.5q-10 1 -19.5 1.5t-19.5 0.5h-8.5h-8.5q-14 0 -28.5 -0.5t-28.5 -1.5q-7 0 -13.5 -0.5t-13.5 -0.5v3.5t1 3.5l2 39t1 45l-67 -61q-21 -20 -48.5 -29.5t-63.5 -9.5q-96 0 -118 46
t-23 102v10.5v11.5v169q0 23 -1.5 39t-5.5 22t-12.5 8.5t-24.5 2.5l-37 1v28q2 -1 4 -0.5t3 0.5q35 4 67.5 12.5t58.5 18.5q6 2 12 4.5l11 4.5l9 -3v-295q0 -60 20 -91t89 -31q38 0 71 25.5t48 55.5q4 9 6 17.5t2 16.5v164q0 23 -1.5 39t-5.5 22t-12.5 8.5t-24.5 2.5l-37 1
v28q2 -1 4 -0.5t3 0.5q35 4 67.5 12.5t58.5 18.5q6 2 12 4.5l11 4.5l9 -3v0zM326 526l-144 90q-3 1 -5.5 2.5t-5.5 3.5q-11 7 -20 16t-9 23q0 15 8.5 25t24.5 10q6 0 12 -2.5t13 -6.5l10.5 -8.5l10.5 -8.5l3.5 -3.5l3.5 -3.5l138 -137h-40v0z" />
    <glyph glyph-name="ucircumflex" unicode="&#xfb;" horiz-adv-x="603" 
d="M503 465v-363q0 -21 1 -36t4 -23q3 -7 11 -10t21 -4l41 -2v-30q-6 0 -12.5 0.5t-13.5 0.5q-10 1 -19.5 1.5t-19.5 0.5h-8.5h-8.5q-14 0 -28.5 -0.5t-28.5 -1.5q-7 0 -13.5 -0.5t-13.5 -0.5v3.5t1 3.5l2 39t1 45l-67 -61q-21 -20 -48.5 -29.5t-63.5 -9.5q-96 0 -118 46
t-23 102v10.5v11.5v169q0 23 -1.5 39t-5.5 22t-12.5 8.5t-24.5 2.5l-37 1v28q2 -1 4 -0.5t3 0.5q35 4 67.5 12.5t58.5 18.5q6 2 12 4.5l11 4.5l9 -3v-295q0 -60 20 -91t89 -31q38 0 71 25.5t48 55.5q4 9 6 17.5t2 16.5v164q0 23 -1.5 39t-5.5 22t-12.5 8.5t-24.5 2.5l-37 1
v28q2 -1 4 -0.5t3 0.5q35 4 67.5 12.5t58.5 18.5q6 2 12 4.5l11 4.5l9 -3v0zM271 697h62l125 -167h-35l-121 103l-121 -103h-35l125 167v0z" />
    <glyph glyph-name="udieresis" unicode="&#xfc;" horiz-adv-x="603" 
d="M503 465v-363q0 -21 1 -36t4 -23q3 -7 11 -10t21 -4l41 -2v-30q-6 0 -12.5 0.5t-13.5 0.5q-10 1 -19.5 1.5t-19.5 0.5h-8.5h-8.5q-14 0 -28.5 -0.5t-28.5 -1.5q-7 0 -13.5 -0.5t-13.5 -0.5v3.5t1 3.5l2 39t1 45l-67 -61q-21 -20 -48.5 -29.5t-63.5 -9.5q-96 0 -118 46
t-23 102v10.5v11.5v169q0 23 -1.5 39t-5.5 22t-12.5 8.5t-24.5 2.5l-37 1v28q2 -1 4 -0.5t3 0.5q35 4 67.5 12.5t58.5 18.5q6 2 12 4.5l11 4.5l9 -3v-295q0 -60 20 -91t89 -31q38 0 71 25.5t48 55.5q4 9 6 17.5t2 16.5v164q0 23 -1.5 39t-5.5 22t-12.5 8.5t-24.5 2.5l-37 1
v28q2 -1 4 -0.5t3 0.5q35 4 67.5 12.5t58.5 18.5q6 2 12 4.5l11 4.5l9 -3v0zM202 657q23 -1 36.5 -14.5t13.5 -36.5q0 -22 -13.5 -36t-36.5 -14q-22 0 -36 14t-14 36q0 23 14 36.5t36 13.5v1zM401 657q23 -1 36.5 -14.5t13.5 -36.5q0 -22 -13.5 -36t-36.5 -14q-22 0 -36 14
t-14 36q0 23 14 36.5t36 13.5v1z" />
    <glyph glyph-name="dagger" unicode="&#x2020;" horiz-adv-x="500" 
d="M154 460h59v52q0 19 -1 38t-3 39l-2 27t-3 28q0 5 -0.5 10.5t-1.5 11.5l-2 23l5 5q4 -1 8 -1.5t8 -0.5q7 -1 14.5 -1.5t14.5 -0.5t14.5 0.5t14.5 1.5q4 0 8 0.5t8 0.5l5 -4l-2 -22q-1 -7 -1.5 -12.5t-0.5 -10.5q-2 -14 -3 -28l-2 -27q-2 -20 -3 -39t-1 -39v-51h59
q16 -1 32 0t32 3q8 0 16 1t16 1l19 2l5 -5l-2 -17.5t-1 -18.5q0 -7 1 -15.5l2 -16.5l-5 -4l-19 1q-8 0 -16 0.5t-16 0.5q-16 2 -32 3t-32 1l-59 1v-78q0 -74 1 -147.5t6 -146.5l2 -25l-5 -5q-3 0 -5.5 0.5t-5.5 0.5q-8 2 -15.5 2.5t-14.5 0.5t-14.5 -0.5t-15.5 -2.5
q-3 0 -5.5 -0.5t-5.5 -0.5l-5 5l2 26q5 72 6 145.5t1 146.5v79h-59l-32 -2t-32 -3q-8 0 -16 -0.5t-16 -1.5h-19l-5 5q2 7 2.5 15.5t0.5 16.5q0 9 -0.5 18t-2.5 16l5 6l19 -1l16 -2t16 -1q16 -2 32 -3t32 -1v1z" />
    <glyph glyph-name="degree" horiz-adv-x="400" 
d="M350 539q0 -63 -44 -107t-106 -44t-106 44t-44 106q-1 62 43.5 106t106.5 44t106 -44t44 -106v1zM310 539q0 44 -32.5 76.5t-78.5 32.5q-45 0 -77.5 -32.5t-31.5 -77.5q0 -46 32 -78t78 -32q45 0 77.5 32t32.5 78v1z" />
    <glyph glyph-name="cent" unicode="&#xa2;" horiz-adv-x="500" 
d="M347 411l-106 -353q5 -4 11 -6.5t11 -5.5q17 -6 33 -8.5t29 -2.5q26 0 49.5 5.5t46.5 14.5q4 2 8.5 4t9.5 4l9 -10l-20 -33q-20 -11 -43.5 -18.5t-47.5 -11.5q-12 -2 -23.5 -3t-23.5 -1q-17 0 -34.5 1t-34.5 4l-28 -92h-41l32 104q-63 28 -93 85t-30 124q0 72 22.5 123.5
t79.5 79.5l80 41q7 2 14.5 4.5t15.5 4.5q15 3 29 3.5t23 0.5l27 93h40l-27 -92q7 -1 15 -2t16 -4q13 -3 26 -8.5t23 -12.5q-3 -19 -5.5 -36.5t-3.5 -34.5q-1 -12 -1.5 -23.5t-0.5 -23.5v-6v-6l-28 1l-9 66q-10 10 -23 17.5t-27 12.5v1zM208 84l101 335q-10 1 -19.5 2.5
t-19.5 1.5q-52 -1 -86 -42t-34 -129v-13.5t1 -13.5q3 -41 16 -79.5t41 -62.5v1z" />
    <glyph glyph-name="sterling" unicode="&#xa3;" horiz-adv-x="500" 
d="M374 360l-4 -48l-90 2l-91 2q-2 -68 -28.5 -130.5t-65.5 -117.5q26 4 51.5 5.5t51.5 1.5t51.5 -0.5t51.5 -1.5q15 -1 30.5 -1.5t31.5 -1.5q10 -1 20.5 -1.5t20.5 -0.5h1.5h1.5q17 0 22.5 10t7.5 27l7 53h26v-148q-10 -10 -20 -15t-20 -5q-51 0 -98.5 4t-90.5 14l-18.5 4
l-18.5 4q-32 6 -64 9.5t-61 5.5l-45 -44h-22v49q7 6 15 11.5t17 10.5q4 3 8 5l8 4t9.5 11t11.5 24q10 27 18.5 73t8.5 110v31q-16 -1 -32 -1.5t-32 -1.5q-8 0 -16 -0.5t-16 -0.5l8 46q11 -1 22 -1.5t22 -0.5q4 0 7.5 -0.5t7.5 -0.5q7 0 14.5 -0.5t14.5 -0.5v107q0 22 5.5 41
t12.5 35q7 17 18 32t27 30q16 14 37.5 29.5t49.5 31.5q27 16 57.5 24.5t61.5 8.5h7.5h7.5q23 -2 45 -7.5t41 -18.5q-4 -18 -6.5 -40.5t-3.5 -45.5v-10v-10v-14.5t1 -15.5l-33 1q0 49 -11.5 74.5t-50.5 35.5l-10 2t-10 1q-5 1 -11 1h-13q-68 0 -97.5 -47t-37.5 -104l-2 -26.5
t-1 -26.5v-88q23 0 45.5 0.5t45.5 1.5t46 1.5t45 1.5v1z" />
    <glyph glyph-name="section" unicode="&#xa7;" horiz-adv-x="500" 
d="M403 521h-31l-5 87q-28 25 -57 36.5t-66 11.5q-55 0 -95 -32t-40 -91q0 -48 44 -71.5t102 -42.5q8 -2 16 -4.5t16 -5.5q67 -21 122.5 -53.5t55.5 -103.5q0 -44 -22.5 -80t-55.5 -62q33 -16 46.5 -44t13.5 -63q0 -5 -0.5 -10.5t-1.5 -11.5q-11 -75 -83 -137.5t-158 -62.5
q-10 0 -19.5 0.5t-19.5 2.5q-34 4 -65.5 15t-55.5 26q3 29 5.5 57t4.5 56q0 11 1 22t1 22h32l5 -90q28 -32 61 -45.5t84 -13.5q56 0 101 29.5t45 91.5q0 56 -49.5 82.5t-111.5 46.5q-5 2 -9.5 3.5t-8.5 2.5q-1 0 -1.5 0.5t-1.5 0.5q-66 21 -121 52t-55 102v3.5v2.5
q2 39 26 74t57 57q-25 17 -41.5 44.5t-16.5 58.5q0 87 67 155.5t160 68.5q12 0 23.5 -0.5t22.5 -2.5q23 -3 46.5 -11t45.5 -22q-3 -23 -6.5 -52.5t-4.5 -60.5q-1 -10 -1.5 -19.5t-0.5 -19.5v1zM135 369q-22 -20 -32.5 -41t-10.5 -50q0 -34 33 -58.5t77 -41.5q10 -4 20 -7.5
t20 -6.5q35 -12 68.5 -22t54.5 -20q15 23 24.5 45t9.5 44q0 40 -26.5 62.5t-66.5 38.5q-19 7 -39.5 13.5t-41.5 12.5l-0.5 0.5t-1.5 0.5q-23 6 -45.5 13t-42.5 16v1z" />
    <glyph glyph-name="bullet" horiz-adv-x="606" 
d="M131 344q0 70 51 120.5t121 50.5q71 0 121.5 -50.5t50.5 -121.5q0 -70 -50.5 -121t-121.5 -51q-70 0 -121 51t-51 121v1z" />
    <glyph glyph-name="paragraph" unicode="&#xb6;" horiz-adv-x="628" 
d="M589 694v-30l-32 -3q-36 -5 -49.5 -19.5t-13.5 -68.5v-600q0 -26 2.5 -46t7.5 -27q5 -8 14.5 -12t28.5 -5l42 -3v-30q-12 0 -25.5 0.5t-28.5 0.5q-31 1 -67.5 1.5t-80.5 0.5q-45 0 -82.5 -0.5t-67.5 -1.5q-15 0 -28 -0.5t-24 -0.5v30l42 3q19 1 28.5 5t14.5 12
q5 7 7.5 27t2.5 46v372q-18 -1 -37.5 2t-39.5 9q-62 19 -113 65t-51 120q0 60 45.5 106.5t139.5 45.5h8.5h8.5q44 -2 87.5 -3.5t87.5 -1.5t87.5 1.5t85.5 3.5v1zM421 655h-68v-775h68v775v0zM280 382v273h-6.5h-7.5q-7 0 -15 -1t-15 -3q-33 -9 -59.5 -40t-26.5 -90
q0 -55 39 -93t91 -47v1z" />
    <glyph glyph-name="germandbls" unicode="&#xdf;" horiz-adv-x="556" 
d="M96 102v283h-69v14l69 35v66q0 30 9.5 53t20.5 41l8 12t8 11q15 23 34 40t38 30q13 9 29.5 17t34.5 14q16 5 32.5 8.5t28.5 3.5q74 0 115.5 -40t41.5 -113q0 -22 -4.5 -49.5t-12.5 -56.5q-5 -21 -12 -41.5t-15 -39.5q-8 5 -15.5 9t-14.5 6q-10 4 -20.5 6t-24.5 2
q-22 0 -34.5 -11.5t-14.5 -25.5v-2.5v-2.5q0 -23 19.5 -40t43.5 -30l25.5 -13.5l21.5 -11.5q32 -19 56.5 -45.5t24.5 -70.5q0 -9 -1.5 -21.5t-5.5 -25.5q-5 -15 -12 -29.5t-18 -22.5l-58 -43q-19 -15 -38.5 -21t-36.5 -6q-23 0 -47 4t-50 15l-1 -13q-9 0 -18.5 0.5
t-19.5 0.5q-19 1 -37.5 1.5t-38.5 0.5q-19 0 -38 -0.5t-38 -1.5q-10 0 -19 -0.5t-19 -0.5v30l36 3q13 0 21 3t11 10q3 8 4 23t1 35v1zM180 466v-359q0 -50 12 -65.5t34 -15.5l28 1l21 85h27v-46q6 -7 11.5 -11l10.5 -8q12 -7 24.5 -10.5t29.5 -3.5q29 0 52.5 21t23.5 51
q0 49 -29 73.5t-64 42.5q-1 0 -1.5 0.5t-1.5 0.5q-34 18 -62 39.5t-28 62.5v7.5t1 7.5q1 12 5.5 23t12.5 20l39 44q10 10 23.5 17t26.5 10q15 4 29 5.5t24 1.5q1 3 1.5 5.5t0.5 5.5l6 34.5t3 34.5q0 61 -32 103t-98 42q-60 0 -95 -41.5t-35 -178.5v1z" />
    <glyph glyph-name="registered" unicode="&#xae;" horiz-adv-x="747" 
d="M371 706q151 -1 258 -106.5t107 -256.5q0 -150 -107 -255.5t-257 -105.5q-148 0 -254.5 106t-106.5 254q0 149 106 256t254 107v1zM371 662q-130 -1 -223 -95t-93 -225q0 -130 93.5 -223.5t223.5 -93.5q131 0 225.5 93t94.5 225q0 133 -94.5 225.5t-226.5 92.5v1z
M205 554h156q9 -1 17.5 -1t17.5 -1q45 -3 82.5 -22.5t37.5 -75.5q0 -48 -34 -73.5t-77 -30.5v-1q24 -4 41 -23.5t29 -42.5q5 -10 9.5 -20t7.5 -18l5 -12t7 -15q3 -7 7 -14t8 -13q1 -2 2.5 -3.5l2.5 -2.5q8 -7 17 -10t22 -3v-15h-27q-2 -1 -3.5 -1h-3.5h-9h-9
q-10 1 -19.5 3.5t-17.5 8.5t-14.5 17.5t-12.5 23.5q-5 10 -8.5 19t-6.5 16l-7 17l-8 20q-6 13 -12.5 25t-13.5 19q-10 10 -22 12t-25 2h-8.5h-8.5l-18 1v-129q0 -20 4.5 -28.5t23.5 -9.5h21v-16h-152v16h16q19 -1 25.5 4.5t6.5 25.5v304q0 19 -9 23t-23 5l-17 2v17v0z
M309 492v-132h27q47 -1 85.5 15.5t38.5 73.5q0 44 -26 64.5t-68 20.5l-29 1q-21 -1 -24.5 -12t-3.5 -28v-2v-2v1z" />
    <glyph glyph-name="copyright" unicode="&#xa9;" horiz-adv-x="747" 
d="M371 706q151 -1 258 -106.5t107 -256.5q0 -150 -107 -255.5t-257 -105.5q-148 0 -254.5 106t-106.5 254q0 149 106 256t254 107v1zM371 662q-130 -1 -223 -95t-93 -225q0 -130 93.5 -223.5t223.5 -93.5q131 0 225.5 93t94.5 225q0 133 -94.5 225.5t-226.5 92.5v1z
M527 522v-107h-26q-1 49 -28 77.5t-80 28.5q-74 0 -110.5 -52.5t-36.5 -120.5q0 -7 0.5 -13.5t1.5 -13.5q6 -58 43 -107t102 -49q41 0 73.5 20t49.5 57l21 -8q-17 -45 -58.5 -70t-88.5 -29q-4 -1 -8 -1h-8q-89 0 -142.5 58.5t-53.5 146.5q0 93 57 150.5t151 57.5q12 0 24 -1
l24 -2q24 -4 47.5 -9.5t45.5 -13.5v1z" />
    <glyph glyph-name="trademark" unicode="&#x2122;" horiz-adv-x="979" 
d="M181 349v316h-41q-43 -1 -60 -15t-17 -58l-23 1v96h338v-96h-23q0 43 -16.5 57t-60.5 14l-41 1v-316v-5.5v-5.5v-2v-2q0 -7 2 -14t9 -10q6 -3 14.5 -4t18.5 -2h10h9v-19h-182v20q5 -1 9.5 -1h9.5q10 1 18.5 2t14.5 4t8 9t3 13v3.5v3.5v4.5v4.5v1zM832 351v298h-2
l-150 -364h-8l-152 364h1h-2v-311q0 -20 10.5 -26t37.5 -8v-19h-121v20q27 1 37.5 7t10.5 25v297q0 25 -7 30.5t-19 5.5l-14 1v18h109l129 -308l132 308h112v-18h-21q-10 -1 -18.5 -4.5t-8.5 -16.5v-299q0 -26 6 -36.5t34 -10.5l11 1v-20h-158v20h11q28 -1 34 9.5t6 35.5v1z
" />
    <glyph glyph-name="acute" unicode="&#xb4;" horiz-adv-x="333" 
d="M78 506l138 138q2 1 3.5 2.5l3.5 3.5l10.5 8.5l10.5 8.5q7 4 13 6.5t12 2.5q16 0 24.5 -10t8.5 -25q0 -14 -9 -23t-20 -16q-3 -2 -5.5 -3.5t-5.5 -3.5l-144 -89h-40v0z" />
    <glyph glyph-name="dieresis" unicode="&#xa8;" horiz-adv-x="333" 
d="M67 637q23 -1 36.5 -14.5t13.5 -36.5q0 -22 -13.5 -36t-36.5 -14q-22 0 -36 14t-14 36q0 23 14 36.5t36 13.5v1zM266 637q23 -1 36.5 -14.5t13.5 -36.5q0 -22 -13.5 -36t-36.5 -14q-22 0 -36 14t-14 36q0 23 14 36.5t36 13.5v1z" />
    <glyph glyph-name="AE" unicode="&#x2260;" 
 />
    <glyph glyph-name="Oslash" unicode="&#xc6;" horiz-adv-x="944" 
d="M76 87l289 512q1 1 2.5 3.5t2.5 5.5q2 4 4 7.5t4 7.5l4 12t2 12q0 5 -16.5 7.5t-37.5 3.5l-44 4v30q34 -1 62 -1.5t51 -0.5q46 -1 76 -1.5t52 -0.5h16.5h16.5q24 0 48.5 0.5t47.5 1.5q31 0 58.5 0.5t48.5 0.5q34 0 67 -0.5t62 -2.5q-6 -23 -9.5 -49t-4.5 -53
q-1 -13 -1.5 -25.5t-0.5 -24.5l-35 1v65q0 9 -1.5 16.5t-7.5 9.5q-25 10 -57 14t-65 6q-19 1 -37.5 1h-36.5q-13 0 -27.5 -0.5t-28.5 -2.5l-14 -2t-14 -3v-266q24 -2 52 -3t64 -1q46 0 72 3t34 8q4 3 5.5 9.5t2.5 16.5l5 53h30q0 -11 -0.5 -21t-0.5 -20q-1 -20 -1.5 -38.5
t-0.5 -37.5v-18.5t1 -18.5v-19t1 -18q0 -10 0.5 -19t0.5 -18l-30 1l-5 59q-1 9 -2.5 15.5t-5.5 8.5q-8 6 -34 9t-72 3q-36 0 -64.5 -0.5t-51.5 -2.5v-279q7 -3 14 -4l14 -2q14 -2 28.5 -2.5t27.5 -0.5h24h25q52 1 97 4t56 9t20.5 36.5t14.5 75.5l35 1q-5 -24 -8.5 -50.5
t-5.5 -53.5q-1 -15 -1.5 -30.5t-0.5 -29.5q-11 0 -24.5 -0.5t-29.5 -0.5q-26 -1 -55.5 -1.5t-59.5 -0.5h-14h-14h-18.5h-18.5q-10 1 -19.5 1h-18.5h-8.5h-9.5q-33 1 -65 1.5t-60 0.5q-11 0 -22.5 -0.5t-23.5 -1.5q-6 0 -11.5 -0.5t-11.5 -0.5v23l28 16q17 9 21.5 29t4.5 54
v123q-10 -1 -20.5 -0.5t-20.5 0.5q-5 0 -10 0.5t-10 0.5q-15 0 -30.5 0.5t-30.5 0.5t-30.5 -0.5t-30.5 -0.5q-5 0 -10 -0.5t-10 -0.5q-10 0 -20.5 -0.5t-20.5 -0.5l-64 -113l-16.5 -30.5t-9.5 -23.5q-1 -4 -1.5 -8t-0.5 -9q0 -12 15.5 -19t37.5 -9l36 -2v-30q-6 0 -13.5 0.5
t-15.5 0.5q-15 1 -33.5 1.5t-37.5 0.5h-8h-9q-15 0 -30.5 -0.5t-31.5 -1.5q-11 0 -22.5 -0.5t-22.5 -0.5l-1 30l34 5q3 -1 5.5 0.5t4.5 2.5q9 5 16.5 14t14.5 19q3 5 6 9.5t5 8.5v1zM450 655l-208 -372h220v372h-12v0z" />
    <glyph glyph-name="plusminus" unicode="&#xd8;" horiz-adv-x="833" 
d="M154 67l-91 -85l-33 29l94 88q-40 46 -59.5 109t-19.5 139q0 153 101 257t275 104q78 0 143.5 -21t114.5 -62l86 84l32 -30l-88 -83q38 -44 58 -101.5t20 -128.5q0 -161 -111.5 -273.5t-275.5 -112.5q-9 0 -18.5 0.5t-18.5 0.5q-56 5 -109.5 24t-99.5 61v1zM641 531
l-422 -400q35 -50 87.5 -80t125.5 -30q125 0 186.5 88t61.5 226q0 18 -1 37t-3 38q-4 32 -12.5 62.5t-22.5 57.5v1zM196 167l420 403q-33 42 -83 66t-103 29q-6 0 -12.5 0.5t-12.5 0.5q-130 0 -191.5 -81.5t-61.5 -204.5q0 -57 9.5 -112t34.5 -102v1z" />
    <glyph glyph-name="yen" unicode="&#x221e;" 
 />
    <glyph glyph-name="mu" unicode="&#xb1;" horiz-adv-x="606" 
d="M555 0h-504v56h504v-56v0zM275 339v173h56v-173h224v-56h-224v-170h-56v170h-224v56h224v0z" />
    <glyph glyph-name="ordfeminine" unicode="&#x2264;" 
 />
    <glyph glyph-name="ordmasculine" unicode="&#x2265;" 
 />
    <glyph glyph-name="ae" unicode="&#xa5;" horiz-adv-x="500" 
d="M334 382h122v-39h-139q-1 -2 -1.5 -3.5t-0.5 -3.5q-6 -12 -10.5 -27.5t-4.5 -31.5v-31h156v-39h-156v-87q0 -29 2 -48.5t6 -27.5q4 -7 12 -10.5t24 -4.5l41 -2v-30q-34 1 -64.5 2t-60.5 1q-32 0 -62 -1t-56 -2v30l41 3q16 0 24 3.5t12 10.5q5 8 6.5 27.5t1.5 47.5v88
h-156v39h156v16q0 2 -0.5 6.5t-0.5 9.5q-1 4 -2 7.5t-3 6.5l-21 51h-129v39h111l-75 160l-8.5 17.5l-9.5 19.5q-13 27 -31.5 49t-44.5 22h-2h-2q-1 -1 -2 -1h-2v30l92 21q1 -1 2.5 -0.5t2.5 0.5h2.5h2.5q15 0 26 -10t17 -24q4 -7 9 -20.5l10 -27.5q1 -4 2.5 -8.5t3.5 -8.5
l104 -260l70 163q11 23 20.5 46.5l19.5 47.5l19 47.5l18 47.5l70 1v-15q-10 -14 -20 -29.5l-20 -31.5l-30 -51.5l-29 -53.5l-16 -32t-15 -32l-32 -67v0z" />
    <glyph glyph-name="oslash" unicode="&#xb5;" horiz-adv-x="603" 
d="M99 -236v563q0 23 -1.5 39t-5.5 22t-12.5 8.5t-24.5 2.5l-37 1v28q2 -1 4 -0.5t3 0.5q35 4 67.5 12.5t58.5 18.5q6 2 12 4.5l11 4.5l9 -3v-295q0 -60 20 -91t89 -31q38 0 71 25.5t48 55.5q4 9 6 17.5t2 16.5v164q0 23 -1.5 39t-5.5 22t-12.5 8.5t-24.5 2.5l-37 1v28
q2 -1 4 -0.5t3 0.5q35 4 67.5 12.5t58.5 18.5q6 2 12 4.5l11 4.5l9 -3v-363q0 -21 1 -36t4 -23q3 -7 11 -10t21 -4l41 -2v-30q-6 0 -12.5 0.5t-13.5 0.5q-10 1 -19.5 1.5t-19.5 0.5h-8.5h-8.5q-14 0 -28.5 -0.5t-28.5 -1.5q-7 0 -13.5 -0.5t-13.5 -0.5v3.5t1 3.5l2 39t1 45
l-67 -61q-21 -20 -48.5 -29.5t-63.5 -9.5q-25 0 -47 4.5t-43 14.5l20 -199q0 -4 -4 -8.5t-11 -9.5q-5 -4 -11 -8t-13 -7q-9 -5 -17.5 -8t-14.5 -3v0z" />
    <glyph glyph-name="questiondown" unicode="&#x2202;" 
 />
    <glyph glyph-name="exclamdown" unicode="&#x3a3;" 
 />
    <glyph glyph-name="florin" unicode="&#x220f;" 
 />
    <glyph glyph-name="guillemotleft" unicode="&#x3c0;" 
 />
    <glyph glyph-name="guillemotright" unicode="&#x222b;" 
 />
    <glyph glyph-name="ellipsis" unicode="&#xaa;" horiz-adv-x="333" 
d="M150 590l64 10v0.5v1.5q0 34 -20 54t-62 20q-21 0 -30 -2t-15 -10q-1 -2 -2.5 -4t-2.5 -5q-2 -2 -3 -5t-3 -6l-9 -18l-17 4v39l35 20q21 11 40 15t35 4q54 0 81 -24t27 -71q0 -6 -0.5 -12t-1.5 -12v-101v-5.5v-4.5q0 -8 0.5 -15.5t2.5 -10.5q2 -4 7.5 -6t13.5 -3h20v-17
q-6 -1 -12.5 -0.5t-12.5 0.5t-12 0.5t-12 0.5t-12.5 -0.5t-12.5 -0.5t-12.5 -0.5t-12.5 -0.5l3 52l-81 -52q-3 -3 -10.5 -3.5t-15.5 -0.5h-2h-2q-33 0 -56 17t-23 54q0 47 34.5 66.5t76.5 27.5q4 1 7.5 1.5t7.5 1.5v1zM214 502v79l-24 -4l-23 -4l-24 -6t-24 -8
q-14 -5 -24 -17.5t-13 -26.5q-1 -3 -1.5 -6t-0.5 -6q0 -23 16 -35.5t35 -12.5q15 0 30.5 8t31.5 18q2 2 4.5 3.5t3.5 2.5q5 4 8 8t5 6v1z" />
    <glyph glyph-name="Agrave" unicode="&#xba;" horiz-adv-x="333" 
d="M176 709q62 -1 104.5 -40.5t42.5 -97.5q0 -69 -48 -112.5t-122 -43.5q-61 0 -102 39t-41 101q0 68 43.5 110.5t122.5 42.5v1zM161 689q-52 -1 -71.5 -33.5t-19.5 -74.5q0 -9 0.5 -18.5t2.5 -19.5q7 -41 30 -74.5t71 -33.5q44 0 66.5 34t22.5 76q0 58 -27.5 100.5
t-74.5 42.5v1z" />
    <glyph glyph-name="Atilde" unicode="&#x3a9;" 
 />
    <glyph glyph-name="Otilde" unicode="&#xe6;" horiz-adv-x="758" 
d="M69 399l98 53q2 0 4.5 1.5t5.5 2.5q9 5 24 8.5t39 3.5q44 0 81.5 -17t62.5 -54q35 30 72.5 50.5t85.5 20.5q82 0 136 -49t54 -134v-20.5t-2 -21.5q-22 -4 -45 -6.5t-45 -4.5l-45.5 -2t-45.5 -1l-146 1q0 -89 44.5 -143.5t136.5 -54.5q26 0 49 7.5t45 20.5q8 4 16 9l16 10
l14 -9l-20 -34q-2 -5 -14 -12t-29 -16q-18 -7 -40 -14t-44 -11l-18 -2t-17 -1q-64 0 -116 26t-82 82l-123 -95q-6 -5 -16.5 -8t-21.5 -4q-6 -1 -11 -1h-10q-49 0 -90.5 30.5t-41.5 89.5q0 68 29 93t80 40l19.5 5l26.5 7l38 7t45 6l56 7q-1 60 -25.5 105t-93.5 45
q-7 0 -18 -1.5t-23 -4.5q-15 -4 -28.5 -10.5t-18.5 -14.5q-2 -4 -4.5 -8.5t-4.5 -9.5q-4 -8 -7 -17t-6 -19l-26 7v62v0zM324 117v116q-2 -1 -3.5 -1.5t-3.5 -0.5l-20 -2l-20 -2q-35 -5 -69.5 -13.5t-66.5 -25.5q-7 -7 -12.5 -17.5t-8.5 -22.5q-2 -7 -3 -13.5t-1 -12.5
q0 -37 21.5 -57.5t67.5 -20.5q34 0 64 20t55 52v1zM547 436q-67 -1 -104.5 -43t-37.5 -124q33 -4 66 -5t65 -1q29 0 57 1l56 2v3.5v3.5v3v3q0 65 -31 110.5t-71 45.5v1z" />
    <glyph glyph-name="OE" unicode="&#xf8;" horiz-adv-x="556" 
d="M16 0l67 64q-21 29 -32.5 64t-13.5 72v6.5v6.5q0 111 69 183t186 72q43 0 81 -14.5t68 -40.5l62 61l27 -25l-63 -61q25 -32 38.5 -69t13.5 -79q0 -115 -73.5 -187.5t-188.5 -72.5q-43 0 -80.5 12.5t-70.5 43.5l-62 -59l-28 23v0zM404 327l-238 -232q20 -36 51.5 -59.5
t78.5 -23.5q65 0 97.5 56.5t32.5 127.5q0 14 -1 28t-3 28q-3 19 -7.5 38t-10.5 36v1zM150 130l238 232q-18 31 -50 52t-69 21q-79 0 -109 -54.5t-30 -124.5q0 -15 1 -31t4 -32q2 -17 6 -33t9 -31v1z" />
    <glyph glyph-name="oe" unicode="&#xbf;" horiz-adv-x="444" 
d="M395 -83l-38 -113q-22 -11 -47.5 -20.5t-51.5 -12.5q-7 -1 -13.5 -1.5t-12.5 -0.5q-73 0 -131 39.5t-58 116.5q0 50 32 89.5t70 73.5l44.5 40t36.5 38q10 13 15.5 26t5.5 26q0 14 -5.5 24.5t-12.5 19.5q-1 1 -2 2.5t-2 2.5l21 15q20 -12 32 -31.5t12 -42.5
q0 -27 -16 -52.5t-38 -50.5l-10 -10.5l-10 -11.5l-1.5 -1.5l-1.5 -1.5q-29 -32 -53 -65t-24 -70q0 -47 33.5 -78.5t85.5 -31.5q32 0 56.5 9.5t34.5 32.5l20 48l29 -8v0zM241 353q-23 -1 -40 17t-17 40q0 23 17.5 40.5t39.5 17.5q23 0 41 -17.5t18 -40.5q0 -22 -17.5 -40
t-41.5 -18v1z" />
    <glyph glyph-name="endash" unicode="&#xa1;" horiz-adv-x="278" 
d="M115 -225h-34v25q0 18 1.5 36t3.5 35q0 6 0.5 12t1.5 12q1 12 2.5 24t2.5 24l24 278v25l28 23l10 -5q0 -11 0.5 -21t1.5 -20l26 -304l2 -26.5l2 -26.5t1.5 -26.5t1.5 -26.5l-75 -38v0zM138 353q-23 -1 -40 17t-17 40q0 23 17.5 40.5t39.5 17.5q23 0 41 -17.5t18 -40.5
q0 -22 -17.5 -40t-41.5 -18v1z" />
    <glyph glyph-name="emdash" unicode="&#xac;" 
 />
    <glyph glyph-name="quotedblleft" unicode="&#x221a;" 
 />
    <glyph glyph-name="quotedblright" unicode="&#x192;" horiz-adv-x="500" 
d="M311 364l-72 -348q-3 -16 -7 -32.5t-9 -32.5q-25 -80 -77 -146.5t-146 -66.5q4 17 7.5 36.5t6.5 39.5q0 3 0.5 6.5t0.5 6.5l11 7q8 -9 20 -14.5t25 -5.5q21 0 34.5 13.5t24.5 56.5q4 13 7.5 29l7.5 35l80 416q-27 -2 -54 -3.5t-54 -2.5q0 3 0.5 5.5t1.5 4.5q0 5 1.5 10
t2.5 11l2 10.5l2 11.5q14 -1 27 -1.5t27 -0.5q13 0 26.5 -0.5t26.5 -1.5l6 24.5l6 24.5q11 40 26 78t37 71q29 43 69 71t95 29q-6 -21 -9 -44.5t-5 -47.5l-10 -7q-3 1 -6 4t-7 6q-6 5 -14.5 9t-20.5 4q-28 0 -38 -19t-16 -53l-27 -149h17.5h17.5q5 1 9 1h9q13 0 26 0.5
t26 1.5q-1 -4 -1.5 -7.5t-1.5 -7.5q-2 -11 -3.5 -21.5l-2.5 -17.5q-22 2 -49 3.5t-56 2.5v1z" />
    <glyph glyph-name="quoteleft" unicode="&#x2248;" 
 />
    <glyph glyph-name="quoteright" unicode="&#x2206;" 
 />
    <glyph glyph-name="ydieresis" unicode="&#xab;" horiz-adv-x="500" 
d="M130 248l119 -162l-23 -15l-32 31l-34 33l-110 107v12l16.5 15l16.5 16l33.5 32l32.5 32l77 79l23 -13q-4 -6 -8 -11l-8 -10q-3 -5 -7 -10t-7 -10l-89 -126v0zM331 248l119 -162l-23 -15l-32 31l-34 33l-110 107v12l16.5 15l16.5 16l33.5 32l32.5 32l77 79l23 -13
q-4 -6 -8 -11l-8 -10q-3 -5 -7 -10t-7 -10l-89 -126v0z" />
    <glyph glyph-name="Ydieresis" unicode="&#xbb;" horiz-adv-x="500" 
d="M50 86l119 162l-89 127l-6.5 9t-7.5 10l-8 10l-8 10l23 14l77 -78l33.5 -33l32.5 -32l16.5 -16l16.5 -16v-11l-110 -106q-17 -18 -34 -34t-32 -32l-23 16v0zM251 86l119 162l-89 127l-6.5 9t-7.5 10l-8 10l-8 10l23 14l77 -78l33.5 -33l32.5 -32l16.5 -16l16.5 -16v-11
l-110 -106q-17 -18 -34 -34t-32 -32l-23 16v0z" />
    <glyph glyph-name="fraction" unicode="&#x2026;" horiz-adv-x="1000" 
d="M166 -5q-23 0 -40 17.5t-17 39.5q0 23 17.5 40.5t39.5 17.5q23 0 41 -17.5t18 -40.5q0 -22 -17.5 -39.5t-41.5 -17.5v0zM499 -5q-23 0 -40 17.5t-17 39.5q0 23 17.5 40.5t39.5 17.5q23 0 41 -17.5t18 -40.5q0 -22 -17.5 -39.5t-41.5 -17.5v0zM832 -5q-23 0 -40 17.5
t-17 39.5q0 23 17.5 40.5t39.5 17.5q23 0 41 -17.5t18 -40.5q0 -22 -17.5 -39.5t-41.5 -17.5v0z" />
    <glyph glyph-name="currency" unicode="&#xc0;" horiz-adv-x="778" 
d="M408 700l242 -568l8 -18.5l8 -18.5t8 -17t8 -15q8 -14 17.5 -23t22.5 -11l34 -2v-30q-11 0 -22 0.5t-22 0.5q-22 1 -44 1.5t-45 0.5q-17 0 -38 -0.5t-44 -1.5q-12 0 -24.5 -0.5t-26.5 -0.5v30l47 3q16 0 28.5 5t12.5 14t-5 23.5t-12 30.5q0 1 -0.5 2t-0.5 2q-1 1 -1.5 3
t-1.5 3l-46 116h-288l-28 -67q-3 -7 -7 -18t-9 -23q-1 -3 -2 -5.5t-2 -5.5q-6 -16 -10.5 -31.5t-4.5 -21.5q0 -16 12.5 -21t35.5 -7l37 -2v-30q-12 0 -23 0.5t-22 0.5q-20 1 -37.5 1.5t-32.5 0.5q-19 0 -38.5 -0.5t-38.5 -1.5q-9 0 -18.5 -0.5t-19.5 -0.5v30l37 3
q18 1 32 15t22 33l178 406l14 31l14 32l18 40t17 40q8 18 15 36l14 36l32 1v0zM240 269h253l-126 298l-127 -298v0zM430 737l-144 90q-3 1 -5.5 2.5t-5.5 3.5q-11 7 -20 16t-9 23q0 15 8.5 25t24.5 10q6 0 12 -2.5t13 -6.5l10.5 -8.5l10.5 -8.5l3.5 -3.5l3.5 -3.5l138 -137
h-40v0z" />
    <glyph glyph-name="guilsinglleft" unicode="&#xc3;" horiz-adv-x="778" 
d="M408 700l242 -568l8 -18.5l8 -18.5t8 -17t8 -15q8 -14 17.5 -23t22.5 -11l34 -2v-30q-11 0 -22 0.5t-22 0.5q-22 1 -44 1.5t-45 0.5q-17 0 -38 -0.5t-44 -1.5q-12 0 -24.5 -0.5t-26.5 -0.5v30l47 3q16 0 28.5 5t12.5 14t-5 23.5t-12 30.5q0 1 -0.5 2t-0.5 2q-1 1 -1.5 3
t-1.5 3l-46 116h-288l-28 -67q-3 -7 -7 -18t-9 -23q-1 -3 -2 -5.5t-2 -5.5q-6 -16 -10.5 -31.5t-4.5 -21.5q0 -16 12.5 -21t35.5 -7l37 -2v-30q-12 0 -23 0.5t-22 0.5q-20 1 -37.5 1.5t-32.5 0.5q-19 0 -38.5 -0.5t-38.5 -1.5q-9 0 -18.5 -0.5t-19.5 -0.5v30l37 3
q18 1 32 15t22 33l178 406l14 31l14 32l18 40t17 40q8 18 15 36l14 36l32 1v0zM240 269h253l-126 298l-127 -298v0zM526 871h29q0 -10 -4 -23t-12 -27q-2 -4 -4.5 -7.5l-5.5 -7.5q-13 -16 -32.5 -28.5t-47.5 -12.5q-17 0 -29.5 3t-23.5 8q-9 4 -18.5 9t-21.5 10l-5 2.5
t-6 2.5q-4 2 -9 4t-10 3l-10 2t-9 1q-20 0 -33 -13.5t-20 -31.5l-29 1q8 43 35.5 71t73.5 28q17 0 33 -6t31 -13q3 -2 6 -3.5t6 -2.5t6.5 -3t6.5 -3q5 -3 10 -5l10 -4q6 -2 12 -3.5t11 -1.5h2.5h1.5q24 3 34.5 13.5t18.5 29.5q1 2 1.5 3.5t1.5 3.5v1z" />
    <glyph glyph-name="guilsinglright" unicode="&#xd5;" horiz-adv-x="786" 
d="M377 -20q-152 0 -253.5 97.5t-101.5 265.5q0 155 101 260t275 105q161 0 263.5 -87.5t102.5 -254.5q0 -161 -111.5 -273.5t-275.5 -112.5v0zM382 667q-130 -1 -191.5 -82.5t-61.5 -204.5v-12t1 -13q5 -125 71 -229.5t208 -104.5q125 0 186.5 88t61.5 226q0 149 -67.5 240
t-207.5 91v1zM530 883h29q0 -10 -4 -23t-12 -27q-2 -4 -4.5 -7.5l-5.5 -7.5q-13 -16 -32.5 -28.5t-47.5 -12.5q-17 0 -29.5 3t-23.5 8q-9 4 -18.5 9t-21.5 10l-5 2.5t-6 2.5q-4 2 -9 4t-10 3l-10 2t-9 1q-20 0 -33 -13.5t-20 -31.5l-29 1q8 43 35.5 71t73.5 28q17 0 33 -6
t31 -13q3 -2 6 -3.5t6 -2.5t6.5 -3t6.5 -3q5 -3 10 -5l10 -4q6 -2 12 -3.5t11 -1.5h2.5h1.5q24 3 34.5 13.5t18.5 29.5q1 2 1.5 3.5t1.5 3.5v1z" />
    <glyph glyph-name="fi" unicode="&#x152;" horiz-adv-x="998" 
d="M22 341q0 164 104.5 265.5t267.5 101.5q21 0 42 -2t42 -5l18 -2l18 -2q8 -1 15 -2t13 -2q3 -1 5.5 -1.5t5.5 -0.5l14 -2t14 -1h16.5h16.5q24 0 48.5 0.5t47.5 1.5q31 0 58.5 0.5t48.5 0.5q34 0 67 -0.5t62 -2.5q-6 -23 -9.5 -49t-4.5 -53q-1 -13 -1.5 -25.5t-0.5 -24.5
l-35 1v65q0 9 -1.5 16.5t-7.5 9.5q-21 8 -46.5 12.5t-52.5 5.5q-24 2 -46.5 2.5t-42.5 0.5q-13 0 -27.5 -0.5t-28.5 -2.5l-14 -2t-14 -3v-266q24 -2 51 -3t57 -1q46 0 72 3t34 8q4 3 5.5 9.5t2.5 16.5l5 53h30q0 -11 -0.5 -21t-0.5 -20q-1 -20 -1.5 -38.5t-0.5 -37.5v-18.5
t1 -18.5v-19t1 -18q0 -10 0.5 -19t0.5 -18l-30 1l-5 59q-1 9 -2.5 15.5t-5.5 8.5q-8 6 -34 9t-72 3q-30 0 -57.5 -0.5t-50.5 -2.5v-279q7 -3 14 -4l14 -2q14 -2 28.5 -2.5t27.5 -0.5h29t30 1q46 1 85.5 3.5t49.5 8.5q11 6 20.5 36.5t14.5 75.5l35 1q-5 -24 -8.5 -50.5
t-5.5 -53.5q-1 -15 -1.5 -30.5t-0.5 -29.5q-11 0 -24.5 -0.5t-29.5 -0.5q-26 -1 -55.5 -1.5t-59.5 -0.5h-14h-14h-14.5h-15.5q-7 1 -14 1h-14q-62 -1 -111.5 -4t-91.5 -8q-14 -2 -29.5 -3l-30.5 -2q-10 -1 -20 -1h-20q-156 0 -261 95.5t-105 264.5v1zM519 139v399
q0 22 -0.5 38.5t-2.5 32.5q-1 3 -1.5 5.5t-0.5 5.5q-15 15 -36 24.5t-44 14.5q-13 2 -25.5 3.5t-24.5 1.5q-121 0 -191.5 -76t-70.5 -216q0 -142 68.5 -245.5t201.5 -103.5q10 0 24 2t29 5q18 4 35 9.5t27 10.5q2 1 4 2.5t3 2.5q0 3 0.5 5.5t1.5 5.5q2 16 2.5 33t0.5 39v1z
" />
    <glyph glyph-name="fl" unicode="&#x153;" horiz-adv-x="827" 
d="M617 230h-146q0 -89 44.5 -143.5t136.5 -54.5q26 0 49 7.5t45 20.5q8 4 16 9l16 10l14 -9l-20 -34q-2 -5 -14 -12t-29 -16q-18 -7 -40 -14t-44 -11l-18 -2t-17 -1q-55 0 -96.5 21.5t-78.5 64.5q-38 -43 -82 -64.5t-92 -21.5q-95 0 -162 66t-67 188q0 110 71 172t168 62
q53 0 95 -18.5t79 -57.5q22 21 42.5 35.5t40.5 23.5q19 9 39.5 13t42.5 4q82 0 136 -49t54 -134v-20.5t-2 -21.5q-22 -4 -45 -6.5t-45 -4.5l-45.5 -2t-45.5 -1v1zM251 436q-65 -1 -95.5 -47.5t-30.5 -122.5q0 -109 40.5 -181.5t111.5 -72.5q70 0 98 56.5t28 132.5
q0 16 -1 33t-4 35q-9 62 -42 114t-105 52v1zM615 436q-67 -1 -104.5 -43t-37.5 -124q33 -4 66 -5t65 -1q29 0 57 1l56 2v3.5v3.5v3v3q0 65 -31 110.5t-71 45.5v1z" />
    <glyph glyph-name="daggerdbl" horiz-adv-x="500" 
d="M500 219h-500v58h500v-58v0z" />
    <glyph glyph-name="periodcentered" unicode="&#x2014;" horiz-adv-x="1000" 
d="M1000 219h-1000v58h1000v-58v0z" />
    <glyph glyph-name="quotedblbase" unicode="&#x201c;" horiz-adv-x="500" 
d="M180 685l44 24l15 -10q-33 -52 -53.5 -108.5t-24.5 -115.5q-16 -4 -32.5 -9t-32.5 -11q-8 -2 -16 -4.5t-16 -5.5l-13 14q23 60 56 117t73 108v1zM390 685l44 24l15 -10q-33 -52 -53.5 -108.5t-24.5 -115.5q-16 -4 -32.5 -9t-32.5 -11q-8 -2 -16 -4.5t-16 -5.5l-13 14
q23 60 56 117t73 108v1z" />
    <glyph glyph-name="perthousand" unicode="&#x201d;" horiz-adv-x="500" 
d="M110 470l-44 -24l-15 10q33 50 53.5 107t24.5 115q17 4 33 9t32 11q8 2 16 5t16 5l13 -12q-23 -62 -55.5 -119t-73.5 -108v1zM320 470l-44 -24l-15 10q33 50 53.5 107t24.5 115q17 4 33 9t32 11q8 2 16 5t16 5l13 -12q-23 -62 -55.5 -119t-73.5 -108v1z" />
    <glyph glyph-name="Acircumflex" unicode="&#x2018;" horiz-adv-x="278" 
d="M174 685l44 24l15 -10q-33 -52 -53.5 -108.5t-24.5 -115.5q-16 -4 -32.5 -9t-32.5 -11q-8 -2 -16 -4.5t-16 -5.5l-13 14q23 60 56 117t73 108v1z" />
    <glyph glyph-name="Ecircumflex" unicode="&#x2019;" horiz-adv-x="278" 
d="M104 470l-44 -24l-15 10q33 50 53.5 107t24.5 115q17 4 33 9t32 11q8 2 16 5t16 5l13 -12q-23 -62 -55.5 -119t-73.5 -108v1z" />
    <glyph glyph-name="Aacute" unicode="&#xf7;" 
 />
    <glyph glyph-name="Edieresis" unicode="&#x25ca;" 
 />
    <glyph glyph-name="Egrave" unicode="&#xff;" horiz-adv-x="556" 
d="M297 86l119 292q3 7 4.5 13t1.5 10q0 14 -11 20t-31 7l-26 3v28q8 -1 16 -1.5t16 -0.5q4 0 8 -0.5t8 -0.5q11 0 23 -0.5t24 -0.5t24 0.5t24 0.5q3 0 7 0.5t8 0.5q8 0 16 0.5t16 0.5v-27l-28 -2q-2 -1 -4 -1.5t-4 -1.5q-16 -6 -33.5 -33t-42.5 -86l-203 -467
q-24 -55 -56.5 -89t-95.5 -34q-4 0 -8.5 0.5t-8.5 1.5q-8 2 -15.5 5t-13.5 6q-1 0 -2 0.5t-2 1.5l24 75h13q5 -5 12.5 -10t15.5 -8q6 -2 11.5 -3.5t10.5 -1.5v0h1v0v0q30 2 51 27t36 54q7 13 12.5 26t9.5 24l23 61l-10.5 28l-11.5 28l-10 25.5l-10 24.5q-3 9 -6.5 17.5
l-7.5 17.5l-109 263q-2 5 -4.5 9.5t-4.5 8.5q-10 17 -20 23t-23 7l-18 3v28q10 -1 19.5 -1.5t19.5 -0.5q5 0 9.5 -0.5t9.5 -0.5q14 0 28.5 -0.5t29.5 -0.5t29.5 0.5t28.5 0.5q5 0 9.5 0.5t9.5 0.5q10 0 19.5 0.5t19.5 0.5v-27l-38 -2q-14 -2 -24 -7t-9 -21q0 -7 2.5 -16.5
t6.5 -21.5l64 -167q11 -29 23 -56.5t28 -54.5v1zM179 657q23 -1 36.5 -14.5t13.5 -36.5q0 -22 -13.5 -36t-36.5 -14q-22 0 -36 14t-14 36q0 23 14 36.5t36 13.5v1zM378 657q23 -1 36.5 -14.5t13.5 -36.5q0 -22 -13.5 -36t-36.5 -14q-22 0 -36 14t-14 36q0 23 14 36.5
t36 13.5v1z" />
    <glyph glyph-name="Iacute" unicode="&#x178;" horiz-adv-x="667" 
d="M220 602l143 -261l103 163q30 46 56.5 93.5l51.5 95.5l80 1v-15l-42 -52l-45 -58l-22.5 -30.5l-22.5 -30.5l-67 -101t-47 -84q-9 -19 -11.5 -38t-2.5 -37v-128q0 -29 2 -48.5t7 -27.5q5 -7 14.5 -10.5t27.5 -4.5l48 -2v-30l-74.5 2t-70.5 1h-20.5h-21.5q-26 -1 -52 -1.5
t-54 -1.5v30l48 3q18 0 28 3.5t14 10.5q5 8 7 27.5t2 47.5v143q0 11 -2 21.5t-7 17.5l-124 217q-39 67 -74 97t-54 32l-29 4v29l115 24q1 -1 1.5 -1t1.5 1h1.5h0.5q11 -1 20 -8.5t18 -18.5q2 -3 4.5 -5.5t4.5 -5.5q3 -3 5 -6t5 -7q9 -12 17.5 -25t16.5 -27v1zM258 868
q23 -1 36.5 -14.5t13.5 -36.5q0 -22 -13.5 -36t-36.5 -14q-22 0 -36 14t-14 36q0 23 14 36.5t36 13.5v1zM457 868q23 -1 36.5 -14.5t13.5 -36.5q0 -22 -13.5 -36t-36.5 -14q-22 0 -36 14t-14 36q0 23 14 36.5t36 13.5v1z" />
    <glyph glyph-name="Icircumflex" unicode="&#x2215;" horiz-adv-x="167" 
d="M-114 0h-52l451 689h52l-451 -689v0z" />
    <glyph glyph-name="Idieresis" unicode="&#xa4;" horiz-adv-x="500" 
d="M77 531l48 -48q20 16 50 27t62 13h6.5h6.5h6.5h6.5q32 -2 62 -13t50 -28l48 49l47 -47l-49 -49q22 -23 32 -56t10 -68t-10.5 -66.5t-31.5 -55.5l49 -48l-45 -45l-48 48q-23 -22 -56 -32.5t-71 -10.5q-37 0 -70.5 10.5t-56.5 31.5l-48 -47l-45 45l49 49q-21 23 -31.5 54.5
t-10.5 66.5t10 68t32 55l-49 50l47 47v0zM250 465q-63 -1 -108.5 -45.5t-45.5 -108.5q0 -62 45.5 -106.5t108.5 -44.5t108.5 44.5t45.5 106.5q0 64 -45.5 108.5t-108.5 44.5v1z" />
    <glyph glyph-name="Igrave" unicode="&#x2039;" horiz-adv-x="331" 
d="M146 248l119 -162l-23 -15l-32 31l-34 33l-110 107v12l16.5 15l16.5 16l33.5 32l32.5 32l77 79l23 -13q-4 -6 -8 -11l-8 -10q-3 -5 -7 -10t-7 -10l-89 -126v0z" />
    <glyph glyph-name="Oacute" unicode="&#x203a;" horiz-adv-x="331" 
d="M66 86l119 162l-89 127l-6.5 9t-7.5 10l-8 10l-8 10l23 14l77 -78l33.5 -33l32.5 -32l16.5 -16l16.5 -16v-11l-110 -106q-17 -18 -34 -34t-32 -32l-23 16v0z" />
    <glyph glyph-name="Ocircumflex" unicode="&#xf001;" horiz-adv-x="605" 
d="M341 717v-77l-12 -6q-13 12 -30 19.5t-36 7.5q-46 0 -59.5 -28.5t-13.5 -114.5v-84l121 4l-7 -53h-114v-283q0 -21 1 -36t4 -23q3 -7 11 -10t21 -4l52 -2v-30h-11.5t-11.5 1h-9.5h-9.5q-21 1 -42.5 1.5t-46.5 0.5q-24 0 -46 -0.5t-41 -1.5q-10 0 -19.5 -0.5t-18.5 -0.5
v30l46 3q13 0 21 3t11 10q3 8 4 23t1 35v284l-69 -4v22l69 31v42q0 49 10 83.5t32 59.5l58 67q11 12 23.5 20t26.5 13q10 4 20.5 6t19.5 2q4 0 7.5 -0.5t7.5 -1.5q8 -1 15.5 -3.5t14.5 -5.5v1zM504 462v-360q0 -21 1 -36t4 -23q3 -7 11 -10t21 -4l46 -2v-30q-9 0 -18.5 0.5
t-19.5 0.5q-19 1 -40.5 1.5t-46.5 0.5q-24 0 -46 -0.5t-41 -1.5q-10 0 -19.5 -0.5t-18.5 -0.5v30l46 3q13 0 21 3t11 10q3 8 4 23t1 35v224q0 23 -1.5 39t-5.5 22t-12.5 8.5t-24.5 2.5l-37 1v28q2 -1 4 -0.5t3 0.5q43 5 82.5 16.5t66.5 25.5l9 -6v0zM466 687q22 -1 39 -18
t17 -39t-17 -38.5t-39 -16.5t-38.5 16.5t-16.5 38.5t16.5 39t38.5 17v1z" />
    <glyph glyph-name="Ograve" unicode="&#xf002;" horiz-adv-x="608" 
d="M423 102v504v7.5t-1 9.5q-1 14 -6.5 25.5t-17.5 11.5l-42 1v-21l-22 -6q-17 12 -34.5 19.5t-36.5 7.5q-46 0 -59.5 -28.5t-13.5 -114.5v-84l131 4l-7 -53h-124v-283q0 -21 1 -36t4 -23q3 -7 11 -10t21 -4l52 -2v-30h-11.5t-11.5 1h-9.5h-9.5q-21 1 -42.5 1.5t-46.5 0.5
q-24 0 -46 -0.5t-41 -1.5q-10 0 -19.5 -0.5t-18.5 -0.5v30l46 3q13 0 21 3t11 10q3 8 4 23t1 35v284l-69 -4v22l69 31v42q0 49 10 83.5t32 59.5l58 67q11 12 23.5 20t26.5 13q10 4 20.5 6t19.5 2q11 0 24.5 -3l35.5 -8v-27q24 4 54 10.5t61 16.5q7 2 13.5 4.5t13.5 4.5l9 -9
v-614q0 -21 1 -36t4 -23q3 -7 11 -10t21 -4l46 -2v-30q-9 0 -18.5 0.5t-19.5 0.5q-19 1 -40.5 1.5t-46.5 0.5q-24 0 -46 -0.5t-41 -1.5q-10 0 -19.5 -0.5t-18.5 -0.5v30l46 3q13 0 21 3t11 10q3 8 4 23t1 35v1z" />
    <glyph glyph-name="Uacute" unicode="&#x2021;" horiz-adv-x="500" 
d="M138 483h75v47q0 29 -3 59l-6 60q0 5 -0.5 10t-1.5 10l-2 20l5 5q4 -1 8 -1.5t8 -0.5q7 -1 14.5 -1.5t14.5 -0.5t14.5 0.5t14.5 1.5q4 0 8 0.5t8 0.5l5 -4l-2 -19q-1 -6 -1.5 -11t-0.5 -10l-6 -60t-3 -60v-46h75q15 -1 30.5 0t31.5 3q9 1 18.5 1.5t18.5 1.5l5 -4
l-2 -16.5t-1 -17.5v-8.5t1 -8.5q0 -4 0.5 -8.5t1.5 -8.5l-5 -4q-9 0 -18.5 0.5t-18.5 1.5q-16 2 -31.5 3t-30.5 1l-75 1q0 -26 0.5 -50.5t1.5 -48.5q1 -25 2.5 -49.5t3.5 -49.5q-4 -49 -6 -98.5t-2 -99.5l75 1q15 -1 30.5 0t31.5 3q9 1 18.5 1.5t18.5 1.5l5 -4l-2 -16.5
t-1 -16.5v-8.5t1 -8.5q0 -4 0.5 -8.5t1.5 -8.5l-5 -5q-9 1 -18.5 1.5t-18.5 1.5q-16 2 -31.5 3t-30.5 1h-75v-47q0 -30 3 -60l6 -60q0 -5 0.5 -10t1.5 -10l2 -19l-5 -5q-4 0 -8 0.5t-8 0.5q-7 1 -14.5 1.5t-14.5 0.5t-14.5 -0.5t-14.5 -1.5q-4 0 -8 -0.5t-8 -0.5l-5 5l2 19
q1 5 1.5 10t0.5 10l6 60t3 60v47h-75q-15 0 -30.5 -1t-31.5 -3q-9 -1 -18.5 -1.5t-18.5 -1.5l-5 5q2 9 2.5 18t0.5 17q0 7 -0.5 15.5t-2.5 15.5l5 6q9 -2 18.5 -2.5t18.5 -1.5q16 -2 31.5 -3t30.5 -1l75 1q0 49 -2 98.5t-6 98.5q2 25 3.5 49.5t2.5 49.5q1 24 1.5 48.5
t0.5 49.5l-75 1l-30.5 -2t-31.5 -3q-9 -1 -18.5 -1.5t-18.5 -1.5l-5 6q2 8 2.5 17t0.5 17t-0.5 16.5t-2.5 15.5l5 6q9 -2 18.5 -2.5t18.5 -1.5q16 -2 31.5 -3t30.5 -1v1z" />
    <glyph glyph-name="Ucircumflex" unicode="&#x2219;" 
d="M124 203q-23 -1 -40 17t-17 40q0 23 17.5 40.5t39.5 17.5q23 0 41 -17.5t18 -40.5q0 -22 -17.5 -40t-41.5 -18v1z" />
    <glyph glyph-name="Ugrave" unicode="&#x201a;" 
 />
    <glyph glyph-name="dotlessi" unicode="&#x201e;" horiz-adv-x="500" 
d="M226 110l13 -13q-23 -62 -55.5 -118.5t-73.5 -107.5l-44 -24l-15 10q33 51 53.5 107.5t24.5 114.5q17 4 33 9t32 11q8 2 16 5t16 5v1zM436 110l13 -13q-23 -62 -55.5 -118.5t-73.5 -107.5l-44 -24l-15 10q33 51 53.5 107.5t24.5 114.5q17 4 33 9t32 11q8 2 16 5t16 5v1z
" />
    <glyph glyph-name="circumflex" unicode="&#x2030;" horiz-adv-x="1144" 
d="M238 -20h-40l391 729h40l-391 -729v0zM563 309q57 -1 96 -43t39 -104q0 -68 -39.5 -115t-104.5 -47q-57 0 -95 41t-38 106q0 68 39 114.5t103 46.5v1zM561 286q-35 -1 -51.5 -29t-21.5 -61q-2 -12 -2.5 -23t-0.5 -21t0.5 -20.5t1.5 -21.5q4 -33 19 -60.5t50 -27.5
q34 0 51 27.5t23 60.5q2 11 3 22t1 21t-0.5 21t-2.5 22q-4 33 -19.5 61t-50.5 28v1zM886 309q57 -1 96 -43t39 -104q0 -68 -39.5 -115t-104.5 -47q-57 0 -95 41t-38 106q0 68 39 114.5t103 46.5v1zM884 286q-35 -1 -51.5 -29t-21.5 -61q-2 -12 -2.5 -23t-0.5 -21t0.5 -20.5
t1.5 -21.5q4 -33 19 -60.5t50 -27.5q34 0 51 27.5t23 60.5q2 11 3 22t1 21t-0.5 21t-2.5 22q-4 33 -19.5 61t-50.5 28v1zM265 689q57 -1 96 -43t39 -104q0 -68 -39.5 -115.5t-104.5 -47.5q-57 0 -95 41.5t-38 106.5q0 68 39 114.5t103 46.5v1zM263 666q-35 -1 -51.5 -29
t-21.5 -61q-2 -12 -2.5 -23t-0.5 -21t0.5 -20.5t1.5 -21.5q4 -33 19 -60.5t50 -27.5q34 0 51 27.5t23 60.5q2 11 3 22t1 21t-0.5 21t-2.5 22q-4 33 -19.5 61t-50.5 28v1z" />
    <glyph glyph-name="tilde" unicode="&#xc2;" horiz-adv-x="778" 
d="M408 700l242 -568l8 -18.5l8 -18.5t8 -17t8 -15q8 -14 17.5 -23t22.5 -11l34 -2v-30q-11 0 -22 0.5t-22 0.5q-22 1 -44 1.5t-45 0.5q-17 0 -38 -0.5t-44 -1.5q-12 0 -24.5 -0.5t-26.5 -0.5v30l47 3q16 0 28.5 5t12.5 14t-5 23.5t-12 30.5q0 1 -0.5 2t-0.5 2q-1 1 -1.5 3
t-1.5 3l-46 116h-288l-28 -67q-3 -7 -7 -18t-9 -23q-1 -3 -2 -5.5t-2 -5.5q-6 -16 -10.5 -31.5t-4.5 -21.5q0 -16 12.5 -21t35.5 -7l37 -2v-30q-12 0 -23 0.5t-22 0.5q-20 1 -37.5 1.5t-32.5 0.5q-19 0 -38.5 -0.5t-38.5 -1.5q-9 0 -18.5 -0.5t-19.5 -0.5v30l37 3
q18 1 32 15t22 33l178 406l14 31l14 32l18 40t17 40q8 18 15 36l14 36l32 1v0zM240 269h253l-126 298l-127 -298v0zM359 908h62l125 -167h-35l-121 103l-121 -103h-35l125 167v0z" />
    <glyph glyph-name="macron" unicode="&#xca;" horiz-adv-x="611" 
d="M121 120v449q0 28 -2 47t-7 27q-4 8 -14 11t-28 4l-48 4v30q14 -1 28 -1.5t28 -0.5q28 -1 56.5 -1.5t56.5 -0.5h16.5h16.5q24 0 48.5 0.5t47.5 1.5q31 0 58.5 0.5t48.5 0.5q34 0 67 -0.5t62 -2.5q-6 -23 -9.5 -49t-4.5 -53q-1 -13 -1.5 -25.5t-0.5 -24.5l-35 1v65
q0 9 -1.5 16.5t-7.5 9.5q-25 10 -57 14t-65 6q-19 1 -37.5 1h-36.5q-13 0 -27.5 -0.5t-28.5 -2.5l-14 -2t-14 -3v-266q24 -2 52 -3t64 -1q46 0 72 3t34 8q4 3 5.5 9.5t2.5 16.5l5 53h30q0 -11 -0.5 -21t-0.5 -20q-1 -20 -1.5 -38.5t-0.5 -37.5v-18.5t1 -18.5v-19t1 -18
q0 -10 0.5 -19t0.5 -18l-30 1l-5 59q-1 9 -2.5 15.5t-5.5 8.5q-8 6 -34 9t-72 3q-36 0 -64.5 -0.5t-51.5 -2.5v-279q7 -3 14 -4l14 -2q14 -2 28.5 -2.5t27.5 -0.5h24h25q52 1 97 4t56 9t20.5 36.5t14.5 75.5l35 1q-5 -24 -8.5 -50.5t-5.5 -53.5q-1 -15 -1.5 -30.5
t-0.5 -29.5q-11 0 -24.5 -0.5t-29.5 -0.5q-26 -1 -55.5 -1.5t-59.5 -0.5h-14h-14h-18.5h-18.5q-10 1 -19.5 1h-18.5h-8.5h-9.5q-33 1 -65 1.5t-60 0.5q-18 0 -34.5 -0.5t-32.5 -1.5h-2.5h-2.5q-8 0 -17 -0.5t-18 -0.5v30l36 3q18 1 28 4t14 10q5 8 7 27.5t2 47.5v1zM275 908
h62l125 -167h-35l-121 103l-121 -103h-35l125 167v0z" />
    <glyph glyph-name="breve" unicode="&#xc1;" horiz-adv-x="778" 
d="M408 700l242 -568l8 -18.5l8 -18.5t8 -17t8 -15q8 -14 17.5 -23t22.5 -11l34 -2v-30q-11 0 -22 0.5t-22 0.5q-22 1 -44 1.5t-45 0.5q-17 0 -38 -0.5t-44 -1.5q-12 0 -24.5 -0.5t-26.5 -0.5v30l47 3q16 0 28.5 5t12.5 14t-5 23.5t-12 30.5q0 1 -0.5 2t-0.5 2q-1 1 -1.5 3
t-1.5 3l-46 116h-288l-28 -67q-3 -7 -7 -18t-9 -23q-1 -3 -2 -5.5t-2 -5.5q-6 -16 -10.5 -31.5t-4.5 -21.5q0 -16 12.5 -21t35.5 -7l37 -2v-30q-12 0 -23 0.5t-22 0.5q-20 1 -37.5 1.5t-32.5 0.5q-19 0 -38.5 -0.5t-38.5 -1.5q-9 0 -18.5 -0.5t-19.5 -0.5v30l37 3
q18 1 32 15t22 33l178 406l14 31l14 32l18 40t17 40q8 18 15 36l14 36l32 1v0zM240 269h253l-126 298l-127 -298v0zM307 737l138 138q2 1 3.5 2.5l3.5 3.5l10.5 8.5l10.5 8.5q7 4 13 6.5t12 2.5q16 0 24.5 -10t8.5 -25q0 -14 -9 -23t-20 -16q-3 -2 -5.5 -3.5t-5.5 -3.5
l-144 -89h-40v0z" />
    <glyph glyph-name="dotaccent" unicode="&#xcb;" horiz-adv-x="611" 
d="M121 120v449q0 28 -2 47t-7 27q-4 8 -14 11t-28 4l-48 4v30q14 -1 28 -1.5t28 -0.5q28 -1 56.5 -1.5t56.5 -0.5h16.5h16.5q24 0 48.5 0.5t47.5 1.5q31 0 58.5 0.5t48.5 0.5q34 0 67 -0.5t62 -2.5q-6 -23 -9.5 -49t-4.5 -53q-1 -13 -1.5 -25.5t-0.5 -24.5l-35 1v65
q0 9 -1.5 16.5t-7.5 9.5q-25 10 -57 14t-65 6q-19 1 -37.5 1h-36.5q-13 0 -27.5 -0.5t-28.5 -2.5l-14 -2t-14 -3v-266q24 -2 52 -3t64 -1q46 0 72 3t34 8q4 3 5.5 9.5t2.5 16.5l5 53h30q0 -11 -0.5 -21t-0.5 -20q-1 -20 -1.5 -38.5t-0.5 -37.5v-18.5t1 -18.5v-19t1 -18
q0 -10 0.5 -19t0.5 -18l-30 1l-5 59q-1 9 -2.5 15.5t-5.5 8.5q-8 6 -34 9t-72 3q-36 0 -64.5 -0.5t-51.5 -2.5v-279q7 -3 14 -4l14 -2q14 -2 28.5 -2.5t27.5 -0.5h24h25q52 1 97 4t56 9t20.5 36.5t14.5 75.5l35 1q-5 -24 -8.5 -50.5t-5.5 -53.5q-1 -15 -1.5 -30.5
t-0.5 -29.5q-11 0 -24.5 -0.5t-29.5 -0.5q-26 -1 -55.5 -1.5t-59.5 -0.5h-14h-14h-18.5h-18.5q-10 1 -19.5 1h-18.5h-8.5h-9.5q-33 1 -65 1.5t-60 0.5q-18 0 -34.5 -0.5t-32.5 -1.5h-2.5h-2.5q-8 0 -17 -0.5t-18 -0.5v30l36 3q18 1 28 4t14 10q5 8 7 27.5t2 47.5v1zM206 868
q23 -1 36.5 -14.5t13.5 -36.5q0 -22 -13.5 -36t-36.5 -14q-22 0 -36 14t-14 36q0 23 14 36.5t36 13.5v1zM405 868q23 -1 36.5 -14.5t13.5 -36.5q0 -22 -13.5 -36t-36.5 -14q-22 0 -36 14t-14 36q0 23 14 36.5t36 13.5v1z" />
    <glyph glyph-name="ring" unicode="&#xc8;" horiz-adv-x="611" 
d="M121 120v449q0 28 -2 47t-7 27q-4 8 -14 11t-28 4l-48 4v30q14 -1 28 -1.5t28 -0.5q28 -1 56.5 -1.5t56.5 -0.5h16.5h16.5q24 0 48.5 0.5t47.5 1.5q31 0 58.5 0.5t48.5 0.5q34 0 67 -0.5t62 -2.5q-6 -23 -9.5 -49t-4.5 -53q-1 -13 -1.5 -25.5t-0.5 -24.5l-35 1v65
q0 9 -1.5 16.5t-7.5 9.5q-25 10 -57 14t-65 6q-19 1 -37.5 1h-36.5q-13 0 -27.5 -0.5t-28.5 -2.5l-14 -2t-14 -3v-266q24 -2 52 -3t64 -1q46 0 72 3t34 8q4 3 5.5 9.5t2.5 16.5l5 53h30q0 -11 -0.5 -21t-0.5 -20q-1 -20 -1.5 -38.5t-0.5 -37.5v-18.5t1 -18.5v-19t1 -18
q0 -10 0.5 -19t0.5 -18l-30 1l-5 59q-1 9 -2.5 15.5t-5.5 8.5q-8 6 -34 9t-72 3q-36 0 -64.5 -0.5t-51.5 -2.5v-279q7 -3 14 -4l14 -2q14 -2 28.5 -2.5t27.5 -0.5h24h25q52 1 97 4t56 9t20.5 36.5t14.5 75.5l35 1q-5 -24 -8.5 -50.5t-5.5 -53.5q-1 -15 -1.5 -30.5
t-0.5 -29.5q-11 0 -24.5 -0.5t-29.5 -0.5q-26 -1 -55.5 -1.5t-59.5 -0.5h-14h-14h-18.5h-18.5q-10 1 -19.5 1h-18.5h-8.5h-9.5q-33 1 -65 1.5t-60 0.5q-18 0 -34.5 -0.5t-32.5 -1.5h-2.5h-2.5q-8 0 -17 -0.5t-18 -0.5v30l36 3q18 1 28 4t14 10q5 8 7 27.5t2 47.5v1zM354 737
l-144 90q-3 1 -5.5 2.5t-5.5 3.5q-11 7 -20 16t-9 23q0 15 8.5 25t24.5 10q6 0 12 -2.5t13 -6.5l10.5 -8.5l10.5 -8.5l3.5 -3.5l3.5 -3.5l138 -137h-40v0z" />
    <glyph glyph-name="cedilla" unicode="&#xcd;" horiz-adv-x="337" 
d="M216 569v-449q0 -29 2 -48.5t7 -27.5q5 -7 14.5 -10.5t27.5 -4.5l48 -2v-30l-74.5 2t-70.5 1h-20.5h-21.5q-26 -1 -52 -1.5t-54 -1.5v30l48 3q18 0 28 3.5t14 10.5q5 8 7 27.5t2 47.5v450q0 28 -2 47t-7 27q-4 8 -14 11t-28 4l-48 4v30q28 -2 54 -2.5t52 -1.5h21.5h20.5
q35 0 70.5 1l74.5 2v-29l-48 -3q-18 -2 -27.5 -5t-14.5 -11t-7 -27t-2 -48v1zM80 737l138 138q2 1 3.5 2.5l3.5 3.5l10.5 8.5l10.5 8.5q7 4 13 6.5t12 2.5q16 0 24.5 -10t8.5 -25q0 -14 -9 -23t-20 -16q-3 -2 -5.5 -3.5t-5.5 -3.5l-144 -89h-40v0z" />
    <glyph glyph-name="hungarumlaut" unicode="&#xce;" horiz-adv-x="337" 
d="M216 569v-449q0 -29 2 -48.5t7 -27.5q5 -7 14.5 -10.5t27.5 -4.5l48 -2v-30l-74.5 2t-70.5 1h-20.5h-21.5q-26 -1 -52 -1.5t-54 -1.5v30l48 3q18 0 28 3.5t14 10.5q5 8 7 27.5t2 47.5v450q0 28 -2 47t-7 27q-4 8 -14 11t-28 4l-48 4v30q28 -2 54 -2.5t52 -1.5h21.5h20.5
q35 0 70.5 1l74.5 2v-29l-48 -3q-18 -2 -27.5 -5t-14.5 -11t-7 -27t-2 -48v1zM138 908h62l125 -167h-35l-121 103l-121 -103h-35l125 167v0z" />
    <glyph glyph-name="ogonek" unicode="&#xcf;" horiz-adv-x="337" 
d="M216 569v-449q0 -29 2 -48.5t7 -27.5q5 -7 14.5 -10.5t27.5 -4.5l48 -2v-30l-74.5 2t-70.5 1h-20.5h-21.5q-26 -1 -52 -1.5t-54 -1.5v30l48 3q18 0 28 3.5t14 10.5q5 8 7 27.5t2 47.5v450q0 28 -2 47t-7 27q-4 8 -14 11t-28 4l-48 4v30q28 -2 54 -2.5t52 -1.5h21.5h20.5
q35 0 70.5 1l74.5 2v-29l-48 -3q-18 -2 -27.5 -5t-14.5 -11t-7 -27t-2 -48v1zM69 868q23 -1 36.5 -14.5t13.5 -36.5q0 -22 -13.5 -36t-36.5 -14q-22 0 -36 14t-14 36q0 23 14 36.5t36 13.5v1zM268 868q23 -1 36.5 -14.5t13.5 -36.5q0 -22 -13.5 -36t-36.5 -14q-22 0 -36 14
t-14 36q0 23 14 36.5t36 13.5v1z" />
    <glyph glyph-name="caron" unicode="&#xcc;" horiz-adv-x="337" 
d="M216 569v-449q0 -29 2 -48.5t7 -27.5q5 -7 14.5 -10.5t27.5 -4.5l48 -2v-30l-74.5 2t-70.5 1h-20.5h-21.5q-26 -1 -52 -1.5t-54 -1.5v30l48 3q18 0 28 3.5t14 10.5q5 8 7 27.5t2 47.5v450q0 28 -2 47t-7 27q-4 8 -14 11t-28 4l-48 4v30q28 -2 54 -2.5t52 -1.5h21.5h20.5
q35 0 70.5 1l74.5 2v-29l-48 -3q-18 -2 -27.5 -5t-14.5 -11t-7 -27t-2 -48v1zM217 737l-144 90q-3 1 -5.5 2.5t-5.5 3.5q-11 7 -20 16t-9 23q0 15 8.5 25t24.5 10q6 0 12 -2.5t13 -6.5l10.5 -8.5l10.5 -8.5l3.5 -3.5l3.5 -3.5l138 -137h-40v0z" />
    <glyph glyph-name="Lslash" unicode="&#xd3;" horiz-adv-x="786" 
d="M377 -20q-152 0 -253.5 97.5t-101.5 265.5q0 155 101 260t275 105q161 0 263.5 -87.5t102.5 -254.5q0 -161 -111.5 -273.5t-275.5 -112.5v0zM382 667q-130 -1 -191.5 -82.5t-61.5 -204.5v-12t1 -13q5 -125 71 -229.5t208 -104.5q125 0 186.5 88t61.5 226q0 149 -67.5 240
t-207.5 91v1zM305 737l138 138q2 1 3.5 2.5l3.5 3.5l10.5 8.5l10.5 8.5q7 4 13 6.5t12 2.5q16 0 24.5 -10t8.5 -25q0 -14 -9 -23t-20 -16q-3 -2 -5.5 -3.5t-5.5 -3.5l-144 -89h-40v0z" />
    <glyph glyph-name="lslash" unicode="&#xd4;" horiz-adv-x="786" 
d="M377 -20q-152 0 -253.5 97.5t-101.5 265.5q0 155 101 260t275 105q161 0 263.5 -87.5t102.5 -254.5q0 -161 -111.5 -273.5t-275.5 -112.5v0zM382 667q-130 -1 -191.5 -82.5t-61.5 -204.5v-12t1 -13q5 -125 71 -229.5t208 -104.5q125 0 186.5 88t61.5 226q0 149 -67.5 240
t-207.5 91v1zM363 908h62l125 -167h-35l-121 103l-121 -103h-35l125 167v0z" />
    <glyph glyph-name="Scaron" unicode="&#xf000;" 
 />
    <glyph glyph-name="scaron" unicode="&#xd2;" 
 />
    <glyph glyph-name="Eth" unicode="&#xda;" horiz-adv-x="778" 
d="M111 214v355q0 28 -2 47t-7 27q-4 8 -14 11t-28 4l-48 4v30q28 -2 54 -2.5t52 -1.5h21.5h20.5q35 0 70.5 1l74.5 2v-29l-48 -3q-18 -2 -27.5 -5t-14.5 -11t-7 -27t-2 -48v-343q0 -107 53.5 -145.5t152.5 -38.5q81 0 143.5 41.5t62.5 165.5v321q0 28 -2 47t-7 27
q-4 8 -14 11t-28 4l-44 4v30q10 -1 20 -1.5t20 -0.5q20 -1 39 -1.5t37 -0.5h19.5t19.5 1h19.5t19.5 1q10 0 20.5 0.5t21.5 0.5v-29l-44 -3q-18 -2 -27.5 -5t-14.5 -11t-7 -27t-2 -48v-288q0 -161 -65.5 -230.5t-217.5 -69.5q-127 0 -198.5 48t-71.5 185v1zM333 737l138 138
q2 1 3.5 2.5l3.5 3.5l10.5 8.5l10.5 8.5q7 4 13 6.5t12 2.5q16 0 24.5 -10t8.5 -25q0 -14 -9 -23t-20 -16q-3 -2 -5.5 -3.5t-5.5 -3.5l-144 -89h-40v0z" />
    <glyph glyph-name="eth" unicode="&#xdb;" horiz-adv-x="778" 
d="M111 214v355q0 28 -2 47t-7 27q-4 8 -14 11t-28 4l-48 4v30q28 -2 54 -2.5t52 -1.5h21.5h20.5q35 0 70.5 1l74.5 2v-29l-48 -3q-18 -2 -27.5 -5t-14.5 -11t-7 -27t-2 -48v-343q0 -107 53.5 -145.5t152.5 -38.5q81 0 143.5 41.5t62.5 165.5v321q0 28 -2 47t-7 27
q-4 8 -14 11t-28 4l-44 4v30q10 -1 20 -1.5t20 -0.5q20 -1 39 -1.5t37 -0.5h19.5t19.5 1h19.5t19.5 1q10 0 20.5 0.5t21.5 0.5v-29l-44 -3q-18 -2 -27.5 -5t-14.5 -11t-7 -27t-2 -48v-288q0 -161 -65.5 -230.5t-217.5 -69.5q-127 0 -198.5 48t-71.5 185v1zM383 908h62
l125 -167h-35l-121 103l-121 -103h-35l125 167v0z" />
    <glyph glyph-name="Thorn" unicode="&#xd9;" horiz-adv-x="778" 
d="M111 214v355q0 28 -2 47t-7 27q-4 8 -14 11t-28 4l-48 4v30q28 -2 54 -2.5t52 -1.5h21.5h20.5q35 0 70.5 1l74.5 2v-29l-48 -3q-18 -2 -27.5 -5t-14.5 -11t-7 -27t-2 -48v-343q0 -107 53.5 -145.5t152.5 -38.5q81 0 143.5 41.5t62.5 165.5v321q0 28 -2 47t-7 27
q-4 8 -14 11t-28 4l-44 4v30q10 -1 20 -1.5t20 -0.5q20 -1 39 -1.5t37 -0.5h19.5t19.5 1h19.5t19.5 1q10 0 20.5 0.5t21.5 0.5v-29l-44 -3q-18 -2 -27.5 -5t-14.5 -11t-7 -27t-2 -48v-288q0 -161 -65.5 -230.5t-217.5 -69.5q-127 0 -198.5 48t-71.5 185v1zM438 737l-144 90
q-3 1 -5.5 2.5t-5.5 3.5q-11 7 -20 16t-9 23q0 15 8.5 25t24.5 10q6 0 12 -2.5t13 -6.5l10.5 -8.5l10.5 -8.5l3.5 -3.5l3.5 -3.5l138 -137h-40v0z" />
    <glyph glyph-name="thorn" unicode="&#x131;" horiz-adv-x="287" 
d="M188 465v-363q0 -21 1 -36t4 -23q3 -7 11 -10t21 -4l46 -2v-30q-9 0 -18.5 0.5t-19.5 0.5q-19 1 -40.5 1.5t-46.5 0.5q-24 0 -46 -0.5t-41 -1.5q-10 0 -19.5 -0.5t-18.5 -0.5v30l46 3q13 0 21 3t11 10q3 8 4 23t1 35v226q0 23 -1.5 39t-5.5 22t-12.5 8.5t-24.5 2.5l-37 1
v28q2 -1 4 -0.5t3 0.5q35 4 67.5 12.5t58.5 18.5q6 2 12 4.5l11 4.5l9 -3v0z" />
    <glyph glyph-name="onehalf" unicode="&#x2dc;" horiz-adv-x="333" 
d="M136 677h62l125 -167h-35l-121 103l-121 -103h-35l125 167v0z" />
    <glyph glyph-name="arrowright" unicode="&#x2c6;" horiz-adv-x="333" 
d="M303 640h29q0 -10 -4 -23t-12 -27q-2 -4 -4.5 -7.5l-5.5 -7.5q-13 -16 -32.5 -28.5t-47.5 -12.5q-17 0 -29.5 3t-23.5 8q-9 4 -18.5 9t-21.5 10l-5 2.5t-6 2.5q-4 2 -9 4t-10 3l-10 2t-9 1q-20 0 -33 -13.5t-20 -31.5l-29 1q8 43 35.5 71t73.5 28q17 0 33 -6t31 -13
q3 -2 6 -3.5t6 -2.5t6.5 -3t6.5 -3q5 -3 10 -5l10 -4q6 -2 12 -3.5t11 -1.5h2.5h1.5q24 3 34.5 13.5t18.5 29.5q1 2 1.5 3.5t1.5 3.5v1z" />
    <glyph glyph-name="house" unicode="&#x2c9;" horiz-adv-x="333" 
d="M323 538h-312v53h312v-53v0z" />
    <glyph glyph-name="endash" unicode="&#x2d8;" horiz-adv-x="333" 
d="M26 664h30q0 -42 29.5 -67.5t64.5 -30.5q4 0 8.5 -0.5t8.5 -0.5t8.5 0.5t8.5 0.5q35 5 64.5 30.5t29.5 66.5l30 1q0 -65 -36 -112t-105 -47t-105 47t-36 111v1z" />
    <glyph glyph-name="sfthyphen" unicode="&#x2d9;" 
d="M125 637q23 -1 36.5 -14.5t13.5 -36.5q0 -22 -13.5 -36t-36.5 -14q-22 0 -36 14t-14 36q0 23 14 36.5t36 13.5v1z" />
    <glyph glyph-name="filledbox" unicode="&#x2da;" horiz-adv-x="333" 
d="M167 696q41 -1 70.5 -30t29.5 -70v0v0v-1v0q1 -41 -29 -70.5t-71 -29.5t-70.5 29t-29.5 70v0v1v0v0q-1 41 29 70.5t71 29.5v1zM167 660q-28 -1 -45 -18.5t-17 -46.5t17 -46.5t45 -17.5t45 17.5t17 46.5t-17 46.5t-45 17.5v1z" />
    <glyph glyph-name="bullet" unicode="&#xb8;" horiz-adv-x="333" 
d="M141 -108l42 98h34l-25 -65q7 2 14.5 3t14.5 1q33 0 58 -17.5t25 -52.5q0 -40 -28.5 -58.5t-62.5 -23.5q-8 -1 -16 -1.5t-15 -0.5q-13 0 -23.5 1t-19.5 3t-19 5l-24 7l14 31q2 -1 4 -1.5t4 -0.5q6 -2 12.5 -3.5t12.5 -2.5l14.5 -2t13.5 -1q26 0 42 8.5t16 37.5
q0 16 -11 25t-24 11h-2.5h-2.5q-7 0 -13 -1l-12 -2l-8 -2l-8 -2l-7 6v0z" />
    <glyph glyph-name="uni02BA" unicode="&#x2ba;" horiz-adv-x="380" 
d="M3 506l128 148q1 0 1.5 0.5t0.5 1.5q6 6 13 11.5l14 10.5l13 5.5t11 2.5q16 0 24.5 -10t8.5 -25q0 -11 -8.5 -21t-18.5 -18q-3 -2 -6 -4.5t-6 -4.5l-135 -97h-40v0zM163 506l128 148q1 0 1.5 0.5t0.5 1.5q6 6 13 11.5l14 10.5l13 5.5t11 2.5q16 0 24.5 -10t8.5 -25
q0 -11 -8.5 -21t-18.5 -18q-3 -2 -6 -4.5t-6 -4.5l-135 -97h-40v0z" />
    <glyph glyph-name="glyph223" unicode="&#x2db;" horiz-adv-x="313" 
d="M229 -88l16 -21q-25 -23 -53 -39.5t-60 -16.5q-27 0 -45.5 18.5t-18.5 46.5v4.5t1 5.5q3 21 17 40t32 30h37q-2 -2 -4 -3.5t-4 -3.5q-11 -10 -20.5 -23t-11.5 -27v-3v-3q0 -17 12 -29t29 -12q6 0 11.5 1t11.5 3q14 5 27 13.5t23 18.5v0z" />
    <glyph glyph-name="glyph224" unicode="&#x2c7;" horiz-adv-x="333" 
d="M167 574l122 103h34l-125 -167h-62l-125 167h35l121 -103v0z" />
    <glyph glyph-name="glyph225" unicode="&#x141;" horiz-adv-x="611" 
d="M121 330v239q0 28 -2 47t-7 27q-4 8 -14 11t-28 4l-48 4v30q28 -2 54 -2.5t52 -1.5h21.5h20.5q35 0 70.5 1l74.5 2v-29l-48 -3q-18 -2 -27.5 -5t-14.5 -11t-7 -27t-2 -48v-180l138 84l16 -32l-154 -94v-299q7 -3 14 -4l14 -2q14 -2 28.5 -2.5t27.5 -0.5h36t38 1
q50 1 94 5t53 13q5 4 8.5 15.5t6.5 23.5q2 7 3.5 13.5t2.5 11.5l12 51h32l-4 -36.5l-4 -36.5l-6 -52.5t-7 -46.5q-11 0 -24.5 -0.5t-29.5 -0.5q-26 -1 -55.5 -1.5t-59.5 -0.5h-14h-14q-22 0 -43 0.5t-40 0.5q-38 1 -71 1.5t-64 0.5q-17 0 -31.5 -0.5t-27.5 -1.5h-9.5
t-8.5 -1h-4h-4v23l31 16q13 6 19 22t6 36v194l-99 -60l-16 32l115 70v0z" />
    <glyph glyph-name="glyph226" unicode="&#x142;" horiz-adv-x="291" 
d="M104 390v230q0 16 -4 28t-21 12l-56 1v28q40 5 79.5 13t76.5 23l9 -7v-277l103 63l15 -32l-118 -72v-298q0 -21 1 -36t4 -23q3 -7 11 -10t21 -4l46 -2v-30q-9 0 -18.5 0.5t-19.5 0.5q-19 1 -40.5 1.5t-46.5 0.5q-24 0 -46 -0.5t-41 -1.5q-10 0 -19.5 -0.5t-18.5 -0.5v30
l46 3q13 0 21 3t11 10q3 8 4 23t1 35v247l-102 -62l-16 32l118 72v0z" />
    <glyph glyph-name="glyph227" unicode="&#x160;" horiz-adv-x="525" 
d="M447 526h-32l-6 57q-1 10 -3.5 18.5t-8.5 15.5q-5 6 -12.5 12t-19.5 13q-17 11 -40.5 16.5t-47.5 6.5q-5 1 -10.5 1h-10.5t-10 -0.5t-10 -0.5q-48 -6 -88 -42t-40 -103q0 -51 35.5 -82t129.5 -42q106 -11 168 -44.5t62 -119.5q0 -125 -91 -187t-200 -65h-5h-6
q-41 0 -79.5 8.5t-65.5 17.5l-14.5 5.5t-11.5 5.5q2 10 3 20t2 19l2 40t0 38v18v18l32 1l8 -67q4 -32 54 -56.5t109 -24.5q68 0 123.5 40t55.5 114q0 71 -49.5 98t-126.5 36q-118 14 -168.5 53.5t-50.5 117.5q0 104 68 158.5t150 65.5q9 1 19 1.5t19 0.5q43 0 78.5 -8.5
t63.5 -18.5q11 -4 20.5 -8t18.5 -7q-5 -25 -8 -48.5t-5 -46.5q0 -11 -0.5 -22.5t-0.5 -23.5v1zM263 805l122 103h34l-125 -167h-62l-125 167h35l121 -103v0z" />
    <glyph glyph-name="glyph228" unicode="&#x161;" horiz-adv-x="424" 
d="M41 143h30v-41q0 -40 31.5 -60t69.5 -24q7 -1 14 -1.5t14 -0.5q47 0 82 25.5t35 65.5q0 24 -12.5 42t-35.5 24l-43 10.5l-46 11.5q-15 4 -29.5 8.5t-28.5 9.5q-36 14 -60.5 38.5t-24.5 70.5q0 81 59 113.5t129 32.5q35 0 67.5 -7t61.5 -18q-2 -27 -3 -55l-2 -58l-28 1v23
q0 37 -34.5 58t-75.5 23h-3.5h-2.5q-50 0 -70.5 -18t-25.5 -40q-1 -6 -1.5 -11.5t-0.5 -11.5q0 -32 26 -50.5t83 -28.5q89 -15 132 -42t43 -86q0 -82 -69 -124.5t-152 -42.5q-16 0 -32 1t-31 4q-19 2 -38 7t-39 11q6 26 8 54t3 57v14v14v1zM213 582l122 103h34l-125 -167
h-62l-125 167h35l121 -103v0z" />
    <glyph glyph-name="Zcaron" unicode="&#x17d;" 
 />
    <glyph glyph-name="zcaron" unicode="&#x17e;" 
 />
    <glyph glyph-name="brokenbar" unicode="&#xa6;" 
 />
    <glyph glyph-name="glyph232" unicode="&#xd0;" horiz-adv-x="774" 
d="M113 95v251h-99v36h99v187q0 28 -2 47t-7 27q-4 8 -14 11t-28 4l-40 4v30q17 -1 33.5 -1.5t32.5 -0.5q13 0 26 -0.5t26 -0.5q20 -1 39.5 -1h39.5q33 0 64.5 0.5t59.5 1.5q14 0 26.5 0.5t23.5 0.5h3.5h3.5h3.5h3.5q149 0 246.5 -81t97.5 -224v-6v-6q-4 -112 -63.5 -210.5
t-151.5 -132.5q-7 -3 -15 -5.5l-17 -5.5q-26 -9 -62.5 -16t-89.5 -7h-6h-6q-14 0 -27.5 0.5t-26.5 0.5q-23 1 -43.5 1.5t-40.5 0.5h-4.5h-4.5h-16.5h-17.5q-14 -1 -28 -1t-28 -1q-11 0 -22.5 -0.5t-23.5 -0.5v23l31 16q13 6 19 22t6 36v1zM208 644v-262h184v-36h-184v-297
q12 -4 29 -5.5t35 -2.5q13 -1 26 -1h24q16 0 32.5 0.5t33.5 2.5q23 2 46 7t43 15q89 41 128 116.5t39 176.5q0 186 -93.5 239.5t-228.5 53.5h-24t-26 -1q-18 -1 -35 -2.5t-29 -4.5v1z" />
    <glyph glyph-name="glyph233" unicode="&#xf0;" horiz-adv-x="546" 
d="M124 550l136 66q-16 14 -36 28t-40 26l-23.5 13.5t-22.5 11.5l34 33q38 -23 66 -41.5t50 -35.5l9 -7t8 -7l143 71l18 -30l-131 -64q66 -64 117.5 -151t51.5 -200q0 -112 -61 -195.5t-187 -87.5h-2h-2h-2h-2q-94 0 -155 66t-61 167q0 113 66 184t179 71q8 0 16.5 -1
l16.5 -2q18 -3 35 -8.5t28 -10.5l3 -1.5t2 -1.5l2 3q-19 43 -45 80t-53 61l-140 -67l-18 30v0zM275 13q64 -1 102.5 63t38.5 175q0 79 -32.5 120.5t-72.5 55.5q-12 4 -24 6t-23 2q-79 0 -109 -55.5t-30 -125.5q0 -15 1 -30.5t3 -31.5q10 -67 44 -123.5t102 -56.5v1z" />
    <glyph glyph-name="Yacute" unicode="&#xdd;" 
 />
    <glyph glyph-name="yacute" unicode="&#xfd;" 
 />
    <glyph glyph-name="glyph236" unicode="&#xde;" horiz-adv-x="604" 
d="M226 491v-371q0 -29 2 -48.5t7 -27.5q5 -7 14.5 -10.5t27.5 -4.5l48 -2v-30l-74.5 2t-70.5 1h-20.5h-21.5q-26 -1 -52 -1.5t-54 -1.5v30l48 3q18 0 28 3.5t14 10.5q5 8 7 27.5t2 47.5v450q0 28 -2 47t-7 27q-4 8 -14 11t-28 4l-48 4v30q28 -2 54 -2.5t52 -1.5h21.5h20.5
q35 0 70.5 1l74.5 2v-29l-48 -3q-18 -2 -27.5 -5t-14.5 -11t-7 -27t-2 -48v-26q9 -2 23 -2.5t31 -0.5h41.5t45.5 1h2h2h1h2h10t11 -1q67 -4 123 -39.5t56 -112.5q0 -91 -64 -149.5t-140 -62.5h-5h-4q-20 0 -37 1.5t-28 4.5l-11 38l4 -2t4 -1q11 -3 25.5 -5t30.5 -2h1.5h1.5
q46 1 84 41t38 103q0 78 -44 111.5t-120 33.5q-13 0 -27.5 -0.5t-28.5 -2.5l-14 -2t-14 -3v1z" />
    <glyph glyph-name="glyph237" unicode="&#xfe;" horiz-adv-x="601" 
d="M81 -176v796q0 16 -4 28t-21 12l-56 1v28q40 5 79.5 13t76.5 23l9 -7v-347h2l53 54q14 14 37.5 24.5t49.5 15.5q8 1 17 2t17 1q80 0 141.5 -56t61.5 -148q0 -13 -2 -27t-5 -28q-9 -39 -28.5 -74.5t-43.5 -53.5l-100 -71q-8 -7 -16.5 -10.5t-16.5 -5.5q-16 -5 -30.5 -5.5
t-27.5 -0.5t-29 2.5t-32 6.5q-12 3 -24.5 6.5t-23.5 8.5v-188q0 -20 1 -35t4 -23q3 -7 11 -10t21 -4l46 -3v-30q-9 0 -18.5 0.5t-19.5 0.5q-19 1 -40.5 1.5t-46.5 0.5q-24 0 -46 -0.5t-41 -1.5q-10 0 -19.5 -0.5t-17.5 -0.5l-1 30l46 3q13 1 21 4t11 10q3 8 4 23t1 35v0z
M165 301v-203q29 -34 64 -47t78 -13q61 0 105.5 49t44.5 147q0 71 -38.5 120t-117.5 49q-42 0 -70.5 -16.5t-44.5 -35.5q-5 -6 -9 -12t-7 -12q-4 -7 -4.5 -13.5t-0.5 -13.5v1z" />
    <glyph glyph-name="minus" unicode="&#x2212;" 
 />
    <glyph glyph-name="multiply" unicode="&#xd7;" 
 />
    <glyph glyph-name="uni00B9" unicode="&#xb9;" 
 />
    <glyph glyph-name="uni00B2" unicode="&#xb2;" 
 />
    <glyph glyph-name="uni00B3" unicode="&#xb3;" 
 />
    <glyph glyph-name="glyph243" unicode="&#xbd;" horiz-adv-x="750" 
d="M634 162l-115 -109h122q5 -1 10.5 -1h10.5l39 2t34 3q-1 -10 -1.5 -18t0.5 -16v-9.5v-8.5q0 -2 0.5 -4t0.5 -4q-14 0 -27.5 0.5t-26.5 0.5q-19 1 -37.5 1.5t-36.5 0.5h-13.5h-13.5q-18 0 -36.5 -0.5t-36.5 -0.5q-6 0 -12 -0.5t-12 -0.5q-12 0 -24.5 -0.5t-24.5 -0.5v20
l108 104q61 58 80 91.5t20 61.5v3.5v3.5q0 37 -21 59.5t-62 22.5q-28 0 -45.5 -10.5t-27.5 -36.5l-13 -34h-24q3 16 4.5 31t3.5 29q1 8 2 14.5l2 13.5q21 23 50 32.5t60 9.5q71 0 105 -34t34 -78q0 -21 -6 -40.5t-18 -38.5q-10 -14 -23 -29t-29 -31v1zM174 0h-52l451 689h52
l-451 -689v0zM114 379v238v1v2q0 6 -1 11t-4 4h-0.5h-0.5h-0.5h-0.5l-81 -33h-7l-4 32q29 9 61 21l66 24l16.5 6l17.5 6l10 -2q-1 -9 -2 -24t-2 -35q-1 -30 -2.5 -68t-1.5 -78v-105q0 -52 7.5 -66.5t34.5 -14.5l33 1v-26q-14 -1 -26 -0.5t-22 0.5q-21 1 -35.5 1.5t-28.5 0.5
q-13 0 -28 -0.5t-34 -1.5q-9 0 -20 -0.5t-24 -0.5v27h36q27 -1 35 13.5t8 65.5v1z" />
    <glyph glyph-name="onequarter" unicode="&#xbc;" 
 />
    <glyph glyph-name="threequarters" unicode="&#xbe;" 
 />
    <glyph glyph-name="franc" unicode="&#x20a3;" 
 />
    <glyph glyph-name="Gbreve" unicode="&#x11e;" 
 />
    <glyph glyph-name="gbreve" unicode="&#x11f;" 
 />
    <glyph glyph-name="Idotaccent" unicode="&#x130;" 
 />
    <glyph glyph-name="Scedilla" unicode="&#x15e;" 
 />
    <glyph glyph-name="scedilla" unicode="&#x15f;" 
 />
    <glyph glyph-name="Cacute" unicode="&#x106;" 
 />
    <glyph glyph-name="cacute" unicode="&#x107;" 
 />
    <glyph glyph-name="Ccaron" unicode="&#x10c;" 
 />
    <glyph glyph-name="ccaron" unicode="&#x10d;" 
 />
    <glyph glyph-name="dcroat" unicode="&#x111;" 
 />
    <glyph glyph-name="glyph257" unicode="&#x2192;" horiz-adv-x="500" 
 />
    <glyph glyph-name="glyph258" unicode="&#x2302;" 
 />
    <glyph glyph-name="glyph259" unicode="&#x2013;" horiz-adv-x="500" 
d="M500 219h-500v58h500v-58v0z" />
    <glyph glyph-name="uni00AD" unicode="&#xad;" horiz-adv-x="500" 
 />
    <glyph glyph-name="glyph261" unicode="&#x25a0;" horiz-adv-x="500" 
 />
    <glyph glyph-name="glyph262" unicode="&#x2022;" horiz-adv-x="606" 
d="M131 344q0 70 51 120.5t121 50.5q71 0 121.5 -50.5t50.5 -121.5q0 -70 -50.5 -121t-121.5 -51q-70 0 -121 51t-51 121v1z" />
    <glyph glyph-name="glyph263" unicode="&#xaf;" 
 />
    <glyph glyph-name="glyph264" unicode="&#xb0;" 
 />
    <glyph glyph-name="glyph265" unicode="&#xb7;" 
 />
    <glyph glyph-name="underscoredbl" unicode="&#x2017;" 
 />
    <glyph glyph-name="exclamdbl" unicode="&#x203c;" 
 />
    <glyph glyph-name="uni207F" unicode="&#x207f;" 
 />
    <glyph glyph-name="peseta" unicode="&#x20a7;" 
 />
    <glyph glyph-name="Gamma" unicode="&#x393;" 
 />
    <glyph glyph-name="Theta" unicode="&#x398;" 
 />
    <glyph glyph-name="Phi" unicode="&#x3a6;" 
 />
    <glyph glyph-name="alpha" unicode="&#x3b1;" 
 />
    <glyph glyph-name="delta" unicode="&#x3b4;" 
 />
    <glyph glyph-name="epsilon" unicode="&#x3b5;" 
 />
    <glyph glyph-name="sigma" unicode="&#x3c3;" 
 />
    <glyph glyph-name="tau" unicode="&#x3c4;" 
 />
    <glyph glyph-name="phi" unicode="&#x3c6;" 
 />
    <glyph glyph-name="arrowleft" unicode="&#x2190;" 
 />
    <glyph glyph-name="arrowup" unicode="&#x2191;" 
 />
    <glyph glyph-name="arrowdown" unicode="&#x2193;" 
 />
    <glyph glyph-name="arrowboth" unicode="&#x2194;" 
 />
    <glyph glyph-name="arrowupdn" unicode="&#x2195;" 
 />
    <glyph glyph-name="arrowupdnbse" unicode="&#x21a8;" 
 />
    <glyph glyph-name="orthogonal" unicode="&#x221f;" 
 />
    <glyph glyph-name="intersection" unicode="&#x2229;" 
 />
    <glyph glyph-name="equivalence" unicode="&#x2261;" 
 />
    <glyph glyph-name="revlogicalnot" unicode="&#x2310;" 
 />
    <glyph glyph-name="integraltp" unicode="&#x2320;" 
 />
    <glyph glyph-name="integralbt" unicode="&#x2321;" 
 />
    <glyph glyph-name="filledrect" unicode="&#x25ac;" 
 />
    <glyph glyph-name="circle" unicode="&#x25cb;" 
 />
    <glyph glyph-name="triagup" unicode="&#x25b2;" 
 />
    <glyph glyph-name="triagrt" unicode="&#x25ba;" 
 />
    <glyph glyph-name="triagdn" unicode="&#x25bc;" 
 />
    <glyph glyph-name="triaglf" unicode="&#x25c4;" 
 />
    <glyph glyph-name="invbullet" unicode="&#x25d8;" 
 />
    <glyph glyph-name="invcircle" unicode="&#x25d9;" 
 />
    <glyph glyph-name="Rcaron" unicode="&#x158;" 
 />
    <glyph glyph-name="upblock" unicode="&#x2580;" 
 />
    <glyph glyph-name="dnblock" unicode="&#x2584;" 
 />
    <glyph glyph-name="block" unicode="&#x2588;" 
 />
    <glyph glyph-name="lfblock" unicode="&#x258c;" 
 />
    <glyph glyph-name="rtblock" unicode="&#x2590;" 
 />
    <glyph glyph-name="ltshade" unicode="&#x2591;" 
 />
    <glyph glyph-name="shade" unicode="&#x2592;" 
 />
    <glyph glyph-name="dkshade" unicode="&#x2593;" 
 />
    <glyph glyph-name="smileface" unicode="&#x263a;" 
 />
    <glyph glyph-name="invsmileface" unicode="&#x263b;" 
 />
    <glyph glyph-name="sun" unicode="&#x263c;" 
 />
    <glyph glyph-name="female" unicode="&#x2640;" 
 />
    <glyph glyph-name="male" unicode="&#x2642;" 
 />
    <glyph glyph-name="spade" unicode="&#x2660;" 
 />
    <glyph glyph-name="club" unicode="&#x2663;" 
 />
    <glyph glyph-name="heart" unicode="&#x2665;" 
 />
    <glyph glyph-name="diamond" unicode="&#x2666;" 
 />
    <glyph glyph-name="musicalnote" unicode="&#x266a;" 
 />
    <glyph glyph-name="musicalnotedbl" unicode="&#x266b;" 
 />
    <glyph glyph-name="Abreve" unicode="&#x102;" 
 />
    <glyph glyph-name="abreve" unicode="&#x103;" 
 />
    <glyph glyph-name="Aogonek" unicode="&#x104;" 
 />
    <glyph glyph-name="aogonek" unicode="&#x105;" 
 />
    <glyph glyph-name="Dcaron" unicode="&#x10e;" 
 />
    <glyph glyph-name="dcaron" unicode="&#x10f;" 
 />
    <glyph glyph-name="Dcroat" unicode="&#x110;" 
 />
    <glyph glyph-name="Eogonek" unicode="&#x118;" 
 />
    <glyph glyph-name="eogonek" unicode="&#x119;" 
 />
    <glyph glyph-name="Ecaron" unicode="&#x11a;" 
 />
    <glyph glyph-name="ecaron" unicode="&#x11b;" 
 />
    <glyph glyph-name="Lacute" unicode="&#x139;" 
 />
    <glyph glyph-name="lacute" unicode="&#x13a;" 
 />
    <glyph glyph-name="Lcaron" unicode="&#x13d;" 
 />
    <glyph glyph-name="lcaron" unicode="&#x13e;" 
 />
    <glyph glyph-name="Nacute" unicode="&#x143;" 
 />
    <glyph glyph-name="nacute" unicode="&#x144;" 
 />
    <glyph glyph-name="Ncaron" unicode="&#x147;" 
 />
    <glyph glyph-name="ncaron" unicode="&#x148;" 
 />
    <glyph glyph-name="Ohungarumlaut" unicode="&#x150;" 
 />
    <glyph glyph-name="ohungarumlaut" unicode="&#x151;" 
 />
    <glyph glyph-name="Racute" unicode="&#x154;" 
 />
    <glyph glyph-name="racute" unicode="&#x155;" 
 />
    <glyph glyph-name="rcaron" unicode="&#x159;" 
 />
    <glyph glyph-name="Sacute" unicode="&#x15a;" 
 />
    <glyph glyph-name="sacute" unicode="&#x15b;" 
 />
    <glyph glyph-name="Tcommaaccent" unicode="&#x162;" 
 />
    <glyph glyph-name="tcommaaccent" unicode="&#x163;" 
 />
    <glyph glyph-name="Tcaron" unicode="&#x164;" 
 />
    <glyph glyph-name="tcaron" unicode="&#x165;" 
 />
    <glyph glyph-name="Uring" unicode="&#x16e;" 
 />
    <glyph glyph-name="uring" unicode="&#x16f;" 
 />
    <glyph glyph-name="uhungarumlaut" unicode="&#x171;" 
 />
    <glyph glyph-name="Uhungarumlaut" unicode="&#x170;" 
 />
    <glyph glyph-name="Zacute" unicode="&#x179;" 
 />
    <glyph glyph-name="zacute" unicode="&#x17a;" 
 />
    <glyph glyph-name="Zdotaccent" unicode="&#x17b;" 
 />
    <glyph glyph-name="zdotaccent" unicode="&#x17c;" 
 />
    <glyph glyph-name="Ldot" unicode="&#x13f;" 
 />
    <glyph glyph-name="ldot" unicode="&#x140;" 
 />
    <glyph glyph-name="SF100000" unicode="&#x2500;" 
 />
    <glyph glyph-name="SF110000" unicode="&#x2502;" 
 />
    <glyph glyph-name="SF010000" unicode="&#x250c;" 
 />
    <glyph glyph-name="SF030000" unicode="&#x2510;" 
 />
    <glyph glyph-name="SF020000" unicode="&#x2514;" 
 />
    <glyph glyph-name="SF040000" unicode="&#x2518;" 
 />
    <glyph glyph-name="SF080000" unicode="&#x251c;" 
 />
    <glyph glyph-name="SF090000" unicode="&#x2524;" 
 />
    <glyph glyph-name="SF060000" unicode="&#x252c;" 
 />
    <glyph glyph-name="SF070000" unicode="&#x2534;" 
 />
    <glyph glyph-name="SF050000" unicode="&#x253c;" 
 />
    <glyph glyph-name="SF430000" unicode="&#x2550;" 
 />
    <glyph glyph-name="SF240000" unicode="&#x2551;" 
 />
    <glyph glyph-name="SF510000" unicode="&#x2552;" 
 />
    <glyph glyph-name="SF520000" unicode="&#x2553;" 
 />
    <glyph glyph-name="SF390000" unicode="&#x2554;" 
 />
    <glyph glyph-name="SF220000" unicode="&#x2555;" 
 />
    <glyph glyph-name="SF210000" unicode="&#x2556;" 
 />
    <glyph glyph-name="SF250000" unicode="&#x2557;" 
 />
    <glyph glyph-name="SF500000" unicode="&#x2558;" 
 />
    <glyph glyph-name="SF490000" unicode="&#x2559;" 
 />
    <glyph glyph-name="SF380000" unicode="&#x255a;" 
 />
    <glyph glyph-name="SF280000" unicode="&#x255b;" 
 />
    <glyph glyph-name="SF270000" unicode="&#x255c;" 
 />
    <glyph glyph-name="SF260000" unicode="&#x255d;" 
 />
    <glyph glyph-name="SF360000" unicode="&#x255e;" 
 />
    <glyph glyph-name="SF370000" unicode="&#x255f;" 
 />
    <glyph glyph-name="SF420000" unicode="&#x2560;" 
 />
    <glyph glyph-name="SF190000" unicode="&#x2561;" 
 />
    <glyph glyph-name="SF200000" unicode="&#x2562;" 
 />
    <glyph glyph-name="SF230000" unicode="&#x2563;" 
 />
    <glyph glyph-name="SF470000" unicode="&#x2564;" 
 />
    <glyph glyph-name="SF480000" unicode="&#x2565;" 
 />
    <glyph glyph-name="SF410000" unicode="&#x2566;" 
 />
    <glyph glyph-name="SF450000" unicode="&#x2567;" 
 />
    <glyph glyph-name="SF460000" unicode="&#x2568;" 
 />
    <glyph glyph-name="SF400000" unicode="&#x2569;" 
 />
    <glyph glyph-name="SF540000" unicode="&#x256a;" 
 />
    <glyph glyph-name="SF530000" unicode="&#x256b;" 
 />
    <glyph glyph-name="SF440000" unicode="&#x256c;" 
 />
    </font>
</defs>
</svg>
